<ttFont>
<head>
    <!-- Most of this table will be recalculated by the compiler -->
    <tableVersion value="1.0"/>
    <fontRevision value="2.01"/>
    <checkSumAdjustment value="0xa4c933a2"/>
    <magicNumber value="0x5f0f3cf5"/>
    <flags value="00000000 00000011"/>
    <unitsPerEm value="1000"/>
    <created value="Wed Feb  7 19:23:36 2018"/>
    <modified value="Wed Feb  7 11:23:40 2018"/>
    <xMin value="-444"/>
    <yMin value="-651"/>
    <xMax value="1813"/>
    <yMax value="982"/>
    <macStyle value="00000000 00000001"/>
    <lowestRecPPEM value="7"/>
    <fontDirectionHint value="2"/>
    <indexToLocFormat value="0"/>
    <glyphDataFormat value="0"/>
  </head>
    <TTGlyph name=".notdef" xMin="168" yMin="0" xMax="585" yMax="701">
      <contour>
        <pt x="585" y="701" on="1"/>
        <pt x="585" y="0" on="1"/>
        <pt x="168" y="0" on="1"/>
        <pt x="168" y="701" on="1"/>
      </contour>
      <contour>
        <pt x="516" y="65" on="1"/>
        <pt x="516" y="636" on="1"/>
        <pt x="238" y="636" on="1"/>
        <pt x="238" y="65" on="1"/>
      </contour>
    </TTGlyph>
    <TTGlyph name="A" xMin="11" yMin="0" xMax="450" yMax="682">
      <contour>
        <pt x="311" y="175" on="1"/>
        <pt x="150" y="175" on="1"/>
        <pt x="116" y="0" on="1"/>
        <pt x="11" y="0" on="1"/>
        <pt x="156" y="682" on="1"/>
        <pt x="307" y="682" on="1"/>
        <pt x="450" y="0" on="1"/>
        <pt x="346" y="0" on="1"/>
      </contour>
      <contour>
        <pt x="292" y="267" on="1"/>
        <pt x="229" y="583" on="1"/>
        <pt x="168" y="267" on="1"/>
      </contour>
    </TTGlyph>
    <TTGlyph name="AE" xMin="4" yMin="0" xMax="668" yMax="682">
      <contour>
        <pt x="457" y="587" on="1"/>
        <pt x="457" y="392" on="1"/>
        <pt x="640" y="392" on="1"/>
        <pt x="640" y="297" on="1"/>
        <pt x="457" y="297" on="1"/>
        <pt x="457" y="94" on="1"/>
        <pt x="668" y="94" on="1"/>
        <pt x="668" y="0" on="1"/>
        <pt x="355" y="0" on="1"/>
        <pt x="355" y="175" on="1"/>
        <pt x="181" y="175" on="1"/>
        <pt x="111" y="0" on="1"/>
        <pt x="4" y="0" on="1"/>
        <pt x="290" y="682" on="1"/>
        <pt x="668" y="682" on="1"/>
        <pt x="668" y="587" on="1"/>
      </contour>
      <contour>
        <pt x="355" y="267" on="1"/>
        <pt x="355" y="610" on="1"/>
        <pt x="218" y="267" on="1"/>
      </contour>
    </TTGlyph>
    <TTGlyph name="Aacute" xMin="11" yMin="0" xMax="450" yMax="833">
      <component glyphName="A" x="0" y="0" flags="0x0"/>
      <component glyphName="acute" x="86" y="100" flags="0x4"/>
    </TTGlyph>
    <TTGlyph name="Abreve" xMin="11" yMin="0" xMax="450" yMax="833">
      <component glyphName="A" x="0" y="0" flags="0x0"/>
      <component glyphName="breve" x="54" y="100" flags="0x4"/>
    </TTGlyph>
    <TTGlyph name="Acircumflex" xMin="11" yMin="0" xMax="450" yMax="833">
      <component glyphName="A" x="0" y="0" flags="0x0"/>
      <component glyphName="circumflex" x="59" y="100" flags="0x4"/>
    </TTGlyph>
    <TTGlyph name="Adieresis" xMin="11" yMin="0" xMax="450" yMax="822">
      <component glyphName="dieresis" x="54" y="100" flags="0x4"/>
      <component glyphName="A" x="0" y="0" flags="0x0"/>
    </TTGlyph>
    <TTGlyph name="Agrave" xMin="11" yMin="0" xMax="450" yMax="833">
      <component glyphName="A" x="0" y="0" flags="0x0"/>
      <component glyphName="grave" x="19" y="100" flags="0x4"/>
    </TTGlyph>
    <TTGlyph name="Amacron" xMin="11" yMin="0" xMax="450" yMax="808">
      <component glyphName="A" x="0" y="0" flags="0x0"/>
      <component glyphName="macron" x="54" y="100" flags="0x4"/>
    </TTGlyph>
    <TTGlyph name="Aogonek" xMin="11" yMin="-187" xMax="450" yMax="682">
      <component glyphName="A" x="0" y="0" flags="0x0"/>
      <component glyphName="ogonek" x="221" y="0" flags="0x0"/>
    </TTGlyph>
    <TTGlyph name="Aring" xMin="11" yMin="0" xMax="450" yMax="852">
      <component glyphName="A" x="0" y="0" flags="0x0"/>
      <component glyphName="ring" x="54" y="100" flags="0x4"/>
    </TTGlyph>
    <TTGlyph name="Atilde" xMin="11" yMin="0" xMax="450" yMax="827">
      <component glyphName="A" x="0" y="0" flags="0x0"/>
      <component glyphName="tilde" x="56" y="100" flags="0x4"/>
    </TTGlyph>
    <TTGlyph name="B" xMin="58" yMin="0" xMax="432" yMax="682">
      <contour>
        <pt x="432" y="321" on="0"/>
        <pt x="432" y="220" on="1"/>
        <pt x="432" y="155" on="1"/>
        <pt x="432" y="78" on="0"/>
        <pt x="348" y="0" on="0"/>
        <pt x="267" y="0" on="1"/>
        <pt x="58" y="0" on="1"/>
        <pt x="58" y="682" on="1"/>
        <pt x="261" y="682" on="1"/>
        <pt x="342" y="682" on="0"/>
        <pt x="426" y="603" on="0"/>
        <pt x="426" y="526" on="1"/>
        <pt x="426" y="466" on="1"/>
        <pt x="426" y="370" on="0"/>
        <pt x="354" y="344" on="1"/>
      </contour>
      <contour>
        <pt x="166" y="590" on="1"/>
        <pt x="166" y="391" on="1"/>
        <pt x="246" y="391" on="1"/>
        <pt x="319" y="391" on="0"/>
        <pt x="319" y="460" on="1"/>
        <pt x="319" y="521" on="1"/>
        <pt x="319" y="590" on="0"/>
        <pt x="246" y="590" on="1"/>
      </contour>
      <contour>
        <pt x="325" y="226" on="1"/>
        <pt x="325" y="261" on="0"/>
        <pt x="290" y="295" on="0"/>
        <pt x="252" y="295" on="1"/>
        <pt x="166" y="295" on="1"/>
        <pt x="166" y="92" on="1"/>
        <pt x="252" y="92" on="1"/>
        <pt x="325" y="92" on="0"/>
        <pt x="325" y="161" on="1"/>
      </contour>
    </TTGlyph>
    <TTGlyph name="C" xMin="48" yMin="-5" xMax="371" yMax="687">
      <contour>
        <pt x="48" y="606" on="0"/>
        <pt x="147" y="687" on="0"/>
        <pt x="248" y="687" on="1"/>
        <pt x="314" y="687" on="0"/>
        <pt x="368" y="672" on="1"/>
        <pt x="368" y="572" on="1"/>
        <pt x="315" y="589" on="0"/>
        <pt x="249" y="589" on="1"/>
        <pt x="198" y="589" on="0"/>
        <pt x="157" y="556" on="0"/>
        <pt x="157" y="523" on="1"/>
        <pt x="157" y="158" on="1"/>
        <pt x="157" y="126" on="0"/>
        <pt x="198" y="93" on="0"/>
        <pt x="249" y="93" on="1"/>
        <pt x="318" y="93" on="0"/>
        <pt x="371" y="108" on="1"/>
        <pt x="371" y="10" on="1"/>
        <pt x="317" y="-5" on="0"/>
        <pt x="247" y="-5" on="1"/>
        <pt x="146" y="-5" on="0"/>
        <pt x="48" y="75" on="0"/>
        <pt x="48" y="149" on="1"/>
        <pt x="48" y="532" on="1"/>
      </contour>
    </TTGlyph>
    <TTGlyph name="Cacute" xMin="48" yMin="-5" xMax="371" yMax="833">
      <component glyphName="C" x="0" y="0" flags="0x0"/>
      <component glyphName="acute" x="94" y="100" flags="0x4"/>
    </TTGlyph>
    <TTGlyph name="Ccaron" xMin="48" yMin="-5" xMax="371" yMax="833">
      <component glyphName="C" x="0" y="0" flags="0x0"/>
      <component glyphName="caron" x="60" y="100" flags="0x4"/>
    </TTGlyph>
    <TTGlyph name="Ccedilla" xMin="48" yMin="-186" xMax="371" yMax="687">
      <component glyphName="C" x="0" y="0" flags="0x0"/>
      <component glyphName="cedilla" x="59" y="0" flags="0x0"/>
    </TTGlyph>
    <TTGlyph name="D" xMin="58" yMin="0" xMax="431" yMax="682">
      <contour>
        <pt x="345" y="682" on="0"/>
        <pt x="431" y="602" on="0"/>
        <pt x="431" y="529" on="1"/>
        <pt x="431" y="158" on="1"/>
        <pt x="431" y="83" on="0"/>
        <pt x="352" y="0" on="0"/>
        <pt x="271" y="0" on="1"/>
        <pt x="58" y="0" on="1"/>
        <pt x="58" y="682" on="1"/>
        <pt x="265" y="682" on="1"/>
      </contour>
      <contour>
        <pt x="323" y="557" on="0"/>
        <pt x="291" y="591" on="0"/>
        <pt x="253" y="591" on="1"/>
        <pt x="166" y="591" on="1"/>
        <pt x="166" y="94" on="1"/>
        <pt x="253" y="94" on="1"/>
        <pt x="291" y="94" on="0"/>
        <pt x="323" y="131" on="0"/>
        <pt x="323" y="165" on="1"/>
        <pt x="323" y="526" on="1"/>
      </contour>
    </TTGlyph>
    <TTGlyph name="Dcaron" xMin="58" yMin="0" xMax="431" yMax="833">
      <component glyphName="D" x="0" y="0" flags="0x0"/>
      <component glyphName="caron" x="55" y="100" flags="0x4"/>
    </TTGlyph>
    <TTGlyph name="Dcroat" xMin="1" yMin="0" xMax="437" yMax="682">
      <contour>
        <pt x="351" y="682" on="0"/>
        <pt x="437" y="602" on="0"/>
        <pt x="437" y="529" on="1"/>
        <pt x="437" y="158" on="1"/>
        <pt x="437" y="83" on="0"/>
        <pt x="358" y="0" on="0"/>
        <pt x="277" y="0" on="1"/>
        <pt x="64" y="0" on="1"/>
        <pt x="64" y="292" on="1"/>
        <pt x="1" y="292" on="1"/>
        <pt x="1" y="383" on="1"/>
        <pt x="64" y="383" on="1"/>
        <pt x="64" y="682" on="1"/>
        <pt x="271" y="682" on="1"/>
      </contour>
      <contour>
        <pt x="329" y="526" on="1"/>
        <pt x="329" y="557" on="0"/>
        <pt x="297" y="591" on="0"/>
        <pt x="259" y="591" on="1"/>
        <pt x="172" y="591" on="1"/>
        <pt x="172" y="383" on="1"/>
        <pt x="251" y="383" on="1"/>
        <pt x="251" y="292" on="1"/>
        <pt x="172" y="292" on="1"/>
        <pt x="172" y="94" on="1"/>
        <pt x="259" y="94" on="1"/>
        <pt x="297" y="94" on="0"/>
        <pt x="329" y="131" on="0"/>
        <pt x="329" y="165" on="1"/>
      </contour>
    </TTGlyph>
    <TTGlyph name="E" xMin="58" yMin="0" xMax="377" yMax="682">
      <contour>
        <pt x="377" y="587" on="1"/>
        <pt x="166" y="587" on="1"/>
        <pt x="166" y="392" on="1"/>
        <pt x="349" y="392" on="1"/>
        <pt x="349" y="297" on="1"/>
        <pt x="166" y="297" on="1"/>
        <pt x="166" y="94" on="1"/>
        <pt x="377" y="94" on="1"/>
        <pt x="377" y="0" on="1"/>
        <pt x="58" y="0" on="1"/>
        <pt x="58" y="682" on="1"/>
        <pt x="377" y="682" on="1"/>
      </contour>
    </TTGlyph>
    <TTGlyph name="Eacute" xMin="58" yMin="0" xMax="377" yMax="833">
      <component glyphName="E" x="0" y="0" flags="0x0"/>
      <component glyphName="acute" x="74" y="100" flags="0x4"/>
    </TTGlyph>
    <TTGlyph name="Ecaron" xMin="58" yMin="0" xMax="377" yMax="833">
      <component glyphName="E" x="0" y="0" flags="0x0"/>
      <component glyphName="caron" x="41" y="100" flags="0x4"/>
    </TTGlyph>
    <TTGlyph name="Ecircumflex" xMin="58" yMin="0" xMax="377" yMax="833">
      <component glyphName="E" x="0" y="0" flags="0x0"/>
      <component glyphName="circumflex" x="36" y="100" flags="0x4"/>
    </TTGlyph>
    <TTGlyph name="Edieresis" xMin="58" yMin="0" xMax="377" yMax="822">
      <component glyphName="E" x="0" y="0" flags="0x0"/>
      <component glyphName="dieresis" x="44" y="100" flags="0x4"/>
    </TTGlyph>
    <TTGlyph name="Edotaccent" xMin="58" yMin="0" xMax="377" yMax="834">
      <component glyphName="E" x="0" y="0" flags="0x0"/>
      <component glyphName="dotaccent" x="46" y="100" flags="0x4"/>
    </TTGlyph>
    <TTGlyph name="Egrave" xMin="58" yMin="0" xMax="377" yMax="833">
      <component glyphName="E" x="0" y="0" flags="0x0"/>
      <component glyphName="grave" x="10" y="100" flags="0x4"/>
    </TTGlyph>
    <TTGlyph name="Emacron" xMin="58" yMin="0" xMax="377" yMax="808">
      <component glyphName="E" x="0" y="0" flags="0x0"/>
      <component glyphName="macron" x="41" y="100" flags="0x4"/>
    </TTGlyph>
    <TTGlyph name="Eogonek" xMin="58" yMin="-187" xMax="377" yMax="682">
      <component glyphName="E" x="0" y="0" flags="0x0"/>
      <component glyphName="ogonek" x="147" y="0" flags="0x0"/>
    </TTGlyph>
    <TTGlyph name="Eth" xMin="-6" yMin="0" xMax="437" yMax="682">
      <contour>
        <pt x="351" y="682" on="0"/>
        <pt x="437" y="602" on="0"/>
        <pt x="437" y="529" on="1"/>
        <pt x="437" y="158" on="1"/>
        <pt x="437" y="83" on="0"/>
        <pt x="358" y="0" on="0"/>
        <pt x="277" y="0" on="1"/>
        <pt x="64" y="0" on="1"/>
        <pt x="64" y="290" on="1"/>
        <pt x="-6" y="290" on="1"/>
        <pt x="-6" y="380" on="1"/>
        <pt x="64" y="380" on="1"/>
        <pt x="64" y="682" on="1"/>
        <pt x="271" y="682" on="1"/>
      </contour>
      <contour>
        <pt x="329" y="526" on="1"/>
        <pt x="329" y="557" on="0"/>
        <pt x="297" y="591" on="0"/>
        <pt x="259" y="591" on="1"/>
        <pt x="172" y="591" on="1"/>
        <pt x="172" y="380" on="1"/>
        <pt x="255" y="380" on="1"/>
        <pt x="255" y="290" on="1"/>
        <pt x="172" y="290" on="1"/>
        <pt x="172" y="94" on="1"/>
        <pt x="259" y="94" on="1"/>
        <pt x="297" y="94" on="0"/>
        <pt x="329" y="131" on="0"/>
        <pt x="329" y="165" on="1"/>
      </contour>
    </TTGlyph>
    <TTGlyph name="Euro" xMin="17" yMin="-5" xMax="392" yMax="687">
      <contour>
        <pt x="339" y="93" on="0"/>
        <pt x="392" y="108" on="1"/>
        <pt x="392" y="10" on="1"/>
        <pt x="338" y="-5" on="0"/>
        <pt x="268" y="-5" on="1"/>
        <pt x="167" y="-5" on="0"/>
        <pt x="69" y="75" on="0"/>
        <pt x="69" y="149" on="1"/>
        <pt x="69" y="240" on="1"/>
        <pt x="17" y="240" on="1"/>
        <pt x="17" y="314" on="1"/>
        <pt x="69" y="314" on="1"/>
        <pt x="69" y="376" on="1"/>
        <pt x="17" y="376" on="1"/>
        <pt x="17" y="449" on="1"/>
        <pt x="69" y="449" on="1"/>
        <pt x="69" y="532" on="1"/>
        <pt x="69" y="606" on="0"/>
        <pt x="168" y="687" on="0"/>
        <pt x="269" y="687" on="1"/>
        <pt x="335" y="687" on="0"/>
        <pt x="389" y="672" on="1"/>
        <pt x="389" y="572" on="1"/>
        <pt x="336" y="589" on="0"/>
        <pt x="270" y="589" on="1"/>
        <pt x="219" y="589" on="0"/>
        <pt x="178" y="556" on="0"/>
        <pt x="178" y="523" on="1"/>
        <pt x="178" y="449" on="1"/>
        <pt x="307" y="449" on="1"/>
        <pt x="307" y="376" on="1"/>
        <pt x="178" y="376" on="1"/>
        <pt x="178" y="314" on="1"/>
        <pt x="307" y="314" on="1"/>
        <pt x="307" y="240" on="1"/>
        <pt x="178" y="240" on="1"/>
        <pt x="178" y="158" on="1"/>
        <pt x="178" y="126" on="0"/>
        <pt x="219" y="93" on="0"/>
        <pt x="270" y="93" on="1"/>
      </contour>
    </TTGlyph>
    <TTGlyph name="F" xMin="58" yMin="0" xMax="369" yMax="682">
      <contour>
        <pt x="369" y="587" on="1"/>
        <pt x="167" y="587" on="1"/>
        <pt x="167" y="373" on="1"/>
        <pt x="356" y="373" on="1"/>
        <pt x="356" y="276" on="1"/>
        <pt x="167" y="276" on="1"/>
        <pt x="167" y="0" on="1"/>
        <pt x="58" y="0" on="1"/>
        <pt x="58" y="682" on="1"/>
        <pt x="369" y="682" on="1"/>
      </contour>
    </TTGlyph>
    <TTGlyph name="G" xMin="48" yMin="-5" xMax="411" yMax="687">
      <contour>
        <pt x="48" y="602" on="0"/>
        <pt x="153" y="687" on="0"/>
        <pt x="256" y="687" on="1"/>
        <pt x="293" y="687" on="0"/>
        <pt x="364" y="676" on="0"/>
        <pt x="386" y="669" on="1"/>
        <pt x="386" y="566" on="1"/>
        <pt x="361" y="575" on="0"/>
        <pt x="292" y="587" on="0"/>
        <pt x="257" y="587" on="1"/>
        <pt x="157" y="587" on="0"/>
        <pt x="157" y="517" on="1"/>
        <pt x="157" y="158" on="1"/>
        <pt x="157" y="124" on="0"/>
        <pt x="196" y="92" on="0"/>
        <pt x="240" y="92" on="1"/>
        <pt x="261" y="92" on="0"/>
        <pt x="296" y="102" on="0"/>
        <pt x="305" y="107" on="1"/>
        <pt x="305" y="350" on="1"/>
        <pt x="411" y="350" on="1"/>
        <pt x="411" y="36" on="1"/>
        <pt x="377" y="17" on="0"/>
        <pt x="302" y="-5" on="0"/>
        <pt x="241" y="-5" on="1"/>
        <pt x="148" y="-5" on="0"/>
        <pt x="48" y="73" on="0"/>
        <pt x="48" y="149" on="1"/>
        <pt x="48" y="528" on="1"/>
      </contour>
    </TTGlyph>
    <TTGlyph name="Gbreve" xMin="48" yMin="-5" xMax="411" yMax="833">
      <component glyphName="G" x="0" y="0" flags="0x0"/>
      <component glyphName="breve" x="64" y="100" flags="0x4"/>
    </TTGlyph>
    <TTGlyph name="H" xMin="58" yMin="0" xMax="455" yMax="682">
      <contour>
        <pt x="455" y="682" on="1"/>
        <pt x="455" y="0" on="1"/>
        <pt x="345" y="0" on="1"/>
        <pt x="345" y="287" on="1"/>
        <pt x="167" y="287" on="1"/>
        <pt x="167" y="0" on="1"/>
        <pt x="58" y="0" on="1"/>
        <pt x="58" y="682" on="1"/>
        <pt x="167" y="682" on="1"/>
        <pt x="167" y="383" on="1"/>
        <pt x="345" y="383" on="1"/>
        <pt x="345" y="682" on="1"/>
      </contour>
    </TTGlyph>
    <TTGlyph name="I" xMin="58" yMin="0" xMax="167" yMax="682">
      <contour>
        <pt x="167" y="0" on="1"/>
        <pt x="58" y="0" on="1"/>
        <pt x="58" y="682" on="1"/>
        <pt x="167" y="682" on="1"/>
      </contour>
    </TTGlyph>
    <TTGlyph name="Iacute" xMin="58" yMin="0" xMax="206" yMax="833">
      <component glyphName="I" x="0" y="0" flags="0x0"/>
      <component glyphName="acute" x="-33" y="100" flags="0x4"/>
    </TTGlyph>
    <TTGlyph name="Icircumflex" xMin="19" yMin="0" xMax="210" yMax="833">
      <component glyphName="I" x="0" y="0" flags="0x0"/>
      <component glyphName="circumflex" x="-60" y="100" flags="0x4"/>
    </TTGlyph>
    <TTGlyph name="Idieresis" xMin="-12" yMin="0" xMax="234" yMax="822">
      <component glyphName="I" x="0" y="0" flags="0x0"/>
      <component glyphName="dieresis" x="-64" y="100" flags="0x4"/>
    </TTGlyph>
    <TTGlyph name="Idotaccent" xMin="58" yMin="0" xMax="167" yMax="834">
      <component glyphName="I" x="0" y="0" flags="0x0"/>
      <component glyphName="dotaccent" x="-64" y="100" flags="0x4"/>
    </TTGlyph>
    <TTGlyph name="Igrave" xMin="18" yMin="0" xMax="167" yMax="833">
      <component glyphName="I" x="0" y="0" flags="0x0"/>
      <component glyphName="grave" x="-93" y="100" flags="0x4"/>
    </TTGlyph>
    <TTGlyph name="Imacron" xMin="-7" yMin="0" xMax="236" yMax="808">
      <component glyphName="I" x="0" y="0" flags="0x0"/>
      <component glyphName="macron" x="-60" y="100" flags="0x4"/>
    </TTGlyph>
    <TTGlyph name="Iogonek" xMin="58" yMin="-187" xMax="167" yMax="682">
      <component glyphName="I" x="0" y="0" flags="0x0"/>
      <component glyphName="ogonek" x="-63" y="0" flags="0x0"/>
    </TTGlyph>
    <TTGlyph name="J" xMin="-9" yMin="-149" xMax="170" yMax="682">
      <contour>
        <pt x="170" y="203" on="1"/>
        <pt x="170" y="124" on="0"/>
        <pt x="154" y="17" on="0"/>
        <pt x="136" y="-45" on="1"/>
        <pt x="105" y="-149" on="1"/>
        <pt x="-9" y="-149" on="1"/>
        <pt x="21" y="-45" on="1"/>
        <pt x="42" y="29" on="0"/>
        <pt x="61" y="135" on="0"/>
        <pt x="61" y="202" on="1"/>
        <pt x="61" y="682" on="1"/>
        <pt x="170" y="682" on="1"/>
      </contour>
    </TTGlyph>
    <TTGlyph name="K" xMin="58" yMin="0" xMax="447" yMax="682">
      <contour>
        <pt x="166" y="0" on="1"/>
        <pt x="58" y="0" on="1"/>
        <pt x="58" y="682" on="1"/>
        <pt x="166" y="682" on="1"/>
      </contour>
      <contour>
        <pt x="302" y="347" on="1"/>
        <pt x="447" y="0" on="1"/>
        <pt x="326" y="0" on="1"/>
        <pt x="189" y="345" on="1"/>
        <pt x="321" y="682" on="1"/>
        <pt x="437" y="682" on="1"/>
      </contour>
    </TTGlyph>
    <TTGlyph name="L" xMin="58" yMin="0" xMax="362" yMax="682">
      <contour>
        <pt x="167" y="92" on="1"/>
        <pt x="362" y="92" on="1"/>
        <pt x="362" y="0" on="1"/>
        <pt x="58" y="0" on="1"/>
        <pt x="58" y="682" on="1"/>
        <pt x="167" y="682" on="1"/>
      </contour>
    </TTGlyph>
    <TTGlyph name="Lacute" xMin="58" yMin="0" xMax="362" yMax="833">
      <component glyphName="L" x="0" y="0" flags="0x0"/>
      <component glyphName="acute" x="-33" y="100" flags="0x4"/>
    </TTGlyph>
    <TTGlyph name="Lcaron" xMin="58" yMin="0" xMax="362" yMax="732">
      <contour>
        <pt x="298" y="732" on="0"/>
        <pt x="298" y="703" on="1"/>
        <pt x="298" y="684" on="0"/>
        <pt x="263" y="619" on="0"/>
        <pt x="246" y="595" on="1"/>
        <pt x="205" y="595" on="1"/>
        <pt x="231" y="732" on="1"/>
        <pt x="267" y="732" on="1"/>
      </contour>
      <contour>
        <pt x="167" y="92" on="1"/>
        <pt x="362" y="92" on="1"/>
        <pt x="362" y="0" on="1"/>
        <pt x="58" y="0" on="1"/>
        <pt x="58" y="682" on="1"/>
        <pt x="167" y="682" on="1"/>
      </contour>
    </TTGlyph>
    <TTGlyph name="Lslash" xMin="8" yMin="0" xMax="368" yMax="682">
      <contour>
        <pt x="368" y="92" on="1"/>
        <pt x="368" y="0" on="1"/>
        <pt x="64" y="0" on="1"/>
        <pt x="64" y="272" on="1"/>
        <pt x="8" y="246" on="1"/>
        <pt x="8" y="323" on="1"/>
        <pt x="64" y="349" on="1"/>
        <pt x="64" y="682" on="1"/>
        <pt x="173" y="682" on="1"/>
        <pt x="173" y="398" on="1"/>
        <pt x="264" y="440" on="1"/>
        <pt x="264" y="364" on="1"/>
        <pt x="173" y="322" on="1"/>
        <pt x="173" y="92" on="1"/>
      </contour>
    </TTGlyph>
    <TTGlyph name="M" xMin="58" yMin="0" xMax="571" yMax="682">
      <contour>
        <pt x="571" y="0" on="1"/>
        <pt x="467" y="0" on="1"/>
        <pt x="467" y="301" on="1"/>
        <pt x="467" y="352" on="0"/>
        <pt x="472" y="441" on="0"/>
        <pt x="478" y="496" on="0"/>
        <pt x="479" y="503" on="1"/>
        <pt x="361" y="178" on="1"/>
        <pt x="267" y="178" on="1"/>
        <pt x="148" y="503" on="1"/>
        <pt x="149" y="496" on="0"/>
        <pt x="155" y="439" on="0"/>
        <pt x="161" y="349" on="0"/>
        <pt x="161" y="301" on="1"/>
        <pt x="161" y="0" on="1"/>
        <pt x="58" y="0" on="1"/>
        <pt x="58" y="682" on="1"/>
        <pt x="175" y="682" on="1"/>
        <pt x="314" y="292" on="1"/>
        <pt x="453" y="682" on="1"/>
        <pt x="571" y="682" on="1"/>
      </contour>
    </TTGlyph>
    <TTGlyph name="N" xMin="58" yMin="0" xMax="457" yMax="682">
      <contour>
        <pt x="457" y="0" on="1"/>
        <pt x="346" y="0" on="1"/>
        <pt x="229" y="296" on="1"/>
        <pt x="189" y="400" on="0"/>
        <pt x="165" y="472" on="1"/>
        <pt x="149" y="517" on="1"/>
        <pt x="149" y="504" on="0"/>
        <pt x="152" y="477" on="1"/>
        <pt x="164" y="376" on="0"/>
        <pt x="164" y="265" on="1"/>
        <pt x="164" y="0" on="1"/>
        <pt x="58" y="0" on="1"/>
        <pt x="58" y="682" on="1"/>
        <pt x="171" y="682" on="1"/>
        <pt x="286" y="388" on="1"/>
        <pt x="325" y="288" on="0"/>
        <pt x="352" y="207" on="1"/>
        <pt x="366" y="167" on="1"/>
        <pt x="366" y="179" on="0"/>
        <pt x="363" y="201" on="1"/>
        <pt x="351" y="301" on="0"/>
        <pt x="350" y="421" on="1"/>
        <pt x="350" y="682" on="1"/>
        <pt x="457" y="682" on="1"/>
      </contour>
    </TTGlyph>
    <TTGlyph name="Nacute" xMin="58" yMin="0" xMax="457" yMax="833">
      <component glyphName="N" x="0" y="0" flags="0x0"/>
      <component glyphName="acute" x="109" y="100" flags="0x4"/>
    </TTGlyph>
    <TTGlyph name="Ncaron" xMin="58" yMin="0" xMax="457" yMax="833">
      <component glyphName="N" x="0" y="0" flags="0x0"/>
      <component glyphName="caron" x="79" y="100" flags="0x4"/>
    </TTGlyph>
    <TTGlyph name="Ntilde" xMin="58" yMin="0" xMax="457" yMax="827">
      <component glyphName="N" x="0" y="0" flags="0x0"/>
      <component glyphName="tilde" x="90" y="100" flags="0x4"/>
    </TTGlyph>
    <TTGlyph name="O" xMin="48" yMin="-10" xMax="424" yMax="692">
      <contour>
        <pt x="48" y="600" on="0"/>
        <pt x="143" y="692" on="0"/>
        <pt x="236" y="692" on="1"/>
        <pt x="329" y="692" on="0"/>
        <pt x="424" y="600" on="0"/>
        <pt x="424" y="524" on="1"/>
        <pt x="424" y="158" on="1"/>
        <pt x="424" y="81" on="0"/>
        <pt x="329" y="-10" on="0"/>
        <pt x="236" y="-10" on="1"/>
        <pt x="143" y="-10" on="0"/>
        <pt x="48" y="81" on="0"/>
        <pt x="48" y="158" on="1"/>
        <pt x="48" y="524" on="1"/>
      </contour>
      <contour>
        <pt x="316" y="554" on="0"/>
        <pt x="277" y="593" on="0"/>
        <pt x="236" y="593" on="1"/>
        <pt x="156" y="593" on="0"/>
        <pt x="156" y="519" on="1"/>
        <pt x="156" y="163" on="1"/>
        <pt x="156" y="88" on="0"/>
        <pt x="236" y="88" on="1"/>
        <pt x="277" y="88" on="0"/>
        <pt x="316" y="128" on="0"/>
        <pt x="316" y="163" on="1"/>
        <pt x="316" y="519" on="1"/>
      </contour>
    </TTGlyph>
    <TTGlyph name="OE" xMin="68" yMin="0" xMax="661" yMax="682">
      <contour>
        <pt x="450" y="587" on="1"/>
        <pt x="450" y="392" on="1"/>
        <pt x="633" y="392" on="1"/>
        <pt x="633" y="297" on="1"/>
        <pt x="450" y="297" on="1"/>
        <pt x="450" y="94" on="1"/>
        <pt x="661" y="94" on="1"/>
        <pt x="661" y="0" on="1"/>
        <pt x="228" y="0" on="1"/>
        <pt x="146" y="0" on="0"/>
        <pt x="68" y="83" on="0"/>
        <pt x="68" y="158" on="1"/>
        <pt x="68" y="529" on="1"/>
        <pt x="68" y="602" on="0"/>
        <pt x="153" y="682" on="0"/>
        <pt x="233" y="682" on="1"/>
        <pt x="661" y="682" on="1"/>
        <pt x="661" y="587" on="1"/>
      </contour>
      <contour>
        <pt x="342" y="94" on="1"/>
        <pt x="342" y="591" on="1"/>
        <pt x="245" y="591" on="1"/>
        <pt x="207" y="591" on="0"/>
        <pt x="176" y="557" on="0"/>
        <pt x="176" y="526" on="1"/>
        <pt x="176" y="165" on="1"/>
        <pt x="176" y="94" on="0"/>
        <pt x="245" y="94" on="1"/>
      </contour>
    </TTGlyph>
    <TTGlyph name="Oacute" xMin="48" yMin="-10" xMax="424" yMax="833">
      <component glyphName="O" x="0" y="0" flags="0x0"/>
      <component glyphName="acute" x="98" y="100" flags="0x4"/>
    </TTGlyph>
    <TTGlyph name="Ocircumflex" xMin="48" yMin="-10" xMax="424" yMax="833">
      <component glyphName="O" x="0" y="0" flags="0x0"/>
      <component glyphName="circumflex" x="62" y="100" flags="0x4"/>
    </TTGlyph>
    <TTGlyph name="Odieresis" xMin="48" yMin="-10" xMax="424" yMax="822">
      <component glyphName="O" x="0" y="0" flags="0x0"/>
      <component glyphName="dieresis" x="61" y="100" flags="0x4"/>
    </TTGlyph>
    <TTGlyph name="Ograve" xMin="48" yMin="-10" xMax="424" yMax="833">
      <component glyphName="O" x="0" y="0" flags="0x0"/>
      <component glyphName="grave" x="23" y="100" flags="0x4"/>
    </TTGlyph>
    <TTGlyph name="Ohungarumlaut" xMin="48" yMin="-10" xMax="424" yMax="833">
      <component glyphName="O" x="0" y="0" flags="0x0"/>
      <component glyphName="hungarumlaut" x="92" y="100" flags="0x4"/>
    </TTGlyph>
    <TTGlyph name="Omacron" xMin="48" yMin="-10" xMax="424" yMax="808">
      <component glyphName="O" x="0" y="0" flags="0x0"/>
      <component glyphName="macron" x="62" y="100" flags="0x4"/>
    </TTGlyph>
    <TTGlyph name="Oslash" xMin="45" yMin="-10" xMax="427" yMax="692">
      <contour>
        <pt x="398" y="620" on="1"/>
        <pt x="424" y="581" on="0"/>
        <pt x="424" y="524" on="1"/>
        <pt x="424" y="158" on="1"/>
        <pt x="424" y="81" on="0"/>
        <pt x="329" y="-10" on="0"/>
        <pt x="236" y="-10" on="1"/>
        <pt x="166" y="-10" on="0"/>
        <pt x="122" y="16" on="1"/>
        <pt x="115" y="0" on="1"/>
        <pt x="45" y="0" on="1"/>
        <pt x="73" y="62" on="1"/>
        <pt x="48" y="102" on="0"/>
        <pt x="48" y="158" on="1"/>
        <pt x="48" y="524" on="1"/>
        <pt x="48" y="600" on="0"/>
        <pt x="143" y="692" on="0"/>
        <pt x="236" y="692" on="1"/>
        <pt x="305" y="692" on="0"/>
        <pt x="349" y="666" on="1"/>
        <pt x="356" y="682" on="1"/>
        <pt x="427" y="682" on="1"/>
      </contour>
      <contour>
        <pt x="156" y="243" on="1"/>
        <pt x="303" y="566" on="1"/>
        <pt x="284" y="593" on="0"/>
        <pt x="236" y="593" on="1"/>
        <pt x="156" y="593" on="0"/>
        <pt x="156" y="519" on="1"/>
      </contour>
      <contour>
        <pt x="316" y="439" on="1"/>
        <pt x="168" y="116" on="1"/>
        <pt x="187" y="88" on="0"/>
        <pt x="236" y="88" on="1"/>
        <pt x="277" y="88" on="0"/>
        <pt x="316" y="128" on="0"/>
        <pt x="316" y="163" on="1"/>
      </contour>
    </TTGlyph>
    <TTGlyph name="Otilde" xMin="48" yMin="-10" xMax="424" yMax="827">
      <component glyphName="O" x="0" y="0" flags="0x0"/>
      <component glyphName="tilde" x="60" y="100" flags="0x4"/>
    </TTGlyph>
    <TTGlyph name="P" xMin="58" yMin="0" xMax="418" yMax="682">
      <contour>
        <pt x="331" y="682" on="0"/>
        <pt x="418" y="601" on="0"/>
        <pt x="418" y="529" on="1"/>
        <pt x="418" y="369" on="1"/>
        <pt x="418" y="297" on="0"/>
        <pt x="331" y="216" on="0"/>
        <pt x="250" y="216" on="1"/>
        <pt x="166" y="216" on="1"/>
        <pt x="166" y="0" on="1"/>
        <pt x="58" y="0" on="1"/>
        <pt x="58" y="682" on="1"/>
        <pt x="250" y="682" on="1"/>
      </contour>
      <contour>
        <pt x="310" y="553" on="0"/>
        <pt x="276" y="587" on="0"/>
        <pt x="239" y="587" on="1"/>
        <pt x="166" y="587" on="1"/>
        <pt x="166" y="311" on="1"/>
        <pt x="239" y="311" on="1"/>
        <pt x="276" y="311" on="0"/>
        <pt x="310" y="345" on="0"/>
        <pt x="310" y="379" on="1"/>
        <pt x="310" y="519" on="1"/>
      </contour>
    </TTGlyph>
    <TTGlyph name="Q" xMin="48" yMin="-94" xMax="474" yMax="692">
      <contour>
        <pt x="344" y="-94" on="1"/>
        <pt x="264" y="-9" on="1"/>
        <pt x="255" y="-10" on="0"/>
        <pt x="236" y="-10" on="1"/>
        <pt x="143" y="-10" on="0"/>
        <pt x="48" y="81" on="0"/>
        <pt x="48" y="158" on="1"/>
        <pt x="48" y="524" on="1"/>
        <pt x="48" y="600" on="0"/>
        <pt x="143" y="692" on="0"/>
        <pt x="236" y="692" on="1"/>
        <pt x="329" y="692" on="0"/>
        <pt x="424" y="600" on="0"/>
        <pt x="424" y="524" on="1"/>
        <pt x="424" y="158" on="1"/>
        <pt x="424" y="68" on="0"/>
        <pt x="362" y="24" on="1"/>
        <pt x="474" y="-94" on="1"/>
      </contour>
      <contour>
        <pt x="156" y="88" on="0"/>
        <pt x="236" y="88" on="1"/>
        <pt x="277" y="88" on="0"/>
        <pt x="316" y="128" on="0"/>
        <pt x="316" y="163" on="1"/>
        <pt x="316" y="519" on="1"/>
        <pt x="316" y="554" on="0"/>
        <pt x="277" y="593" on="0"/>
        <pt x="236" y="593" on="1"/>
        <pt x="156" y="593" on="0"/>
        <pt x="156" y="519" on="1"/>
        <pt x="156" y="163" on="1"/>
      </contour>
    </TTGlyph>
    <TTGlyph name="R" xMin="58" yMin="0" xMax="442" yMax="682">
      <contour>
        <pt x="323" y="0" on="1"/>
        <pt x="227" y="261" on="1"/>
        <pt x="166" y="261" on="1"/>
        <pt x="166" y="0" on="1"/>
        <pt x="58" y="0" on="1"/>
        <pt x="58" y="682" on="1"/>
        <pt x="250" y="682" on="1"/>
        <pt x="331" y="682" on="0"/>
        <pt x="418" y="602" on="0"/>
        <pt x="418" y="530" on="1"/>
        <pt x="418" y="417" on="1"/>
        <pt x="418" y="303" on="0"/>
        <pt x="334" y="273" on="1"/>
        <pt x="442" y="0" on="1"/>
      </contour>
      <contour>
        <pt x="166" y="349" on="1"/>
        <pt x="241" y="349" on="1"/>
        <pt x="278" y="349" on="0"/>
        <pt x="310" y="383" on="0"/>
        <pt x="310" y="419" on="1"/>
        <pt x="310" y="522" on="1"/>
        <pt x="310" y="556" on="0"/>
        <pt x="277" y="589" on="0"/>
        <pt x="241" y="589" on="1"/>
        <pt x="166" y="589" on="1"/>
      </contour>
    </TTGlyph>
    <TTGlyph name="Racute" xMin="58" yMin="0" xMax="442" yMax="833">
      <component glyphName="R" x="0" y="0" flags="0x0"/>
      <component glyphName="acute" x="84" y="100" flags="0x4"/>
    </TTGlyph>
    <TTGlyph name="Rcaron" xMin="58" yMin="0" xMax="442" yMax="833">
      <component glyphName="R" x="0" y="0" flags="0x0"/>
      <component glyphName="caron" x="50" y="100" flags="0x4"/>
    </TTGlyph>
    <TTGlyph name="S" xMin="24" yMin="-5" xMax="387" yMax="687">
      <contour>
        <pt x="24" y="606" on="0"/>
        <pt x="122" y="687" on="0"/>
        <pt x="219" y="687" on="1"/>
        <pt x="299" y="687" on="0"/>
        <pt x="354" y="668" on="1"/>
        <pt x="354" y="565" on="1"/>
        <pt x="295" y="587" on="0"/>
        <pt x="221" y="587" on="1"/>
        <pt x="175" y="587" on="0"/>
        <pt x="135" y="554" on="0"/>
        <pt x="135" y="523" on="1"/>
        <pt x="135" y="490" on="1"/>
        <pt x="135" y="459" on="0"/>
        <pt x="158" y="424" on="0"/>
        <pt x="190" y="407" on="1"/>
        <pt x="305" y="342" on="1"/>
        <pt x="347" y="320" on="0"/>
        <pt x="387" y="257" on="0"/>
        <pt x="387" y="209" on="1"/>
        <pt x="387" y="151" on="1"/>
        <pt x="387" y="76" on="0"/>
        <pt x="280" y="-5" on="0"/>
        <pt x="175" y="-5" on="1"/>
        <pt x="131" y="-5" on="0"/>
        <pt x="51" y="8" on="0"/>
        <pt x="31" y="16" on="1"/>
        <pt x="31" y="121" on="1"/>
        <pt x="57" y="110" on="0"/>
        <pt x="134" y="95" on="0"/>
        <pt x="174" y="95" on="1"/>
        <pt x="227" y="95" on="0"/>
        <pt x="277" y="131" on="0"/>
        <pt x="277" y="162" on="1"/>
        <pt x="277" y="192" on="1"/>
        <pt x="277" y="220" on="0"/>
        <pt x="256" y="251" on="0"/>
        <pt x="227" y="266" on="1"/>
        <pt x="116" y="327" on="1"/>
        <pt x="71" y="352" on="0"/>
        <pt x="24" y="422" on="0"/>
        <pt x="24" y="473" on="1"/>
        <pt x="24" y="534" on="1"/>
      </contour>
    </TTGlyph>
    <TTGlyph name="Sacute" xMin="24" yMin="-5" xMax="387" yMax="833">
      <component glyphName="S" x="0" y="0" flags="0x0"/>
      <component glyphName="acute" x="65" y="100" flags="0x4"/>
    </TTGlyph>
    <TTGlyph name="Scaron" xMin="24" yMin="-5" xMax="387" yMax="833">
      <component glyphName="S" x="0" y="0" flags="0x0"/>
      <component glyphName="caron" x="32" y="100" flags="0x4"/>
    </TTGlyph>
    <TTGlyph name="T" xMin="7" yMin="0" xMax="372" yMax="682">
      <contour>
        <pt x="372" y="587" on="1"/>
        <pt x="244" y="587" on="1"/>
        <pt x="244" y="0" on="1"/>
        <pt x="135" y="0" on="1"/>
        <pt x="135" y="587" on="1"/>
        <pt x="7" y="587" on="1"/>
        <pt x="7" y="682" on="1"/>
        <pt x="372" y="682" on="1"/>
      </contour>
    </TTGlyph>
    <TTGlyph name="Tcaron" xMin="7" yMin="0" xMax="372" yMax="833">
      <component glyphName="T" x="0" y="0" flags="0x0"/>
      <component glyphName="caron" x="14" y="100" flags="0x4"/>
    </TTGlyph>
    <TTGlyph name="Thorn" xMin="68" yMin="0" xMax="421" yMax="682">
      <contour>
        <pt x="334" y="569" on="0"/>
        <pt x="421" y="489" on="0"/>
        <pt x="421" y="417" on="1"/>
        <pt x="421" y="266" on="1"/>
        <pt x="421" y="194" on="0"/>
        <pt x="334" y="113" on="0"/>
        <pt x="253" y="113" on="1"/>
        <pt x="172" y="113" on="1"/>
        <pt x="172" y="0" on="1"/>
        <pt x="68" y="0" on="1"/>
        <pt x="68" y="682" on="1"/>
        <pt x="172" y="682" on="1"/>
        <pt x="172" y="569" on="1"/>
        <pt x="253" y="569" on="1"/>
      </contour>
      <contour>
        <pt x="317" y="407" on="1"/>
        <pt x="317" y="442" on="0"/>
        <pt x="283" y="476" on="0"/>
        <pt x="246" y="476" on="1"/>
        <pt x="172" y="476" on="1"/>
        <pt x="172" y="207" on="1"/>
        <pt x="246" y="207" on="1"/>
        <pt x="283" y="207" on="0"/>
        <pt x="317" y="241" on="0"/>
        <pt x="317" y="275" on="1"/>
      </contour>
    </TTGlyph>
    <TTGlyph name="U" xMin="53" yMin="-10" xMax="427" yMax="682">
      <contour>
        <pt x="427" y="158" on="1"/>
        <pt x="427" y="81" on="0"/>
        <pt x="332" y="-10" on="0"/>
        <pt x="239" y="-10" on="1"/>
        <pt x="146" y="-10" on="0"/>
        <pt x="53" y="81" on="0"/>
        <pt x="53" y="158" on="1"/>
        <pt x="53" y="682" on="1"/>
        <pt x="161" y="682" on="1"/>
        <pt x="161" y="163" on="1"/>
        <pt x="161" y="88" on="0"/>
        <pt x="239" y="88" on="1"/>
        <pt x="319" y="88" on="0"/>
        <pt x="319" y="163" on="1"/>
        <pt x="319" y="682" on="1"/>
        <pt x="427" y="682" on="1"/>
      </contour>
    </TTGlyph>
    <TTGlyph name="Uacute" xMin="53" yMin="-10" xMax="427" yMax="833">
      <component glyphName="U" x="0" y="0" flags="0x0"/>
      <component glyphName="acute" x="98" y="100" flags="0x4"/>
    </TTGlyph>
    <TTGlyph name="Ucircumflex" xMin="53" yMin="-10" xMax="427" yMax="833">
      <component glyphName="U" x="0" y="0" flags="0x0"/>
      <component glyphName="circumflex" x="65" y="100" flags="0x4"/>
    </TTGlyph>
    <TTGlyph name="Udieresis" xMin="53" yMin="-10" xMax="427" yMax="822">
      <component glyphName="U" x="0" y="0" flags="0x0"/>
      <component glyphName="dieresis" x="64" y="100" flags="0x4"/>
    </TTGlyph>
    <TTGlyph name="Ugrave" xMin="53" yMin="-10" xMax="427" yMax="833">
      <component glyphName="U" x="0" y="0" flags="0x0"/>
      <component glyphName="grave" x="32" y="100" flags="0x4"/>
    </TTGlyph>
    <TTGlyph name="Uhungarumlaut" xMin="53" yMin="-10" xMax="427" yMax="833">
      <component glyphName="hungarumlaut" x="90" y="100" flags="0x4"/>
      <component glyphName="U" x="0" y="0" flags="0x0"/>
    </TTGlyph>
    <TTGlyph name="Umacron" xMin="53" yMin="-10" xMax="427" yMax="808">
      <component glyphName="U" x="0" y="0" flags="0x0"/>
      <component glyphName="macron" x="64" y="100" flags="0x4"/>
    </TTGlyph>
    <TTGlyph name="Uogonek" xMin="53" yMin="-177" xMax="427" yMax="682">
      <component glyphName="U" x="0" y="0" flags="0x0"/>
      <component glyphName="ogonek" x="107" y="10" flags="0x4"/>
    </TTGlyph>
    <TTGlyph name="Uring" xMin="53" yMin="-10" xMax="427" yMax="852">
      <component glyphName="U" x="0" y="0" flags="0x0"/>
      <component glyphName="ring" x="66" y="100" flags="0x4"/>
    </TTGlyph>
    <TTGlyph name="V" xMin="9" yMin="0" xMax="441" yMax="682">
      <contour>
        <pt x="301" y="0" on="1"/>
        <pt x="150" y="0" on="1"/>
        <pt x="9" y="682" on="1"/>
        <pt x="120" y="682" on="1"/>
        <pt x="181" y="367" on="1"/>
        <pt x="191" y="315" on="0"/>
        <pt x="211" y="194" on="1"/>
        <pt x="225" y="106" on="0"/>
        <pt x="227" y="98" on="1"/>
        <pt x="233" y="127" on="0"/>
        <pt x="245" y="213" on="1"/>
        <pt x="263" y="327" on="0"/>
        <pt x="270" y="367" on="1"/>
        <pt x="329" y="682" on="1"/>
        <pt x="441" y="682" on="1"/>
      </contour>
    </TTGlyph>
    <TTGlyph name="W" xMin="13" yMin="0" xMax="588" yMax="682">
      <contour>
        <pt x="486" y="0" on="1"/>
        <pt x="378" y="0" on="1"/>
        <pt x="329" y="306" on="1"/>
        <pt x="318" y="370" on="0"/>
        <pt x="304" y="498" on="0"/>
        <pt x="302" y="516" on="1"/>
        <pt x="300" y="497" on="0"/>
        <pt x="287" y="369" on="0"/>
        <pt x="277" y="307" on="1"/>
        <pt x="227" y="0" on="1"/>
        <pt x="114" y="0" on="1"/>
        <pt x="13" y="682" on="1"/>
        <pt x="111" y="682" on="1"/>
        <pt x="161" y="362" on="1"/>
        <pt x="169" y="306" on="0"/>
        <pt x="181" y="194" on="0"/>
        <pt x="182" y="178" on="1"/>
        <pt x="184" y="194" on="0"/>
        <pt x="196" y="296" on="0"/>
        <pt x="205" y="363" on="1"/>
        <pt x="253" y="682" on="1"/>
        <pt x="351" y="682" on="1"/>
        <pt x="397" y="362" on="1"/>
        <pt x="405" y="301" on="0"/>
        <pt x="418" y="199" on="0"/>
        <pt x="420" y="182" on="1"/>
        <pt x="422" y="199" on="0"/>
        <pt x="434" y="314" on="0"/>
        <pt x="441" y="362" on="1"/>
        <pt x="491" y="682" on="1"/>
        <pt x="588" y="682" on="1"/>
      </contour>
    </TTGlyph>
    <TTGlyph name="X" xMin="9" yMin="0" xMax="418" yMax="682">
      <contour>
        <pt x="271" y="340" on="1"/>
        <pt x="418" y="0" on="1"/>
        <pt x="301" y="0" on="1"/>
        <pt x="215" y="224" on="1"/>
        <pt x="127" y="0" on="1"/>
        <pt x="9" y="0" on="1"/>
        <pt x="156" y="340" on="1"/>
        <pt x="9" y="682" on="1"/>
        <pt x="126" y="682" on="1"/>
        <pt x="215" y="456" on="1"/>
        <pt x="301" y="682" on="1"/>
        <pt x="418" y="682" on="1"/>
      </contour>
    </TTGlyph>
    <TTGlyph name="Y" xMin="2" yMin="0" xMax="441" yMax="682">
      <contour>
        <pt x="276" y="221" on="1"/>
        <pt x="276" y="0" on="1"/>
        <pt x="167" y="0" on="1"/>
        <pt x="167" y="221" on="1"/>
        <pt x="2" y="682" on="1"/>
        <pt x="113" y="682" on="1"/>
        <pt x="165" y="536" on="1"/>
        <pt x="202" y="424" on="0"/>
        <pt x="223" y="338" on="1"/>
        <pt x="250" y="439" on="0"/>
        <pt x="282" y="536" on="1"/>
        <pt x="332" y="682" on="1"/>
        <pt x="441" y="682" on="1"/>
      </contour>
    </TTGlyph>
    <TTGlyph name="Yacute" xMin="2" yMin="0" xMax="441" yMax="834">
      <component glyphName="Y" x="0" y="0" flags="0x0"/>
      <component glyphName="acute" x="78" y="101" flags="0x4"/>
    </TTGlyph>
    <TTGlyph name="Ydieresis" xMin="2" yMin="0" xMax="441" yMax="822">
      <component glyphName="dieresis" x="45" y="100" flags="0x4"/>
      <component glyphName="Y" x="0" y="0" flags="0x0"/>
    </TTGlyph>
    <TTGlyph name="Z" xMin="24" yMin="0" xMax="376" yMax="682">
      <contour>
        <pt x="376" y="593" on="1"/>
        <pt x="138" y="93" on="1"/>
        <pt x="376" y="93" on="1"/>
        <pt x="376" y="0" on="1"/>
        <pt x="24" y="0" on="1"/>
        <pt x="24" y="93" on="1"/>
        <pt x="259" y="589" on="1"/>
        <pt x="29" y="589" on="1"/>
        <pt x="29" y="682" on="1"/>
        <pt x="376" y="682" on="1"/>
      </contour>
    </TTGlyph>
    <TTGlyph name="Zacute" xMin="24" yMin="0" xMax="376" yMax="833">
      <component glyphName="Z" x="0" y="0" flags="0x0"/>
      <component glyphName="acute" x="57" y="100" flags="0x4"/>
    </TTGlyph>
    <TTGlyph name="Zcaron" xMin="24" yMin="0" xMax="376" yMax="833">
      <component glyphName="Z" x="0" y="0" flags="0x0"/>
      <component glyphName="caron" x="26" y="100" flags="0x4"/>
    </TTGlyph>
    <TTGlyph name="Zdotaccent" xMin="24" yMin="0" xMax="376" yMax="834">
      <component glyphName="Z" x="0" y="0" flags="0x0"/>
      <component glyphName="dotaccent" x="27" y="100" flags="0x4"/>
    </TTGlyph>
    <TTGlyph name="a" xMin="26" yMin="-3" xMax="378" yMax="584">
      <contour>
        <pt x="77" y="573" on="0"/>
        <pt x="154" y="584" on="0"/>
        <pt x="197" y="584" on="1"/>
        <pt x="294" y="584" on="0"/>
        <pt x="378" y="503" on="0"/>
        <pt x="378" y="423" on="1"/>
        <pt x="378" y="0" on="1"/>
        <pt x="276" y="0" on="1"/>
        <pt x="276" y="42" on="1"/>
        <pt x="257" y="21" on="0"/>
        <pt x="205" y="-3" on="0"/>
        <pt x="163" y="-3" on="1"/>
        <pt x="92" y="-3" on="0"/>
        <pt x="26" y="67" on="0"/>
        <pt x="26" y="138" on="1"/>
        <pt x="26" y="171" on="1"/>
        <pt x="26" y="230" on="0"/>
        <pt x="84" y="300" on="0"/>
        <pt x="149" y="318" on="1"/>
        <pt x="274" y="352" on="1"/>
        <pt x="274" y="423" on="1"/>
        <pt x="273" y="457" on="0"/>
        <pt x="236" y="488" on="0"/>
        <pt x="187" y="488" on="1"/>
        <pt x="150" y="488" on="0"/>
        <pt x="75" y="475" on="0"/>
        <pt x="55" y="467" on="1"/>
        <pt x="55" y="565" on="1"/>
      </contour>
      <contour>
        <pt x="191" y="239" on="1"/>
        <pt x="156" y="229" on="0"/>
        <pt x="132" y="198" on="0"/>
        <pt x="132" y="166" on="1"/>
        <pt x="132" y="137" on="1"/>
        <pt x="132" y="108" on="0"/>
        <pt x="159" y="80" on="0"/>
        <pt x="192" y="80" on="1"/>
        <pt x="215" y="80" on="0"/>
        <pt x="259" y="95" on="0"/>
        <pt x="273" y="106" on="1"/>
        <pt x="273" y="262" on="1"/>
      </contour>
    </TTGlyph>
    <TTGlyph name="aacute" xMin="26" yMin="-3" xMax="378" yMax="733">
      <component glyphName="a" x="0" y="0" flags="0x0"/>
      <component glyphName="acute" x="64" y="0" flags="0x0"/>
    </TTGlyph>
    <TTGlyph name="abreve" xMin="26" yMin="-3" xMax="378" yMax="733">
      <component glyphName="a" x="0" y="0" flags="0x0"/>
      <component glyphName="breve" x="37" y="0" flags="0x0"/>
    </TTGlyph>
    <TTGlyph name="acircumflex" xMin="26" yMin="-3" xMax="378" yMax="733">
      <component glyphName="a" x="0" y="0" flags="0x0"/>
      <component glyphName="circumflex" x="40" y="0" flags="0x0"/>
    </TTGlyph>
    <TTGlyph name="acute" xMin="111" yMin="622" xMax="239" yMax="733">
      <contour>
        <pt x="172" y="622" on="1"/>
        <pt x="111" y="622" on="1"/>
        <pt x="152" y="733" on="1"/>
        <pt x="239" y="733" on="1"/>
      </contour>
    </TTGlyph>
    <TTGlyph name="adieresis" xMin="26" yMin="-3" xMax="378" yMax="722">
      <component glyphName="a" x="0" y="0" flags="0x0"/>
      <component glyphName="dieresis" x="35" y="0" flags="0x0"/>
    </TTGlyph>
    <TTGlyph name="ae" xMin="29" yMin="-6" xMax="621" yMax="589">
      <contour>
        <pt x="372" y="589" on="0"/>
        <pt x="449" y="589" on="1"/>
        <pt x="537" y="589" on="0"/>
        <pt x="621" y="504" on="0"/>
        <pt x="621" y="431" on="1"/>
        <pt x="621" y="243" on="1"/>
        <pt x="377" y="243" on="1"/>
        <pt x="377" y="163" on="1"/>
        <pt x="377" y="124" on="0"/>
        <pt x="426" y="90" on="0"/>
        <pt x="480" y="90" on="1"/>
        <pt x="540" y="90" on="0"/>
        <pt x="605" y="109" on="1"/>
        <pt x="605" y="12" on="1"/>
        <pt x="576" y="3" on="0"/>
        <pt x="518" y="-6" on="0"/>
        <pt x="472" y="-6" on="1"/>
        <pt x="374" y="-6" on="0"/>
        <pt x="325" y="35" on="1"/>
        <pt x="300" y="16" on="0"/>
        <pt x="223" y="-4" on="0"/>
        <pt x="175" y="-4" on="1"/>
        <pt x="103" y="-4" on="0"/>
        <pt x="29" y="68" on="0"/>
        <pt x="29" y="137" on="1"/>
        <pt x="29" y="171" on="1"/>
        <pt x="29" y="230" on="0"/>
        <pt x="85" y="299" on="0"/>
        <pt x="149" y="318" on="1"/>
        <pt x="273" y="356" on="1"/>
        <pt x="273" y="429" on="1"/>
        <pt x="273" y="458" on="0"/>
        <pt x="236" y="488" on="0"/>
        <pt x="187" y="488" on="1"/>
        <pt x="150" y="488" on="0"/>
        <pt x="76" y="474" on="0"/>
        <pt x="55" y="466" on="1"/>
        <pt x="55" y="564" on="1"/>
        <pt x="76" y="571" on="0"/>
        <pt x="153" y="584" on="0"/>
        <pt x="195" y="584" on="1"/>
        <pt x="281" y="584" on="0"/>
        <pt x="323" y="547" on="1"/>
      </contour>
      <contour>
        <pt x="519" y="497" on="0"/>
        <pt x="449" y="497" on="1"/>
        <pt x="413" y="497" on="0"/>
        <pt x="377" y="461" on="0"/>
        <pt x="377" y="429" on="1"/>
        <pt x="377" y="328" on="1"/>
        <pt x="519" y="328" on="1"/>
        <pt x="519" y="429" on="1"/>
      </contour>
      <contour>
        <pt x="191" y="240" on="1"/>
        <pt x="156" y="230" on="0"/>
        <pt x="132" y="198" on="0"/>
        <pt x="132" y="166" on="1"/>
        <pt x="132" y="137" on="1"/>
        <pt x="132" y="80" on="0"/>
        <pt x="192" y="80" on="1"/>
        <pt x="214" y="80" on="0"/>
        <pt x="258" y="93" on="0"/>
        <pt x="275" y="104" on="1"/>
        <pt x="275" y="263" on="1"/>
      </contour>
    </TTGlyph>
    <TTGlyph name="agrave" xMin="26" yMin="-3" xMax="378" yMax="733">
      <component glyphName="a" x="0" y="0" flags="0x0"/>
      <component glyphName="grave" x="1" y="0" flags="0x0"/>
    </TTGlyph>
    <TTGlyph name="amacron" xMin="26" yMin="-3" xMax="378" yMax="708">
      <component glyphName="a" x="0" y="0" flags="0x0"/>
      <component glyphName="macron" x="40" y="0" flags="0x0"/>
    </TTGlyph>
    <TTGlyph name="ampersand" xMin="53" yMin="-8" xMax="468" yMax="687">
      <contour>
        <pt x="468" y="306" on="1"/>
        <pt x="422" y="306" on="1"/>
        <pt x="422" y="160" on="1"/>
        <pt x="422" y="83" on="0"/>
        <pt x="331" y="-8" on="0"/>
        <pt x="239" y="-8" on="1"/>
        <pt x="147" y="-8" on="0"/>
        <pt x="53" y="84" on="0"/>
        <pt x="53" y="160" on="1"/>
        <pt x="53" y="238" on="1"/>
        <pt x="53" y="284" on="0"/>
        <pt x="91" y="343" on="0"/>
        <pt x="127" y="355" on="1"/>
        <pt x="92" y="367" on="0"/>
        <pt x="55" y="427" on="0"/>
        <pt x="55" y="472" on="1"/>
        <pt x="55" y="529" on="1"/>
        <pt x="55" y="603" on="0"/>
        <pt x="157" y="687" on="0"/>
        <pt x="261" y="687" on="1"/>
        <pt x="339" y="687" on="0"/>
        <pt x="387" y="671" on="1"/>
        <pt x="387" y="569" on="1"/>
        <pt x="335" y="588" on="0"/>
        <pt x="263" y="588" on="1"/>
        <pt x="206" y="588" on="0"/>
        <pt x="163" y="553" on="0"/>
        <pt x="163" y="519" on="1"/>
        <pt x="163" y="474" on="1"/>
        <pt x="163" y="436" on="0"/>
        <pt x="194" y="399" on="0"/>
        <pt x="233" y="399" on="1"/>
        <pt x="318" y="399" on="1"/>
        <pt x="318" y="461" on="1"/>
        <pt x="422" y="461" on="1"/>
        <pt x="422" y="399" on="1"/>
        <pt x="468" y="399" on="1"/>
      </contour>
      <contour>
        <pt x="318" y="306" on="1"/>
        <pt x="233" y="306" on="1"/>
        <pt x="195" y="306" on="0"/>
        <pt x="161" y="268" on="0"/>
        <pt x="161" y="232" on="1"/>
        <pt x="161" y="163" on="1"/>
        <pt x="161" y="88" on="0"/>
        <pt x="239" y="88" on="1"/>
        <pt x="318" y="88" on="0"/>
        <pt x="318" y="163" on="1"/>
      </contour>
    </TTGlyph>
    <TTGlyph name="aogonek" xMin="26" yMin="-187" xMax="378" yMax="584">
      <component glyphName="a" x="0" y="0" flags="0x0"/>
      <component glyphName="ogonek" x="148" y="0" flags="0x0"/>
    </TTGlyph>
    <TTGlyph name="apostrophemod" xMin="27" yMin="500" xMax="154" yMax="723">
      <component glyphName="quoteright" x="0" y="0" flags="0x0"/>
    </TTGlyph>
    <TTGlyph name="approxequal" xMin="34" yMin="159" xMax="504" yMax="514">
      <contour>
        <pt x="501" y="500" on="0"/>
        <pt x="504" y="475" on="0"/>
        <pt x="504" y="459" on="1"/>
        <pt x="504" y="404" on="0"/>
        <pt x="443" y="347" on="0"/>
        <pt x="395" y="347" on="1"/>
        <pt x="361" y="347" on="0"/>
        <pt x="324" y="361" on="1"/>
        <pt x="211" y="404" on="1"/>
        <pt x="186" y="414" on="0"/>
        <pt x="169" y="414" on="1"/>
        <pt x="130" y="414" on="0"/>
        <pt x="130" y="375" on="1"/>
        <pt x="130" y="370" on="0"/>
        <pt x="132" y="358" on="1"/>
        <pt x="38" y="358" on="1"/>
        <pt x="37" y="362" on="0"/>
        <pt x="34" y="388" on="0"/>
        <pt x="34" y="402" on="1"/>
        <pt x="34" y="458" on="0"/>
        <pt x="94" y="514" on="0"/>
        <pt x="142" y="514" on="1"/>
        <pt x="177" y="514" on="0"/>
        <pt x="214" y="500" on="1"/>
        <pt x="327" y="457" on="1"/>
        <pt x="350" y="447" on="0"/>
        <pt x="370" y="447" on="1"/>
        <pt x="388" y="447" on="0"/>
        <pt x="409" y="467" on="0"/>
        <pt x="409" y="487" on="1"/>
        <pt x="409" y="491" on="0"/>
        <pt x="407" y="503" on="1"/>
        <pt x="500" y="503" on="1"/>
      </contour>
      <contour>
        <pt x="501" y="312" on="0"/>
        <pt x="504" y="287" on="0"/>
        <pt x="504" y="271" on="1"/>
        <pt x="504" y="216" on="0"/>
        <pt x="443" y="159" on="0"/>
        <pt x="395" y="159" on="1"/>
        <pt x="361" y="159" on="0"/>
        <pt x="324" y="173" on="1"/>
        <pt x="211" y="216" on="1"/>
        <pt x="186" y="226" on="0"/>
        <pt x="169" y="226" on="1"/>
        <pt x="130" y="226" on="0"/>
        <pt x="130" y="187" on="1"/>
        <pt x="130" y="182" on="0"/>
        <pt x="132" y="170" on="1"/>
        <pt x="38" y="170" on="1"/>
        <pt x="37" y="174" on="0"/>
        <pt x="34" y="200" on="0"/>
        <pt x="34" y="214" on="1"/>
        <pt x="34" y="270" on="0"/>
        <pt x="94" y="326" on="0"/>
        <pt x="142" y="326" on="1"/>
        <pt x="177" y="326" on="0"/>
        <pt x="214" y="312" on="1"/>
        <pt x="327" y="269" on="1"/>
        <pt x="350" y="259" on="0"/>
        <pt x="370" y="259" on="1"/>
        <pt x="388" y="259" on="0"/>
        <pt x="409" y="279" on="0"/>
        <pt x="409" y="299" on="1"/>
        <pt x="409" y="303" on="0"/>
        <pt x="407" y="315" on="1"/>
        <pt x="500" y="315" on="1"/>
      </contour>
    </TTGlyph>
    <TTGlyph name="aring" xMin="26" yMin="-3" xMax="378" yMax="752">
      <component glyphName="a" x="0" y="0" flags="0x0"/>
      <component glyphName="ring" x="34" y="0" flags="0x0"/>
    </TTGlyph>
    <TTGlyph name="asciicircum" xMin="2" yMin="389" xMax="371" yMax="698">
      <contour>
        <pt x="264" y="389" on="1"/>
        <pt x="186" y="630" on="1"/>
        <pt x="108" y="389" on="1"/>
        <pt x="2" y="389" on="1"/>
        <pt x="123" y="698" on="1"/>
        <pt x="251" y="698" on="1"/>
        <pt x="371" y="389" on="1"/>
      </contour>
    </TTGlyph>
    <TTGlyph name="asciitilde" xMin="24" yMin="261" xMax="494" yMax="428">
      <contour>
        <pt x="491" y="414" on="0"/>
        <pt x="494" y="389" on="0"/>
        <pt x="494" y="373" on="1"/>
        <pt x="494" y="317" on="0"/>
        <pt x="434" y="261" on="0"/>
        <pt x="386" y="261" on="1"/>
        <pt x="353" y="261" on="0"/>
        <pt x="314" y="275" on="1"/>
        <pt x="201" y="318" on="1"/>
        <pt x="176" y="328" on="0"/>
        <pt x="159" y="328" on="1"/>
        <pt x="120" y="328" on="0"/>
        <pt x="120" y="289" on="1"/>
        <pt x="120" y="284" on="0"/>
        <pt x="122" y="272" on="1"/>
        <pt x="28" y="272" on="1"/>
        <pt x="27" y="276" on="0"/>
        <pt x="24" y="302" on="0"/>
        <pt x="24" y="316" on="1"/>
        <pt x="24" y="372" on="0"/>
        <pt x="84" y="428" on="0"/>
        <pt x="132" y="428" on="1"/>
        <pt x="167" y="428" on="0"/>
        <pt x="204" y="414" on="1"/>
        <pt x="317" y="371" on="1"/>
        <pt x="340" y="361" on="0"/>
        <pt x="360" y="361" on="1"/>
        <pt x="399" y="361" on="0"/>
        <pt x="399" y="400" on="1"/>
        <pt x="399" y="405" on="0"/>
        <pt x="397" y="417" on="1"/>
        <pt x="490" y="417" on="1"/>
      </contour>
    </TTGlyph>
    <TTGlyph name="asterisk" xMin="44" yMin="396" xMax="480" yMax="810">
      <contour>
        <pt x="351" y="558" on="0"/>
        <pt x="371" y="530" on="1"/>
        <pt x="427" y="454" on="1"/>
        <pt x="348" y="396" on="1"/>
        <pt x="291" y="472" on="1"/>
        <pt x="272" y="499" on="0"/>
        <pt x="262" y="526" on="1"/>
        <pt x="255" y="504" on="0"/>
        <pt x="233" y="473" on="1"/>
        <pt x="177" y="396" on="1"/>
        <pt x="97" y="454" on="1"/>
        <pt x="153" y="531" on="1"/>
        <pt x="174" y="559" on="0"/>
        <pt x="195" y="575" on="1"/>
        <pt x="165" y="577" on="0"/>
        <pt x="135" y="587" on="1"/>
        <pt x="44" y="616" on="1"/>
        <pt x="74" y="709" on="1"/>
        <pt x="165" y="680" on="1"/>
        <pt x="197" y="669" on="0"/>
        <pt x="221" y="654" on="1"/>
        <pt x="213" y="678" on="0"/>
        <pt x="213" y="715" on="1"/>
        <pt x="213" y="810" on="1"/>
        <pt x="311" y="810" on="1"/>
        <pt x="311" y="715" on="1"/>
        <pt x="311" y="679" on="0"/>
        <pt x="303" y="653" on="1"/>
        <pt x="325" y="669" on="0"/>
        <pt x="359" y="680" on="1"/>
        <pt x="450" y="710" on="1"/>
        <pt x="480" y="616" on="1"/>
        <pt x="390" y="587" on="1"/>
        <pt x="354" y="575" on="0"/>
        <pt x="329" y="575" on="1"/>
      </contour>
    </TTGlyph>
    <TTGlyph name="at" xMin="66" yMin="-125" xMax="828" yMax="684">
      <contour>
        <pt x="593" y="684" on="0"/>
        <pt x="760" y="589" on="0"/>
        <pt x="828" y="415" on="0"/>
        <pt x="828" y="285" on="1"/>
        <pt x="828" y="141" on="0"/>
        <pt x="735" y="18" on="0"/>
        <pt x="646" y="18" on="1"/>
        <pt x="602" y="18" on="0"/>
        <pt x="538" y="46" on="0"/>
        <pt x="521" y="73" on="1"/>
        <pt x="483" y="49" on="0"/>
        <pt x="417" y="49" on="1"/>
        <pt x="359" y="49" on="0"/>
        <pt x="300" y="108" on="0"/>
        <pt x="300" y="163" on="1"/>
        <pt x="300" y="184" on="1"/>
        <pt x="300" y="233" on="0"/>
        <pt x="348" y="289" on="0"/>
        <pt x="398" y="306" on="1"/>
        <pt x="499" y="340" on="1"/>
        <pt x="499" y="397" on="1"/>
        <pt x="499" y="422" on="0"/>
        <pt x="475" y="448" on="0"/>
        <pt x="442" y="448" on="1"/>
        <pt x="410" y="448" on="0"/>
        <pt x="356" y="439" on="0"/>
        <pt x="320" y="429" on="1"/>
        <pt x="320" y="505" on="1"/>
        <pt x="382" y="521" on="0"/>
        <pt x="442" y="521" on="1"/>
        <pt x="515" y="521" on="0"/>
        <pt x="583" y="460" on="0"/>
        <pt x="583" y="401" on="1"/>
        <pt x="583" y="172" on="1"/>
        <pt x="583" y="133" on="0"/>
        <pt x="615" y="99" on="0"/>
        <pt x="651" y="99" on="1"/>
        <pt x="695" y="99" on="0"/>
        <pt x="736" y="180" on="0"/>
        <pt x="736" y="285" on="1"/>
        <pt x="736" y="392" on="0"/>
        <pt x="693" y="526" on="0"/>
        <pt x="567" y="599" on="0"/>
        <pt x="448" y="599" on="1"/>
        <pt x="329" y="599" on="0"/>
        <pt x="203" y="522" on="0"/>
        <pt x="159" y="385" on="0"/>
        <pt x="159" y="279" on="1"/>
        <pt x="159" y="173" on="0"/>
        <pt x="204" y="36" on="0"/>
        <pt x="330" y="-40" on="0"/>
        <pt x="448" y="-40" on="1"/>
        <pt x="536" y="-40" on="1"/>
        <pt x="536" y="-125" on="1"/>
        <pt x="447" y="-125" on="1"/>
        <pt x="303" y="-125" on="0"/>
        <pt x="135" y="-27" on="0"/>
        <pt x="66" y="150" on="0"/>
        <pt x="66" y="279" on="1"/>
        <pt x="66" y="475" on="0"/>
        <pt x="239" y="684" on="0"/>
        <pt x="448" y="684" on="1"/>
      </contour>
      <contour>
        <pt x="499" y="264" on="1"/>
        <pt x="435" y="243" on="1"/>
        <pt x="408" y="235" on="0"/>
        <pt x="386" y="212" on="0"/>
        <pt x="386" y="186" on="1"/>
        <pt x="386" y="163" on="1"/>
        <pt x="386" y="141" on="0"/>
        <pt x="408" y="121" on="0"/>
        <pt x="434" y="121" on="1"/>
        <pt x="451" y="121" on="0"/>
        <pt x="480" y="129" on="0"/>
        <pt x="497" y="138" on="0"/>
        <pt x="499" y="140" on="1"/>
      </contour>
    </TTGlyph>
    <TTGlyph name="atilde" xMin="26" yMin="-3" xMax="378" yMax="727">
      <component glyphName="a" x="0" y="0" flags="0x0"/>
      <component glyphName="tilde" x="37" y="0" flags="0x0"/>
    </TTGlyph>
    <TTGlyph name="b" xMin="58" yMin="0" xMax="407" yMax="733">
      <contour>
        <pt x="166" y="562" on="1"/>
        <pt x="221" y="582" on="0"/>
        <pt x="277" y="582" on="1"/>
        <pt x="336" y="582" on="0"/>
        <pt x="407" y="515" on="0"/>
        <pt x="407" y="452" on="1"/>
        <pt x="407" y="147" on="1"/>
        <pt x="407" y="74" on="0"/>
        <pt x="326" y="0" on="0"/>
        <pt x="257" y="0" on="1"/>
        <pt x="58" y="0" on="1"/>
        <pt x="58" y="733" on="1"/>
        <pt x="166" y="733" on="1"/>
      </contour>
      <contour>
        <pt x="297" y="481" on="0"/>
        <pt x="245" y="481" on="1"/>
        <pt x="206" y="481" on="0"/>
        <pt x="166" y="463" on="1"/>
        <pt x="166" y="100" on="1"/>
        <pt x="229" y="100" on="1"/>
        <pt x="297" y="100" on="0"/>
        <pt x="297" y="161" on="1"/>
        <pt x="297" y="431" on="1"/>
      </contour>
    </TTGlyph>
    <TTGlyph name="backslash" xMin="36" yMin="-157" xMax="405" yMax="825">
      <contour>
        <pt x="405" y="-157" on="1"/>
        <pt x="305" y="-157" on="1"/>
        <pt x="36" y="825" on="1"/>
        <pt x="135" y="825" on="1"/>
      </contour>
    </TTGlyph>
    <TTGlyph name="bar" xMin="69" yMin="-169" xMax="145" yMax="840">
      <contour>
        <pt x="145" y="-169" on="1"/>
        <pt x="69" y="-169" on="1"/>
        <pt x="69" y="840" on="1"/>
        <pt x="145" y="840" on="1"/>
      </contour>
    </TTGlyph>
    <TTGlyph name="braceleft" xMin="57" yMin="-155" xMax="318" yMax="815">
      <contour>
        <pt x="227" y="408" on="0"/>
        <pt x="189" y="340" on="0"/>
        <pt x="138" y="331" on="1"/>
        <pt x="189" y="323" on="0"/>
        <pt x="227" y="258" on="0"/>
        <pt x="227" y="195" on="1"/>
        <pt x="227" y="-9" on="1"/>
        <pt x="227" y="-62" on="0"/>
        <pt x="289" y="-62" on="1"/>
        <pt x="318" y="-62" on="1"/>
        <pt x="318" y="-155" on="1"/>
        <pt x="282" y="-155" on="1"/>
        <pt x="211" y="-155" on="0"/>
        <pt x="133" y="-74" on="0"/>
        <pt x="133" y="-5" on="1"/>
        <pt x="133" y="219" on="1"/>
        <pt x="133" y="250" on="0"/>
        <pt x="95" y="284" on="0"/>
        <pt x="60" y="284" on="1"/>
        <pt x="57" y="284" on="1"/>
        <pt x="57" y="377" on="1"/>
        <pt x="60" y="377" on="1"/>
        <pt x="95" y="377" on="0"/>
        <pt x="133" y="411" on="0"/>
        <pt x="133" y="442" on="1"/>
        <pt x="133" y="665" on="1"/>
        <pt x="133" y="734" on="0"/>
        <pt x="211" y="815" on="0"/>
        <pt x="282" y="815" on="1"/>
        <pt x="318" y="815" on="1"/>
        <pt x="318" y="723" on="1"/>
        <pt x="289" y="723" on="1"/>
        <pt x="227" y="723" on="0"/>
        <pt x="227" y="669" on="1"/>
        <pt x="227" y="472" on="1"/>
      </contour>
    </TTGlyph>
    <TTGlyph name="braceright" xMin="58" yMin="-155" xMax="320" yMax="815">
      <contour>
        <pt x="320" y="284" on="1"/>
        <pt x="316" y="284" on="1"/>
        <pt x="281" y="284" on="0"/>
        <pt x="243" y="250" on="0"/>
        <pt x="243" y="219" on="1"/>
        <pt x="243" y="-5" on="1"/>
        <pt x="243" y="-74" on="0"/>
        <pt x="165" y="-155" on="0"/>
        <pt x="94" y="-155" on="1"/>
        <pt x="58" y="-155" on="1"/>
        <pt x="58" y="-62" on="1"/>
        <pt x="87" y="-62" on="1"/>
        <pt x="149" y="-62" on="0"/>
        <pt x="149" y="-9" on="1"/>
        <pt x="149" y="195" on="1"/>
        <pt x="149" y="258" on="0"/>
        <pt x="187" y="323" on="0"/>
        <pt x="238" y="331" on="1"/>
        <pt x="187" y="340" on="0"/>
        <pt x="149" y="408" on="0"/>
        <pt x="149" y="472" on="1"/>
        <pt x="149" y="669" on="1"/>
        <pt x="149" y="723" on="0"/>
        <pt x="87" y="723" on="1"/>
        <pt x="58" y="723" on="1"/>
        <pt x="58" y="815" on="1"/>
        <pt x="94" y="815" on="1"/>
        <pt x="165" y="815" on="0"/>
        <pt x="243" y="734" on="0"/>
        <pt x="243" y="665" on="1"/>
        <pt x="243" y="442" on="1"/>
        <pt x="243" y="411" on="0"/>
        <pt x="281" y="377" on="0"/>
        <pt x="316" y="377" on="1"/>
        <pt x="320" y="377" on="1"/>
      </contour>
    </TTGlyph>
    <TTGlyph name="bracketleft" xMin="85" yMin="-157" xMax="295" yMax="825">
      <contour>
        <pt x="295" y="-71" on="1"/>
        <pt x="295" y="-157" on="1"/>
        <pt x="85" y="-157" on="1"/>
        <pt x="85" y="825" on="1"/>
        <pt x="295" y="825" on="1"/>
        <pt x="295" y="740" on="1"/>
        <pt x="174" y="740" on="1"/>
        <pt x="174" y="-71" on="1"/>
      </contour>
    </TTGlyph>
    <TTGlyph name="bracketright" xMin="36" yMin="-157" xMax="247" yMax="825">
      <contour>
        <pt x="247" y="825" on="1"/>
        <pt x="247" y="-157" on="1"/>
        <pt x="36" y="-157" on="1"/>
        <pt x="36" y="-71" on="1"/>
        <pt x="158" y="-71" on="1"/>
        <pt x="158" y="740" on="1"/>
        <pt x="36" y="740" on="1"/>
        <pt x="36" y="825" on="1"/>
      </contour>
    </TTGlyph>
    <TTGlyph name="breve" xMin="60" yMin="622" xMax="290" yMax="733">
      <contour>
        <pt x="289" y="684" on="0"/>
        <pt x="226" y="622" on="0"/>
        <pt x="175" y="622" on="1"/>
        <pt x="124" y="622" on="0"/>
        <pt x="61" y="684" on="0"/>
        <pt x="60" y="733" on="1"/>
        <pt x="123" y="733" on="1"/>
        <pt x="124" y="708" on="0"/>
        <pt x="151" y="678" on="0"/>
        <pt x="175" y="678" on="1"/>
        <pt x="199" y="678" on="0"/>
        <pt x="226" y="708" on="0"/>
        <pt x="227" y="733" on="1"/>
        <pt x="290" y="733" on="1"/>
      </contour>
    </TTGlyph>
    <TTGlyph name="brokenbar" xMin="69" yMin="-169" xMax="145" yMax="840">
      <contour>
        <pt x="145" y="456" on="1"/>
        <pt x="69" y="456" on="1"/>
        <pt x="69" y="840" on="1"/>
        <pt x="145" y="840" on="1"/>
      </contour>
      <contour>
        <pt x="145" y="-169" on="1"/>
        <pt x="69" y="-169" on="1"/>
        <pt x="69" y="215" on="1"/>
        <pt x="145" y="215" on="1"/>
      </contour>
    </TTGlyph>
    <TTGlyph name="bullet" xMin="44" yMin="246" xMax="215" yMax="417">
      <contour>
        <pt x="44" y="417" on="0"/>
        <pt x="129" y="417" on="1"/>
        <pt x="215" y="417" on="0"/>
        <pt x="215" y="331" on="1"/>
        <pt x="215" y="246" on="0"/>
        <pt x="129" y="246" on="1"/>
        <pt x="44" y="246" on="0"/>
        <pt x="44" y="331" on="1"/>
      </contour>
    </TTGlyph>
    <TTGlyph name="c" xMin="48" yMin="-5" xMax="345" yMax="584">
      <contour>
        <pt x="48" y="584" on="0"/>
        <pt x="229" y="584" on="1"/>
        <pt x="293" y="584" on="0"/>
        <pt x="344" y="570" on="1"/>
        <pt x="344" y="470" on="1"/>
        <pt x="288" y="484" on="0"/>
        <pt x="244" y="484" on="1"/>
        <pt x="195" y="484" on="0"/>
        <pt x="156" y="454" on="0"/>
        <pt x="156" y="419" on="1"/>
        <pt x="156" y="160" on="1"/>
        <pt x="156" y="125" on="0"/>
        <pt x="195" y="94" on="0"/>
        <pt x="244" y="94" on="1"/>
        <pt x="292" y="94" on="0"/>
        <pt x="345" y="110" on="1"/>
        <pt x="345" y="10" on="1"/>
        <pt x="295" y="-5" on="0"/>
        <pt x="229" y="-5" on="1"/>
        <pt x="48" y="-5" on="0"/>
        <pt x="48" y="152" on="1"/>
        <pt x="48" y="426" on="1"/>
      </contour>
    </TTGlyph>
    <TTGlyph name="cacute" xMin="48" yMin="-5" xMax="345" yMax="733">
      <component glyphName="c" x="0" y="0" flags="0x0"/>
      <component glyphName="acute" x="85" y="0" flags="0x0"/>
    </TTGlyph>
    <TTGlyph name="caron" xMin="79" yMin="622" xMax="270" yMax="733">
      <contour>
        <pt x="270" y="733" on="1"/>
        <pt x="215" y="622" on="1"/>
        <pt x="134" y="622" on="1"/>
        <pt x="79" y="733" on="1"/>
        <pt x="137" y="733" on="1"/>
        <pt x="175" y="675" on="1"/>
        <pt x="213" y="733" on="1"/>
      </contour>
    </TTGlyph>
    <TTGlyph name="ccaron" xMin="48" yMin="-5" xMax="345" yMax="733">
      <component glyphName="c" x="0" y="0" flags="0x0"/>
      <component glyphName="caron" x="50" y="0" flags="0x0"/>
    </TTGlyph>
    <TTGlyph name="ccedilla" xMin="48" yMin="-186" xMax="345" yMax="584">
      <component glyphName="c" x="0" y="0" flags="0x0"/>
      <component glyphName="cedilla" x="41" y="0" flags="0x0"/>
    </TTGlyph>
    <TTGlyph name="cedilla" xMin="102" yMin="-186" xMax="247" yMax="6">
      <contour>
        <pt x="184" y="-39" on="1"/>
        <pt x="209" y="-41" on="0"/>
        <pt x="247" y="-75" on="0"/>
        <pt x="247" y="-106" on="1"/>
        <pt x="247" y="-144" on="0"/>
        <pt x="195" y="-186" on="0"/>
        <pt x="153" y="-186" on="1"/>
        <pt x="126" y="-186" on="0"/>
        <pt x="102" y="-180" on="1"/>
        <pt x="102" y="-127" on="1"/>
        <pt x="116" y="-134" on="0"/>
        <pt x="140" y="-134" on="1"/>
        <pt x="159" y="-134" on="0"/>
        <pt x="182" y="-118" on="0"/>
        <pt x="182" y="-104" on="1"/>
        <pt x="182" y="-73" on="0"/>
        <pt x="140" y="-73" on="1"/>
        <pt x="127" y="-73" on="1"/>
        <pt x="144" y="6" on="1"/>
        <pt x="194" y="6" on="1"/>
      </contour>
    </TTGlyph>
    <TTGlyph name="cent" xMin="53" yMin="-72" xMax="350" yMax="654">
      <contour>
        <pt x="350" y="10" on="1"/>
        <pt x="313" y="-1" on="0"/>
        <pt x="278" y="-3" on="1"/>
        <pt x="278" y="-72" on="1"/>
        <pt x="178" y="-72" on="1"/>
        <pt x="178" y="-1" on="1"/>
        <pt x="53" y="21" on="0"/>
        <pt x="53" y="152" on="1"/>
        <pt x="53" y="426" on="1"/>
        <pt x="53" y="559" on="0"/>
        <pt x="181" y="580" on="1"/>
        <pt x="181" y="654" on="1"/>
        <pt x="281" y="654" on="1"/>
        <pt x="281" y="582" on="1"/>
        <pt x="312" y="580" on="0"/>
        <pt x="349" y="570" on="1"/>
        <pt x="349" y="470" on="1"/>
        <pt x="293" y="484" on="0"/>
        <pt x="249" y="484" on="1"/>
        <pt x="200" y="484" on="0"/>
        <pt x="161" y="454" on="0"/>
        <pt x="161" y="419" on="1"/>
        <pt x="161" y="160" on="1"/>
        <pt x="161" y="125" on="0"/>
        <pt x="200" y="94" on="0"/>
        <pt x="249" y="94" on="1"/>
        <pt x="297" y="94" on="0"/>
        <pt x="350" y="110" on="1"/>
      </contour>
    </TTGlyph>
    <TTGlyph name="circumflex" xMin="79" yMin="622" xMax="270" yMax="733">
      <contour>
        <pt x="213" y="622" on="1"/>
        <pt x="175" y="680" on="1"/>
        <pt x="137" y="622" on="1"/>
        <pt x="79" y="622" on="1"/>
        <pt x="134" y="733" on="1"/>
        <pt x="215" y="733" on="1"/>
        <pt x="270" y="622" on="1"/>
      </contour>
    </TTGlyph>
    <TTGlyph name="colon" xMin="35" yMin="-8" xMax="159" yMax="465">
      <contour>
        <pt x="35" y="433" on="0"/>
        <pt x="64" y="465" on="0"/>
        <pt x="97" y="465" on="1"/>
        <pt x="159" y="465" on="0"/>
        <pt x="159" y="403" on="1"/>
        <pt x="159" y="343" on="0"/>
        <pt x="97" y="343" on="1"/>
        <pt x="35" y="343" on="0"/>
        <pt x="35" y="403" on="1"/>
      </contour>
      <contour>
        <pt x="35" y="114" on="0"/>
        <pt x="97" y="114" on="1"/>
        <pt x="159" y="114" on="0"/>
        <pt x="159" y="53" on="1"/>
        <pt x="159" y="-8" on="0"/>
        <pt x="97" y="-8" on="1"/>
        <pt x="35" y="-8" on="0"/>
        <pt x="35" y="53" on="1"/>
      </contour>
    </TTGlyph>
    <TTGlyph name="comma" xMin="10" yMin="-129" xMax="156" yMax="113">
      <contour>
        <pt x="156" y="113" on="0"/>
        <pt x="156" y="69" on="1"/>
        <pt x="156" y="35" on="0"/>
        <pt x="99" y="-83" on="0"/>
        <pt x="70" y="-129" on="1"/>
        <pt x="10" y="-129" on="1"/>
        <pt x="54" y="113" on="1"/>
        <pt x="108" y="113" on="1"/>
      </contour>
    </TTGlyph>
    <TTGlyph name="copyright" xMin="41" yMin="0" xMax="655" yMax="660">
      <contour>
        <pt x="41" y="433" on="0"/>
        <pt x="94" y="577" on="0"/>
        <pt x="230" y="660" on="0"/>
        <pt x="349" y="660" on="1"/>
        <pt x="470" y="660" on="0"/>
        <pt x="604" y="579" on="0"/>
        <pt x="655" y="435" on="0"/>
        <pt x="655" y="329" on="1"/>
        <pt x="655" y="172" on="0"/>
        <pt x="520" y="0" on="0"/>
        <pt x="349" y="0" on="1"/>
        <pt x="230" y="0" on="0"/>
        <pt x="94" y="82" on="0"/>
        <pt x="41" y="226" on="0"/>
        <pt x="41" y="329" on="1"/>
      </contour>
      <contour>
        <pt x="573" y="416" on="0"/>
        <pt x="545" y="520" on="0"/>
        <pt x="448" y="581" on="0"/>
        <pt x="349" y="581" on="1"/>
        <pt x="251" y="581" on="0"/>
        <pt x="153" y="519" on="0"/>
        <pt x="124" y="415" on="0"/>
        <pt x="124" y="329" on="1"/>
        <pt x="124" y="244" on="0"/>
        <pt x="154" y="139" on="0"/>
        <pt x="252" y="78" on="0"/>
        <pt x="349" y="78" on="1"/>
        <pt x="444" y="78" on="0"/>
        <pt x="542" y="140" on="0"/>
        <pt x="573" y="246" on="0"/>
        <pt x="573" y="329" on="1"/>
      </contour>
      <contour>
        <pt x="226" y="447" on="0"/>
        <pt x="289" y="509" on="0"/>
        <pt x="359" y="509" on="1"/>
        <pt x="394" y="509" on="0"/>
        <pt x="435" y="500" on="1"/>
        <pt x="435" y="429" on="1"/>
        <pt x="415" y="433" on="0"/>
        <pt x="380" y="438" on="0"/>
        <pt x="361" y="438" on="1"/>
        <pt x="325" y="438" on="0"/>
        <pt x="305" y="413" on="0"/>
        <pt x="305" y="386" on="1"/>
        <pt x="305" y="274" on="1"/>
        <pt x="305" y="248" on="0"/>
        <pt x="326" y="223" on="0"/>
        <pt x="361" y="223" on="1"/>
        <pt x="396" y="223" on="0"/>
        <pt x="436" y="231" on="1"/>
        <pt x="436" y="160" on="1"/>
        <pt x="396" y="151" on="0"/>
        <pt x="359" y="151" on="1"/>
        <pt x="289" y="151" on="0"/>
        <pt x="226" y="213" on="0"/>
        <pt x="226" y="272" on="1"/>
        <pt x="226" y="388" on="1"/>
      </contour>
    </TTGlyph>
    <TTGlyph name="currency" xMin="23" yMin="100" xMax="441" yMax="581">
      <contour>
        <pt x="410" y="243" on="0"/>
        <pt x="394" y="210" on="1"/>
        <pt x="440" y="164" on="1"/>
        <pt x="376" y="100" on="1"/>
        <pt x="329" y="147" on="1"/>
        <pt x="292" y="129" on="0"/>
        <pt x="232" y="129" on="1"/>
        <pt x="173" y="129" on="0"/>
        <pt x="134" y="147" on="1"/>
        <pt x="87" y="100" on="1"/>
        <pt x="23" y="164" on="1"/>
        <pt x="70" y="210" on="1"/>
        <pt x="54" y="245" on="0"/>
        <pt x="54" y="293" on="1"/>
        <pt x="54" y="389" on="1"/>
        <pt x="54" y="436" on="0"/>
        <pt x="70" y="471" on="1"/>
        <pt x="23" y="517" on="1"/>
        <pt x="87" y="581" on="1"/>
        <pt x="134" y="535" on="1"/>
        <pt x="177" y="553" on="0"/>
        <pt x="232" y="553" on="1"/>
        <pt x="287" y="553" on="0"/>
        <pt x="330" y="535" on="1"/>
        <pt x="377" y="581" on="1"/>
        <pt x="441" y="517" on="1"/>
        <pt x="394" y="471" on="1"/>
        <pt x="410" y="436" on="0"/>
        <pt x="410" y="389" on="1"/>
        <pt x="410" y="293" on="1"/>
      </contour>
      <contour>
        <pt x="272" y="223" on="0"/>
        <pt x="305" y="259" on="0"/>
        <pt x="305" y="296" on="1"/>
        <pt x="305" y="386" on="1"/>
        <pt x="305" y="422" on="0"/>
        <pt x="272" y="458" on="0"/>
        <pt x="232" y="458" on="1"/>
        <pt x="191" y="458" on="0"/>
        <pt x="158" y="422" on="0"/>
        <pt x="158" y="386" on="1"/>
        <pt x="158" y="296" on="1"/>
        <pt x="158" y="259" on="0"/>
        <pt x="191" y="223" on="0"/>
        <pt x="232" y="223" on="1"/>
      </contour>
    </TTGlyph>
    <TTGlyph name="d" xMin="48" yMin="-4" xMax="396" yMax="733">
      <contour>
        <pt x="396" y="0" on="1"/>
        <pt x="291" y="0" on="1"/>
        <pt x="291" y="37" on="1"/>
        <pt x="247" y="-4" on="0"/>
        <pt x="183" y="-4" on="1"/>
        <pt x="116" y="-4" on="0"/>
        <pt x="48" y="69" on="0"/>
        <pt x="48" y="136" on="1"/>
        <pt x="48" y="415" on="1"/>
        <pt x="48" y="492" on="0"/>
        <pt x="135" y="579" on="0"/>
        <pt x="217" y="579" on="1"/>
        <pt x="287" y="579" on="1"/>
        <pt x="287" y="733" on="1"/>
        <pt x="396" y="733" on="1"/>
      </contour>
      <contour>
        <pt x="229" y="482" on="1"/>
        <pt x="156" y="482" on="0"/>
        <pt x="156" y="412" on="1"/>
        <pt x="156" y="151" on="1"/>
        <pt x="156" y="95" on="0"/>
        <pt x="212" y="95" on="1"/>
        <pt x="236" y="95" on="0"/>
        <pt x="276" y="109" on="0"/>
        <pt x="288" y="119" on="1"/>
        <pt x="288" y="482" on="1"/>
      </contour>
    </TTGlyph>
    <TTGlyph name="dagger" xMin="35" yMin="-30" xMax="338" yMax="804">
      <contour>
        <pt x="236" y="760" on="0"/>
        <pt x="229" y="666" on="0"/>
        <pt x="228" y="652" on="1"/>
        <pt x="237" y="653" on="0"/>
        <pt x="301" y="660" on="0"/>
        <pt x="338" y="660" on="1"/>
        <pt x="338" y="575" on="1"/>
        <pt x="301" y="575" on="0"/>
        <pt x="237" y="581" on="0"/>
        <pt x="228" y="582" on="1"/>
        <pt x="229" y="568" on="0"/>
        <pt x="236" y="469" on="0"/>
        <pt x="236" y="414" on="1"/>
        <pt x="236" y="-30" on="1"/>
        <pt x="137" y="-30" on="1"/>
        <pt x="137" y="414" on="1"/>
        <pt x="137" y="469" on="0"/>
        <pt x="143" y="568" on="0"/>
        <pt x="144" y="582" on="1"/>
        <pt x="136" y="581" on="0"/>
        <pt x="74" y="575" on="0"/>
        <pt x="35" y="575" on="1"/>
        <pt x="35" y="660" on="1"/>
        <pt x="74" y="660" on="0"/>
        <pt x="136" y="653" on="0"/>
        <pt x="144" y="652" on="1"/>
        <pt x="143" y="666" on="0"/>
        <pt x="137" y="760" on="0"/>
        <pt x="137" y="804" on="1"/>
        <pt x="236" y="804" on="1"/>
      </contour>
    </TTGlyph>
    <TTGlyph name="daggerdbl" xMin="34" yMin="-30" xMax="337" yMax="804">
      <contour>
        <pt x="235" y="760" on="0"/>
        <pt x="229" y="666" on="0"/>
        <pt x="228" y="652" on="1"/>
        <pt x="236" y="653" on="0"/>
        <pt x="298" y="660" on="0"/>
        <pt x="337" y="660" on="1"/>
        <pt x="337" y="575" on="1"/>
        <pt x="298" y="575" on="0"/>
        <pt x="236" y="581" on="0"/>
        <pt x="228" y="582" on="1"/>
        <pt x="230" y="484" on="0"/>
        <pt x="230" y="389" on="1"/>
        <pt x="230" y="296" on="0"/>
        <pt x="228" y="192" on="1"/>
        <pt x="236" y="193" on="0"/>
        <pt x="298" y="199" on="0"/>
        <pt x="337" y="199" on="1"/>
        <pt x="337" y="115" on="1"/>
        <pt x="298" y="115" on="0"/>
        <pt x="236" y="121" on="0"/>
        <pt x="228" y="122" on="1"/>
        <pt x="229" y="112" on="0"/>
        <pt x="235" y="31" on="0"/>
        <pt x="235" y="-30" on="1"/>
        <pt x="136" y="-30" on="1"/>
        <pt x="136" y="14" on="0"/>
        <pt x="140" y="83" on="0"/>
        <pt x="143" y="118" on="0"/>
        <pt x="144" y="122" on="1"/>
        <pt x="136" y="121" on="0"/>
        <pt x="73" y="115" on="0"/>
        <pt x="34" y="115" on="1"/>
        <pt x="34" y="199" on="1"/>
        <pt x="73" y="199" on="0"/>
        <pt x="136" y="193" on="0"/>
        <pt x="144" y="192" on="1"/>
        <pt x="143" y="244" on="0"/>
        <pt x="143" y="389" on="1"/>
        <pt x="143" y="532" on="0"/>
        <pt x="144" y="582" on="1"/>
        <pt x="136" y="581" on="0"/>
        <pt x="73" y="575" on="0"/>
        <pt x="34" y="575" on="1"/>
        <pt x="34" y="660" on="1"/>
        <pt x="73" y="660" on="0"/>
        <pt x="136" y="653" on="0"/>
        <pt x="144" y="652" on="1"/>
        <pt x="143" y="666" on="0"/>
        <pt x="136" y="760" on="0"/>
        <pt x="136" y="804" on="1"/>
        <pt x="235" y="804" on="1"/>
      </contour>
    </TTGlyph>
    <TTGlyph name="danda" xMin="144" yMin="0" xMax="244" yMax="660">
      <contour>
        <pt x="244" y="660" on="1"/>
        <pt x="244" y="0" on="1"/>
        <pt x="144" y="0" on="1"/>
        <pt x="144" y="660" on="1"/>
      </contour>
    </TTGlyph>
    <TTGlyph name="dcaron" xMin="48" yMin="-4" xMax="529" yMax="733">
      <contour>
        <pt x="396" y="0" on="1"/>
        <pt x="291" y="0" on="1"/>
        <pt x="291" y="37" on="1"/>
        <pt x="247" y="-4" on="0"/>
        <pt x="183" y="-4" on="1"/>
        <pt x="116" y="-4" on="0"/>
        <pt x="48" y="69" on="0"/>
        <pt x="48" y="136" on="1"/>
        <pt x="48" y="415" on="1"/>
        <pt x="48" y="492" on="0"/>
        <pt x="135" y="579" on="0"/>
        <pt x="217" y="579" on="1"/>
        <pt x="287" y="579" on="1"/>
        <pt x="287" y="733" on="1"/>
        <pt x="396" y="733" on="1"/>
      </contour>
      <contour>
        <pt x="529" y="732" on="0"/>
        <pt x="529" y="703" on="1"/>
        <pt x="529" y="684" on="0"/>
        <pt x="494" y="619" on="0"/>
        <pt x="477" y="595" on="1"/>
        <pt x="436" y="595" on="1"/>
        <pt x="462" y="732" on="1"/>
        <pt x="498" y="732" on="1"/>
      </contour>
      <contour>
        <pt x="229" y="482" on="1"/>
        <pt x="156" y="482" on="0"/>
        <pt x="156" y="412" on="1"/>
        <pt x="156" y="151" on="1"/>
        <pt x="156" y="95" on="0"/>
        <pt x="212" y="95" on="1"/>
        <pt x="236" y="95" on="0"/>
        <pt x="276" y="109" on="0"/>
        <pt x="288" y="119" on="1"/>
        <pt x="288" y="482" on="1"/>
      </contour>
    </TTGlyph>
    <TTGlyph name="dcroat" xMin="50" yMin="-4" xMax="438" yMax="733">
      <contour>
        <pt x="438" y="631" on="1"/>
        <pt x="398" y="631" on="1"/>
        <pt x="398" y="0" on="1"/>
        <pt x="293" y="0" on="1"/>
        <pt x="293" y="37" on="1"/>
        <pt x="249" y="-4" on="0"/>
        <pt x="185" y="-4" on="1"/>
        <pt x="118" y="-4" on="0"/>
        <pt x="50" y="69" on="0"/>
        <pt x="50" y="136" on="1"/>
        <pt x="50" y="415" on="1"/>
        <pt x="50" y="492" on="0"/>
        <pt x="137" y="579" on="0"/>
        <pt x="219" y="579" on="1"/>
        <pt x="289" y="579" on="1"/>
        <pt x="289" y="631" on="1"/>
        <pt x="163" y="631" on="1"/>
        <pt x="163" y="686" on="1"/>
        <pt x="289" y="686" on="1"/>
        <pt x="289" y="733" on="1"/>
        <pt x="398" y="733" on="1"/>
        <pt x="398" y="686" on="1"/>
        <pt x="438" y="686" on="1"/>
      </contour>
      <contour>
        <pt x="290" y="482" on="1"/>
        <pt x="231" y="482" on="1"/>
        <pt x="158" y="482" on="0"/>
        <pt x="158" y="412" on="1"/>
        <pt x="158" y="151" on="1"/>
        <pt x="158" y="95" on="0"/>
        <pt x="214" y="95" on="1"/>
        <pt x="238" y="95" on="0"/>
        <pt x="278" y="109" on="0"/>
        <pt x="290" y="119" on="1"/>
      </contour>
    </TTGlyph>
    <TTGlyph name="degree" xMin="47" yMin="500" xMax="358" yMax="824">
      <contour>
        <pt x="47" y="736" on="0"/>
        <pt x="122" y="824" on="0"/>
        <pt x="202" y="824" on="1"/>
        <pt x="283" y="824" on="0"/>
        <pt x="358" y="736" on="0"/>
        <pt x="358" y="661" on="1"/>
        <pt x="358" y="587" on="0"/>
        <pt x="283" y="500" on="0"/>
        <pt x="202" y="500" on="1"/>
        <pt x="122" y="500" on="0"/>
        <pt x="47" y="587" on="0"/>
        <pt x="47" y="661" on="1"/>
      </contour>
      <contour>
        <pt x="269" y="700" on="0"/>
        <pt x="240" y="741" on="0"/>
        <pt x="202" y="741" on="1"/>
        <pt x="164" y="741" on="0"/>
        <pt x="136" y="701" on="0"/>
        <pt x="136" y="661" on="1"/>
        <pt x="136" y="621" on="0"/>
        <pt x="164" y="581" on="0"/>
        <pt x="202" y="581" on="1"/>
        <pt x="240" y="581" on="0"/>
        <pt x="269" y="622" on="0"/>
        <pt x="269" y="661" on="1"/>
      </contour>
    </TTGlyph>
    <TTGlyph name="dieresis" xMin="52" yMin="631" xMax="298" yMax="722">
      <contour>
        <pt x="52" y="698" on="0"/>
        <pt x="73" y="722" on="0"/>
        <pt x="99" y="722" on="1"/>
        <pt x="147" y="722" on="0"/>
        <pt x="147" y="676" on="1"/>
        <pt x="147" y="631" on="0"/>
        <pt x="99" y="631" on="1"/>
        <pt x="52" y="631" on="0"/>
        <pt x="52" y="676" on="1"/>
      </contour>
      <contour>
        <pt x="203" y="722" on="0"/>
        <pt x="251" y="722" on="1"/>
        <pt x="277" y="722" on="0"/>
        <pt x="298" y="698" on="0"/>
        <pt x="298" y="676" on="1"/>
        <pt x="298" y="631" on="0"/>
        <pt x="251" y="631" on="1"/>
        <pt x="203" y="631" on="0"/>
        <pt x="203" y="676" on="1"/>
      </contour>
    </TTGlyph>
    <TTGlyph name="divide" xMin="41" yMin="98" xMax="424" yMax="555">
      <contour>
        <pt x="176" y="555" on="0"/>
        <pt x="233" y="555" on="1"/>
        <pt x="291" y="555" on="0"/>
        <pt x="291" y="498" on="1"/>
        <pt x="291" y="441" on="0"/>
        <pt x="233" y="441" on="1"/>
        <pt x="176" y="441" on="0"/>
        <pt x="176" y="498" on="1"/>
      </contour>
      <contour>
        <pt x="424" y="281" on="1"/>
        <pt x="41" y="281" on="1"/>
        <pt x="41" y="373" on="1"/>
        <pt x="424" y="373" on="1"/>
      </contour>
      <contour>
        <pt x="176" y="212" on="0"/>
        <pt x="233" y="212" on="1"/>
        <pt x="291" y="212" on="0"/>
        <pt x="291" y="155" on="1"/>
        <pt x="291" y="98" on="0"/>
        <pt x="234" y="98" on="1"/>
        <pt x="176" y="98" on="0"/>
        <pt x="176" y="155" on="1"/>
      </contour>
    </TTGlyph>
    <TTGlyph name="dollar" xMin="24" yMin="-64" xMax="387" yMax="741">
      <contour>
        <pt x="347" y="320" on="0"/>
        <pt x="387" y="257" on="0"/>
        <pt x="387" y="209" on="1"/>
        <pt x="387" y="151" on="1"/>
        <pt x="387" y="90" on="0"/>
        <pt x="317" y="14" on="0"/>
        <pt x="247" y="1" on="1"/>
        <pt x="247" y="-64" on="1"/>
        <pt x="145" y="-64" on="1"/>
        <pt x="145" y="-4" on="1"/>
        <pt x="109" y="-2" on="0"/>
        <pt x="46" y="10" on="0"/>
        <pt x="31" y="16" on="1"/>
        <pt x="31" y="121" on="1"/>
        <pt x="57" y="110" on="0"/>
        <pt x="134" y="95" on="0"/>
        <pt x="174" y="95" on="1"/>
        <pt x="227" y="95" on="0"/>
        <pt x="277" y="131" on="0"/>
        <pt x="277" y="162" on="1"/>
        <pt x="277" y="192" on="1"/>
        <pt x="277" y="220" on="0"/>
        <pt x="256" y="251" on="0"/>
        <pt x="227" y="266" on="1"/>
        <pt x="116" y="327" on="1"/>
        <pt x="71" y="352" on="0"/>
        <pt x="24" y="422" on="0"/>
        <pt x="24" y="473" on="1"/>
        <pt x="24" y="534" on="1"/>
        <pt x="24" y="593" on="0"/>
        <pt x="89" y="669" on="0"/>
        <pt x="154" y="681" on="1"/>
        <pt x="154" y="741" on="1"/>
        <pt x="255" y="741" on="1"/>
        <pt x="255" y="686" on="1"/>
        <pt x="308" y="683" on="0"/>
        <pt x="354" y="668" on="1"/>
        <pt x="354" y="565" on="1"/>
        <pt x="295" y="587" on="0"/>
        <pt x="221" y="587" on="1"/>
        <pt x="175" y="587" on="0"/>
        <pt x="135" y="554" on="0"/>
        <pt x="135" y="523" on="1"/>
        <pt x="135" y="490" on="1"/>
        <pt x="135" y="459" on="0"/>
        <pt x="158" y="424" on="0"/>
        <pt x="190" y="407" on="1"/>
        <pt x="305" y="342" on="1"/>
      </contour>
    </TTGlyph>
    <TTGlyph name="dotaccent" xMin="127" yMin="643" xMax="222" yMax="734">
      <contour>
        <pt x="127" y="711" on="0"/>
        <pt x="148" y="734" on="0"/>
        <pt x="174" y="734" on="1"/>
        <pt x="222" y="734" on="0"/>
        <pt x="222" y="689" on="1"/>
        <pt x="222" y="643" on="0"/>
        <pt x="174" y="643" on="1"/>
        <pt x="127" y="643" on="0"/>
        <pt x="127" y="689" on="1"/>
      </contour>
    </TTGlyph>
    <TTGlyph name="dotlessi" xMin="58" yMin="0" xMax="166" yMax="569">
      <contour>
        <pt x="166" y="0" on="1"/>
        <pt x="58" y="0" on="1"/>
        <pt x="58" y="569" on="1"/>
        <pt x="166" y="569" on="1"/>
      </contour>
    </TTGlyph>
    <TTGlyph name="dottedcircle" xMin="44" yMin="30" xMax="616" yMax="604">
      <contour>
        <pt x="257" y="580" on="0"/>
        <pt x="282" y="604" on="0"/>
        <pt x="301" y="604" on="1"/>
        <pt x="321" y="604" on="0"/>
        <pt x="345" y="580" on="0"/>
        <pt x="345" y="560" on="1"/>
        <pt x="345" y="541" on="0"/>
        <pt x="321" y="516" on="0"/>
        <pt x="301" y="516" on="1"/>
        <pt x="282" y="516" on="0"/>
        <pt x="257" y="541" on="0"/>
        <pt x="257" y="560" on="1"/>
      </contour>
      <contour>
        <pt x="383" y="565" on="0"/>
        <pt x="409" y="590" on="0"/>
        <pt x="428" y="590" on="1"/>
        <pt x="447" y="590" on="0"/>
        <pt x="471" y="565" on="0"/>
        <pt x="471" y="545" on="1"/>
        <pt x="471" y="527" on="0"/>
        <pt x="446" y="501" on="0"/>
        <pt x="428" y="501" on="1"/>
        <pt x="409" y="501" on="0"/>
        <pt x="383" y="527" on="0"/>
        <pt x="383" y="545" on="1"/>
      </contour>
      <contour>
        <pt x="139" y="536" on="0"/>
        <pt x="164" y="561" on="0"/>
        <pt x="183" y="561" on="1"/>
        <pt x="202" y="561" on="0"/>
        <pt x="227" y="536" on="0"/>
        <pt x="227" y="517" on="1"/>
        <pt x="227" y="497" on="0"/>
        <pt x="202" y="472" on="0"/>
        <pt x="183" y="472" on="1"/>
        <pt x="164" y="472" on="0"/>
        <pt x="139" y="497" on="0"/>
        <pt x="139" y="517" on="1"/>
      </contour>
      <contour>
        <pt x="478" y="496" on="0"/>
        <pt x="503" y="522" on="0"/>
        <pt x="522" y="522" on="1"/>
        <pt x="541" y="522" on="0"/>
        <pt x="566" y="497" on="0"/>
        <pt x="566" y="477" on="1"/>
        <pt x="566" y="458" on="0"/>
        <pt x="541" y="433" on="0"/>
        <pt x="522" y="433" on="1"/>
        <pt x="503" y="433" on="0"/>
        <pt x="478" y="458" on="0"/>
        <pt x="478" y="477" on="1"/>
      </contour>
      <contour>
        <pt x="57" y="426" on="0"/>
        <pt x="83" y="451" on="0"/>
        <pt x="103" y="451" on="1"/>
        <pt x="121" y="451" on="0"/>
        <pt x="147" y="426" on="0"/>
        <pt x="147" y="407" on="1"/>
        <pt x="147" y="388" on="0"/>
        <pt x="121" y="363" on="0"/>
        <pt x="103" y="363" on="1"/>
        <pt x="83" y="363" on="0"/>
        <pt x="57" y="388" on="0"/>
        <pt x="57" y="407" on="1"/>
      </contour>
      <contour>
        <pt x="528" y="379" on="0"/>
        <pt x="553" y="403" on="0"/>
        <pt x="572" y="403" on="1"/>
        <pt x="591" y="403" on="0"/>
        <pt x="616" y="378" on="0"/>
        <pt x="616" y="359" on="1"/>
        <pt x="616" y="340" on="0"/>
        <pt x="591" y="315" on="0"/>
        <pt x="572" y="315" on="1"/>
        <pt x="553" y="315" on="0"/>
        <pt x="528" y="340" on="0"/>
        <pt x="528" y="359" on="1"/>
      </contour>
      <contour>
        <pt x="44" y="300" on="0"/>
        <pt x="69" y="326" on="0"/>
        <pt x="88" y="326" on="1"/>
        <pt x="107" y="326" on="0"/>
        <pt x="132" y="301" on="0"/>
        <pt x="132" y="281" on="1"/>
        <pt x="132" y="262" on="0"/>
        <pt x="107" y="238" on="0"/>
        <pt x="88" y="238" on="1"/>
        <pt x="69" y="238" on="0"/>
        <pt x="44" y="262" on="0"/>
        <pt x="44" y="281" on="1"/>
      </contour>
      <contour>
        <pt x="518" y="245" on="0"/>
        <pt x="544" y="270" on="0"/>
        <pt x="563" y="270" on="1"/>
        <pt x="581" y="270" on="0"/>
        <pt x="606" y="244" on="0"/>
        <pt x="606" y="225" on="1"/>
        <pt x="606" y="206" on="0"/>
        <pt x="581" y="181" on="0"/>
        <pt x="563" y="181" on="1"/>
        <pt x="544" y="181" on="0"/>
        <pt x="518" y="206" on="0"/>
        <pt x="518" y="225" on="1"/>
      </contour>
      <contour>
        <pt x="96" y="184" on="0"/>
        <pt x="121" y="209" on="0"/>
        <pt x="140" y="209" on="1"/>
        <pt x="159" y="209" on="0"/>
        <pt x="184" y="184" on="0"/>
        <pt x="184" y="165" on="1"/>
        <pt x="184" y="146" on="0"/>
        <pt x="159" y="121" on="0"/>
        <pt x="140" y="121" on="1"/>
        <pt x="121" y="121" on="0"/>
        <pt x="96" y="146" on="0"/>
        <pt x="96" y="165" on="1"/>
      </contour>
      <contour>
        <pt x="445" y="146" on="0"/>
        <pt x="470" y="171" on="0"/>
        <pt x="489" y="171" on="1"/>
        <pt x="508" y="171" on="0"/>
        <pt x="534" y="146" on="0"/>
        <pt x="534" y="127" on="1"/>
        <pt x="534" y="108" on="0"/>
        <pt x="508" y="83" on="0"/>
        <pt x="489" y="83" on="1"/>
        <pt x="470" y="83" on="0"/>
        <pt x="445" y="108" on="0"/>
        <pt x="445" y="127" on="1"/>
      </contour>
      <contour>
        <pt x="197" y="108" on="0"/>
        <pt x="223" y="134" on="0"/>
        <pt x="242" y="134" on="1"/>
        <pt x="261" y="134" on="0"/>
        <pt x="286" y="108" on="0"/>
        <pt x="286" y="90" on="1"/>
        <pt x="286" y="70" on="0"/>
        <pt x="261" y="44" on="0"/>
        <pt x="242" y="44" on="1"/>
        <pt x="223" y="44" on="0"/>
        <pt x="197" y="70" on="0"/>
        <pt x="197" y="90" on="1"/>
      </contour>
      <contour>
        <pt x="324" y="94" on="0"/>
        <pt x="349" y="118" on="0"/>
        <pt x="368" y="118" on="1"/>
        <pt x="388" y="118" on="0"/>
        <pt x="413" y="93" on="0"/>
        <pt x="413" y="74" on="1"/>
        <pt x="413" y="55" on="0"/>
        <pt x="388" y="30" on="0"/>
        <pt x="368" y="30" on="1"/>
        <pt x="349" y="30" on="0"/>
        <pt x="324" y="55" on="0"/>
        <pt x="324" y="74" on="1"/>
      </contour>
    </TTGlyph>
    <TTGlyph name="doubledanda" xMin="79" yMin="0" xMax="386" yMax="660">
      <contour>
        <pt x="179" y="660" on="1"/>
        <pt x="179" y="0" on="1"/>
        <pt x="79" y="0" on="1"/>
        <pt x="79" y="660" on="1"/>
      </contour>
      <contour>
        <pt x="386" y="660" on="1"/>
        <pt x="386" y="0" on="1"/>
        <pt x="286" y="0" on="1"/>
        <pt x="286" y="660" on="1"/>
      </contour>
    </TTGlyph>
    <TTGlyph name="dvA" xMin="39" yMin="0" xMax="615" yMax="665">
      <contour>
        <pt x="615" y="660" on="1"/>
        <pt x="615" y="575" on="1"/>
        <pt x="526" y="575" on="1"/>
        <pt x="526" y="0" on="1"/>
        <pt x="426" y="0" on="1"/>
        <pt x="426" y="213" on="1"/>
        <pt x="330" y="213" on="1"/>
        <pt x="330" y="187" on="1"/>
        <pt x="330" y="115" on="0"/>
        <pt x="241" y="35" on="0"/>
        <pt x="147" y="35" on="1"/>
        <pt x="88" y="35" on="0"/>
        <pt x="39" y="49" on="1"/>
        <pt x="39" y="141" on="1"/>
        <pt x="94" y="126" on="0"/>
        <pt x="147" y="126" on="1"/>
        <pt x="192" y="126" on="0"/>
        <pt x="231" y="159" on="0"/>
        <pt x="232" y="191" on="1"/>
        <pt x="232" y="248" on="1"/>
        <pt x="232" y="279" on="0"/>
        <pt x="202" y="312" on="0"/>
        <pt x="163" y="312" on="1"/>
        <pt x="103" y="312" on="1"/>
        <pt x="103" y="405" on="1"/>
        <pt x="163" y="405" on="1"/>
        <pt x="202" y="405" on="0"/>
        <pt x="232" y="436" on="0"/>
        <pt x="232" y="467" on="1"/>
        <pt x="232" y="509" on="1"/>
        <pt x="232" y="541" on="0"/>
        <pt x="192" y="573" on="0"/>
        <pt x="147" y="573" on="1"/>
        <pt x="98" y="573" on="0"/>
        <pt x="51" y="558" on="1"/>
        <pt x="51" y="651" on="1"/>
        <pt x="93" y="665" on="0"/>
        <pt x="148" y="665" on="1"/>
        <pt x="241" y="665" on="0"/>
        <pt x="330" y="585" on="0"/>
        <pt x="330" y="513" on="1"/>
        <pt x="330" y="467" on="1"/>
        <pt x="330" y="384" on="0"/>
        <pt x="283" y="359" on="1"/>
        <pt x="314" y="343" on="0"/>
        <pt x="324" y="299" on="1"/>
        <pt x="426" y="299" on="1"/>
        <pt x="426" y="660" on="1"/>
      </contour>
    </TTGlyph>
    <TTGlyph name="dvAA" xMin="52" yMin="0" xMax="844" yMax="665">
      <component glyphName="dvA" x="13" y="0" flags="0x0"/>
      <component glyphName="dvmAA" x="596" y="0" flags="0x0"/>
    </TTGlyph>
    <TTGlyph name="dvAI" xMin="-32" yMin="-5" xMax="465" yMax="889">
      <contour>
        <pt x="465" y="660" on="1"/>
        <pt x="465" y="575" on="1"/>
        <pt x="385" y="575" on="1"/>
        <pt x="385" y="400" on="1"/>
        <pt x="385" y="331" on="0"/>
        <pt x="320" y="259" on="0"/>
        <pt x="244" y="259" on="1"/>
        <pt x="237" y="259" on="0"/>
        <pt x="223" y="261" on="1"/>
        <pt x="223" y="353" on="1"/>
        <pt x="236" y="353" on="1"/>
        <pt x="265" y="353" on="0"/>
        <pt x="285" y="378" on="0"/>
        <pt x="285" y="405" on="1"/>
        <pt x="285" y="575" on="1"/>
        <pt x="155" y="575" on="1"/>
        <pt x="155" y="157" on="1"/>
        <pt x="155" y="122" on="0"/>
        <pt x="194" y="87" on="0"/>
        <pt x="241" y="87" on="1"/>
        <pt x="296" y="87" on="0"/>
        <pt x="364" y="106" on="1"/>
        <pt x="364" y="15" on="1"/>
        <pt x="310" y="-5" on="0"/>
        <pt x="238" y="-5" on="1"/>
        <pt x="144" y="-5" on="0"/>
        <pt x="55" y="74" on="0"/>
        <pt x="55" y="154" on="1"/>
        <pt x="55" y="575" on="1"/>
        <pt x="-32" y="575" on="1"/>
        <pt x="-32" y="660" on="1"/>
        <pt x="280" y="660" on="1"/>
        <pt x="115" y="889" on="1"/>
        <pt x="227" y="889" on="1"/>
        <pt x="382" y="660" on="1"/>
      </contour>
    </TTGlyph>
    <TTGlyph name="dvAU" xMin="52" yMin="0" xMax="845" yMax="889">
      <component glyphName="dvA" x="13" y="0" flags="0x0"/>
      <component glyphName="dvmAU" x="597" y="0" flags="0x0"/>
    </TTGlyph>
    <TTGlyph name="dvAbbreviationsign" xMin="47" yMin="170" xMax="358" yMax="489">
      <contour>
        <pt x="47" y="403" on="0"/>
        <pt x="122" y="489" on="0"/>
        <pt x="202" y="489" on="1"/>
        <pt x="283" y="489" on="0"/>
        <pt x="358" y="403" on="0"/>
        <pt x="358" y="329" on="1"/>
        <pt x="358" y="255" on="0"/>
        <pt x="283" y="170" on="0"/>
        <pt x="202" y="170" on="1"/>
        <pt x="122" y="170" on="0"/>
        <pt x="47" y="255" on="0"/>
        <pt x="47" y="329" on="1"/>
      </contour>
      <contour>
        <pt x="136" y="289" on="0"/>
        <pt x="164" y="252" on="0"/>
        <pt x="202" y="252" on="1"/>
        <pt x="240" y="252" on="0"/>
        <pt x="269" y="289" on="0"/>
        <pt x="269" y="328" on="1"/>
        <pt x="269" y="367" on="0"/>
        <pt x="240" y="406" on="0"/>
        <pt x="202" y="406" on="1"/>
        <pt x="164" y="406" on="0"/>
        <pt x="136" y="367" on="0"/>
        <pt x="136" y="328" on="1"/>
      </contour>
    </TTGlyph>
    <TTGlyph name="dvAcandra" xMin="39" yMin="0" xMax="660" yMax="869">
      <component glyphName="dvA" x="0" y="0" flags="0x0"/>
      <component glyphName="dvmEcandra" x="585" y="0" flags="0x0"/>
    </TTGlyph>
    <TTGlyph name="dvAnusvara" xMin="-166" yMin="727" xMax="-51" yMax="842">
      <contour>
        <pt x="-166" y="842" on="0"/>
        <pt x="-108" y="842" on="1"/>
        <pt x="-51" y="842" on="0"/>
        <pt x="-51" y="784" on="1"/>
        <pt x="-51" y="727" on="0"/>
        <pt x="-108" y="727" on="1"/>
        <pt x="-166" y="727" on="0"/>
        <pt x="-166" y="784" on="1"/>
      </contour>
    </TTGlyph>
    <TTGlyph name="dvAnusvara.amI" xMin="32" yMin="724" xMax="147" yMax="839">
      <component glyphName="dvAnusvara" x="198" y="-3" flags="0x4"/>
    </TTGlyph>
    <TTGlyph name="dvAvagraha" xMin="39" yMin="-5" xMax="389" yMax="660">
      <contour>
        <pt x="389" y="75" on="0"/>
        <pt x="308" y="-5" on="0"/>
        <pt x="221" y="-5" on="1"/>
        <pt x="209" y="-5" on="1"/>
        <pt x="40" y="-5" on="0"/>
        <pt x="40" y="151" on="1"/>
        <pt x="40" y="212" on="1"/>
        <pt x="140" y="212" on="1"/>
        <pt x="140" y="148" on="1"/>
        <pt x="140" y="120" on="0"/>
        <pt x="171" y="88" on="0"/>
        <pt x="212" y="88" on="1"/>
        <pt x="217" y="88" on="1"/>
        <pt x="258" y="88" on="0"/>
        <pt x="289" y="120" on="0"/>
        <pt x="289" y="148" on="1"/>
        <pt x="289" y="197" on="1"/>
        <pt x="289" y="225" on="0"/>
        <pt x="271" y="259" on="0"/>
        <pt x="246" y="275" on="1"/>
        <pt x="116" y="357" on="1"/>
        <pt x="39" y="404" on="0"/>
        <pt x="39" y="493" on="1"/>
        <pt x="39" y="520" on="1"/>
        <pt x="39" y="590" on="0"/>
        <pt x="111" y="660" on="0"/>
        <pt x="194" y="660" on="1"/>
        <pt x="365" y="660" on="1"/>
        <pt x="365" y="567" on="1"/>
        <pt x="201" y="567" on="1"/>
        <pt x="163" y="567" on="0"/>
        <pt x="139" y="541" on="0"/>
        <pt x="139" y="515" on="1"/>
        <pt x="139" y="497" on="1"/>
        <pt x="139" y="472" on="0"/>
        <pt x="158" y="438" on="0"/>
        <pt x="183" y="423" on="1"/>
        <pt x="311" y="342" on="1"/>
        <pt x="357" y="313" on="0"/>
        <pt x="389" y="247" on="0"/>
        <pt x="389" y="195" on="1"/>
        <pt x="389" y="151" on="1"/>
      </contour>
    </TTGlyph>
    <TTGlyph name="dvB" xMin="-32" yMin="62" xMax="398" yMax="660">
      <contour>
        <pt x="398" y="575" on="1"/>
        <pt x="-32" y="575" on="1"/>
        <pt x="-32" y="660" on="1"/>
        <pt x="398" y="660" on="1"/>
      </contour>
      <contour>
        <pt x="38" y="429" on="0"/>
        <pt x="121" y="506" on="0"/>
        <pt x="214" y="506" on="1"/>
        <pt x="303" y="506" on="0"/>
        <pt x="387" y="429" on="0"/>
        <pt x="387" y="353" on="1"/>
        <pt x="387" y="214" on="1"/>
        <pt x="387" y="138" on="0"/>
        <pt x="303" y="62" on="0"/>
        <pt x="214" y="62" on="1"/>
        <pt x="38" y="62" on="0"/>
        <pt x="38" y="214" on="1"/>
        <pt x="38" y="353" on="1"/>
      </contour>
      <contour>
        <pt x="297" y="385" on="0"/>
        <pt x="260" y="421" on="0"/>
        <pt x="216" y="421" on="1"/>
        <pt x="166" y="421" on="0"/>
        <pt x="147" y="396" on="1"/>
        <pt x="297" y="239" on="1"/>
        <pt x="297" y="349" on="1"/>
      </contour>
      <contour>
        <pt x="134" y="182" on="0"/>
        <pt x="171" y="146" on="0"/>
        <pt x="216" y="146" on="1"/>
        <pt x="267" y="146" on="0"/>
        <pt x="285" y="172" on="1"/>
        <pt x="134" y="330" on="1"/>
        <pt x="134" y="218" on="1"/>
      </contour>
    </TTGlyph>
    <TTGlyph name="dvBA" xMin="-32" yMin="0" xMax="475" yMax="660">
      <contour>
        <pt x="475" y="660" on="1"/>
        <pt x="475" y="575" on="1"/>
        <pt x="386" y="575" on="1"/>
        <pt x="386" y="0" on="1"/>
        <pt x="291" y="0" on="1"/>
        <pt x="291" y="72" on="1"/>
        <pt x="256" y="62" on="0"/>
        <pt x="212" y="62" on="1"/>
        <pt x="126" y="62" on="0"/>
        <pt x="38" y="133" on="0"/>
        <pt x="38" y="210" on="1"/>
        <pt x="38" y="358" on="1"/>
        <pt x="38" y="436" on="0"/>
        <pt x="123" y="506" on="0"/>
        <pt x="208" y="506" on="1"/>
        <pt x="255" y="506" on="0"/>
        <pt x="291" y="493" on="1"/>
        <pt x="291" y="575" on="1"/>
        <pt x="-32" y="575" on="1"/>
        <pt x="-32" y="660" on="1"/>
      </contour>
      <contour>
        <pt x="158" y="421" on="0"/>
        <pt x="140" y="387" on="1"/>
        <pt x="291" y="256" on="1"/>
        <pt x="291" y="409" on="1"/>
        <pt x="259" y="421" on="0"/>
        <pt x="217" y="421" on="1"/>
      </contour>
      <contour>
        <pt x="247" y="146" on="0"/>
        <pt x="287" y="154" on="0"/>
        <pt x="291" y="155" on="1"/>
        <pt x="291" y="181" on="1"/>
        <pt x="134" y="320" on="1"/>
        <pt x="134" y="214" on="1"/>
        <pt x="134" y="146" on="0"/>
        <pt x="217" y="146" on="1"/>
      </contour>
    </TTGlyph>
    <TTGlyph name="dvBH" xMin="41" yMin="58" xMax="502" yMax="665">
      <contour>
        <pt x="349" y="329" on="1"/>
        <pt x="349" y="194" on="1"/>
        <pt x="349" y="58" on="0"/>
        <pt x="195" y="58" on="1"/>
        <pt x="41" y="58" on="0"/>
        <pt x="41" y="194" on="1"/>
        <pt x="41" y="279" on="1"/>
        <pt x="41" y="345" on="0"/>
        <pt x="115" y="414" on="0"/>
        <pt x="195" y="414" on="1"/>
        <pt x="252" y="414" on="1"/>
        <pt x="252" y="518" on="1"/>
        <pt x="252" y="545" on="0"/>
        <pt x="231" y="572" on="0"/>
        <pt x="198" y="572" on="1"/>
        <pt x="165" y="572" on="0"/>
        <pt x="144" y="545" on="0"/>
        <pt x="144" y="518" on="1"/>
        <pt x="144" y="506" on="0"/>
        <pt x="147" y="480" on="0"/>
        <pt x="148" y="476" on="1"/>
        <pt x="48" y="476" on="1"/>
        <pt x="47" y="480" on="0"/>
        <pt x="44" y="507" on="0"/>
        <pt x="44" y="521" on="1"/>
        <pt x="44" y="665" on="0"/>
        <pt x="198" y="665" on="1"/>
        <pt x="352" y="665" on="0"/>
        <pt x="352" y="521" on="1"/>
        <pt x="352" y="414" on="1"/>
        <pt x="502" y="414" on="1"/>
        <pt x="502" y="329" on="1"/>
      </contour>
      <contour>
        <pt x="195" y="329" on="1"/>
        <pt x="161" y="329" on="0"/>
        <pt x="138" y="304" on="0"/>
        <pt x="138" y="277" on="1"/>
        <pt x="138" y="196" on="1"/>
        <pt x="138" y="170" on="0"/>
        <pt x="161" y="144" on="0"/>
        <pt x="195" y="144" on="1"/>
        <pt x="229" y="144" on="0"/>
        <pt x="252" y="169" on="0"/>
        <pt x="252" y="196" on="1"/>
        <pt x="252" y="329" on="1"/>
      </contour>
    </TTGlyph>
    <TTGlyph name="dvBHA" xMin="42" yMin="0" xMax="647" yMax="665">
      <contour>
        <pt x="253" y="545" on="0"/>
        <pt x="231" y="572" on="0"/>
        <pt x="199" y="572" on="1"/>
        <pt x="166" y="572" on="0"/>
        <pt x="145" y="545" on="0"/>
        <pt x="145" y="518" on="1"/>
        <pt x="145" y="506" on="0"/>
        <pt x="148" y="480" on="0"/>
        <pt x="149" y="476" on="1"/>
        <pt x="48" y="476" on="1"/>
        <pt x="47" y="480" on="0"/>
        <pt x="44" y="509" on="0"/>
        <pt x="44" y="521" on="1"/>
        <pt x="44" y="665" on="0"/>
        <pt x="199" y="665" on="1"/>
        <pt x="353" y="665" on="0"/>
        <pt x="353" y="521" on="1"/>
        <pt x="353" y="414" on="1"/>
        <pt x="458" y="414" on="1"/>
        <pt x="458" y="660" on="1"/>
        <pt x="647" y="660" on="1"/>
        <pt x="647" y="575" on="1"/>
        <pt x="558" y="575" on="1"/>
        <pt x="558" y="0" on="1"/>
        <pt x="458" y="0" on="1"/>
        <pt x="458" y="329" on="1"/>
        <pt x="349" y="329" on="1"/>
        <pt x="349" y="194" on="1"/>
        <pt x="349" y="127" on="0"/>
        <pt x="276" y="58" on="0"/>
        <pt x="196" y="58" on="1"/>
        <pt x="116" y="58" on="0"/>
        <pt x="42" y="127" on="0"/>
        <pt x="42" y="194" on="1"/>
        <pt x="42" y="279" on="1"/>
        <pt x="42" y="346" on="0"/>
        <pt x="116" y="414" on="0"/>
        <pt x="196" y="414" on="1"/>
        <pt x="253" y="414" on="1"/>
        <pt x="253" y="518" on="1"/>
      </contour>
      <contour>
        <pt x="196" y="329" on="1"/>
        <pt x="162" y="329" on="0"/>
        <pt x="139" y="304" on="0"/>
        <pt x="139" y="277" on="1"/>
        <pt x="139" y="196" on="1"/>
        <pt x="139" y="170" on="0"/>
        <pt x="162" y="144" on="0"/>
        <pt x="196" y="144" on="1"/>
        <pt x="230" y="144" on="0"/>
        <pt x="253" y="169" on="0"/>
        <pt x="253" y="196" on="1"/>
        <pt x="253" y="329" on="1"/>
      </contour>
    </TTGlyph>
    <TTGlyph name="dvBH_LA" xMin="41" yMin="0" xMax="1075" yMax="665">
      <contour>
        <pt x="1075" y="660" on="1"/>
        <pt x="1075" y="575" on="1"/>
        <pt x="986" y="575" on="1"/>
        <pt x="986" y="0" on="1"/>
        <pt x="886" y="0" on="1"/>
        <pt x="886" y="384" on="1"/>
        <pt x="866" y="394" on="0"/>
        <pt x="832" y="394" on="1"/>
        <pt x="769" y="394" on="0"/>
        <pt x="769" y="339" on="1"/>
        <pt x="769" y="209" on="1"/>
        <pt x="669" y="209" on="1"/>
        <pt x="669" y="339" on="1"/>
        <pt x="669" y="365" on="0"/>
        <pt x="644" y="394" on="0"/>
        <pt x="611" y="394" on="1"/>
        <pt x="577" y="394" on="0"/>
        <pt x="552" y="365" on="0"/>
        <pt x="552" y="338" on="1"/>
        <pt x="552" y="170" on="1"/>
        <pt x="552" y="132" on="0"/>
        <pt x="589" y="92" on="0"/>
        <pt x="640" y="92" on="1"/>
        <pt x="674" y="92" on="0"/>
        <pt x="698" y="95" on="1"/>
        <pt x="698" y="4" on="1"/>
        <pt x="666" y="0" on="0"/>
        <pt x="635" y="0" on="1"/>
        <pt x="540" y="0" on="0"/>
        <pt x="452" y="84" on="0"/>
        <pt x="452" y="167" on="1"/>
        <pt x="452" y="329" on="1"/>
        <pt x="349" y="329" on="1"/>
        <pt x="349" y="194" on="1"/>
        <pt x="349" y="58" on="0"/>
        <pt x="195" y="58" on="1"/>
        <pt x="41" y="58" on="0"/>
        <pt x="41" y="194" on="1"/>
        <pt x="41" y="279" on="1"/>
        <pt x="41" y="345" on="0"/>
        <pt x="115" y="414" on="0"/>
        <pt x="195" y="414" on="1"/>
        <pt x="252" y="414" on="1"/>
        <pt x="252" y="518" on="1"/>
        <pt x="252" y="545" on="0"/>
        <pt x="231" y="572" on="0"/>
        <pt x="198" y="572" on="1"/>
        <pt x="165" y="572" on="0"/>
        <pt x="144" y="545" on="0"/>
        <pt x="144" y="518" on="1"/>
        <pt x="144" y="506" on="0"/>
        <pt x="147" y="480" on="0"/>
        <pt x="148" y="476" on="1"/>
        <pt x="48" y="476" on="1"/>
        <pt x="47" y="480" on="0"/>
        <pt x="44" y="507" on="0"/>
        <pt x="44" y="521" on="1"/>
        <pt x="44" y="665" on="0"/>
        <pt x="198" y="665" on="1"/>
        <pt x="352" y="665" on="0"/>
        <pt x="352" y="521" on="1"/>
        <pt x="352" y="414" on="1"/>
        <pt x="467" y="414" on="1"/>
        <pt x="484" y="449" on="0"/>
        <pt x="555" y="486" on="0"/>
        <pt x="608" y="486" on="1"/>
        <pt x="650" y="486" on="0"/>
        <pt x="704" y="458" on="0"/>
        <pt x="717" y="436" on="1"/>
        <pt x="753" y="486" on="0"/>
        <pt x="824" y="486" on="1"/>
        <pt x="862" y="486" on="0"/>
        <pt x="886" y="476" on="1"/>
        <pt x="886" y="575" on="1"/>
        <pt x="408" y="575" on="1"/>
        <pt x="408" y="660" on="1"/>
      </contour>
      <contour>
        <pt x="252" y="329" on="1"/>
        <pt x="195" y="329" on="1"/>
        <pt x="161" y="329" on="0"/>
        <pt x="138" y="304" on="0"/>
        <pt x="138" y="277" on="1"/>
        <pt x="138" y="196" on="1"/>
        <pt x="138" y="170" on="0"/>
        <pt x="161" y="144" on="0"/>
        <pt x="195" y="144" on="1"/>
        <pt x="229" y="144" on="0"/>
        <pt x="252" y="169" on="0"/>
        <pt x="252" y="196" on="1"/>
      </contour>
    </TTGlyph>
    <TTGlyph name="dvBH_NA" xMin="41" yMin="0" xMax="1030" yMax="665">
      <contour>
        <pt x="1030" y="660" on="1"/>
        <pt x="1030" y="575" on="1"/>
        <pt x="940" y="575" on="1"/>
        <pt x="940" y="0" on="1"/>
        <pt x="840" y="0" on="1"/>
        <pt x="840" y="393" on="1"/>
        <pt x="737" y="393" on="1"/>
        <pt x="746" y="357" on="0"/>
        <pt x="746" y="329" on="1"/>
        <pt x="746" y="198" on="1"/>
        <pt x="746" y="128" on="0"/>
        <pt x="674" y="57" on="0"/>
        <pt x="597" y="57" on="1"/>
        <pt x="520" y="57" on="0"/>
        <pt x="447" y="128" on="0"/>
        <pt x="447" y="198" on="1"/>
        <pt x="447" y="329" on="1"/>
        <pt x="349" y="329" on="1"/>
        <pt x="349" y="194" on="1"/>
        <pt x="349" y="58" on="0"/>
        <pt x="195" y="58" on="1"/>
        <pt x="41" y="58" on="0"/>
        <pt x="41" y="194" on="1"/>
        <pt x="41" y="279" on="1"/>
        <pt x="41" y="345" on="0"/>
        <pt x="115" y="414" on="0"/>
        <pt x="195" y="414" on="1"/>
        <pt x="252" y="414" on="1"/>
        <pt x="252" y="518" on="1"/>
        <pt x="252" y="545" on="0"/>
        <pt x="231" y="572" on="0"/>
        <pt x="198" y="572" on="1"/>
        <pt x="165" y="572" on="0"/>
        <pt x="144" y="545" on="0"/>
        <pt x="144" y="518" on="1"/>
        <pt x="144" y="505" on="0"/>
        <pt x="147" y="480" on="0"/>
        <pt x="148" y="476" on="1"/>
        <pt x="48" y="476" on="1"/>
        <pt x="47" y="480" on="0"/>
        <pt x="44" y="506" on="0"/>
        <pt x="44" y="521" on="1"/>
        <pt x="44" y="665" on="0"/>
        <pt x="198" y="665" on="1"/>
        <pt x="352" y="665" on="0"/>
        <pt x="352" y="521" on="1"/>
        <pt x="352" y="414" on="1"/>
        <pt x="459" y="414" on="1"/>
        <pt x="490" y="485" on="0"/>
        <pt x="597" y="485" on="1"/>
        <pt x="840" y="485" on="1"/>
        <pt x="840" y="575" on="1"/>
        <pt x="413" y="575" on="1"/>
        <pt x="413" y="660" on="1"/>
      </contour>
      <contour>
        <pt x="651" y="326" on="1"/>
        <pt x="651" y="363" on="0"/>
        <pt x="641" y="393" on="1"/>
        <pt x="597" y="393" on="1"/>
        <pt x="567" y="393" on="0"/>
        <pt x="543" y="367" on="0"/>
        <pt x="543" y="341" on="1"/>
        <pt x="543" y="199" on="1"/>
        <pt x="543" y="173" on="0"/>
        <pt x="567" y="147" on="0"/>
        <pt x="597" y="147" on="1"/>
        <pt x="627" y="147" on="0"/>
        <pt x="651" y="173" on="0"/>
        <pt x="651" y="199" on="1"/>
      </contour>
      <contour>
        <pt x="252" y="329" on="1"/>
        <pt x="195" y="329" on="1"/>
        <pt x="161" y="329" on="0"/>
        <pt x="138" y="304" on="0"/>
        <pt x="138" y="277" on="1"/>
        <pt x="138" y="196" on="1"/>
        <pt x="138" y="170" on="0"/>
        <pt x="161" y="144" on="0"/>
        <pt x="195" y="144" on="1"/>
        <pt x="229" y="144" on="0"/>
        <pt x="252" y="169" on="0"/>
        <pt x="252" y="196" on="1"/>
      </contour>
    </TTGlyph>
    <TTGlyph name="dvBH_R" xMin="44" yMin="-52" xMax="506" yMax="665">
      <contour>
        <pt x="352" y="352" on="1"/>
        <pt x="352" y="261" on="1"/>
        <pt x="352" y="125" on="0"/>
        <pt x="199" y="125" on="1"/>
        <pt x="44" y="125" on="0"/>
        <pt x="44" y="261" on="1"/>
        <pt x="44" y="303" on="1"/>
        <pt x="44" y="369" on="0"/>
        <pt x="119" y="437" on="0"/>
        <pt x="199" y="437" on="1"/>
        <pt x="256" y="437" on="1"/>
        <pt x="256" y="518" on="1"/>
        <pt x="256" y="545" on="0"/>
        <pt x="234" y="572" on="0"/>
        <pt x="202" y="572" on="1"/>
        <pt x="169" y="572" on="0"/>
        <pt x="147" y="545" on="0"/>
        <pt x="147" y="518" on="1"/>
        <pt x="147" y="507" on="0"/>
        <pt x="150" y="488" on="0"/>
        <pt x="151" y="485" on="1"/>
        <pt x="51" y="485" on="1"/>
        <pt x="50" y="488" on="0"/>
        <pt x="47" y="510" on="0"/>
        <pt x="47" y="521" on="1"/>
        <pt x="47" y="665" on="0"/>
        <pt x="202" y="665" on="1"/>
        <pt x="356" y="665" on="0"/>
        <pt x="356" y="521" on="1"/>
        <pt x="356" y="437" on="1"/>
        <pt x="506" y="437" on="1"/>
        <pt x="506" y="352" on="1"/>
      </contour>
      <contour>
        <pt x="199" y="352" on="1"/>
        <pt x="165" y="352" on="0"/>
        <pt x="141" y="327" on="0"/>
        <pt x="141" y="300" on="1"/>
        <pt x="141" y="264" on="1"/>
        <pt x="141" y="237" on="0"/>
        <pt x="165" y="212" on="0"/>
        <pt x="199" y="212" on="1"/>
        <pt x="233" y="212" on="0"/>
        <pt x="256" y="237" on="0"/>
        <pt x="256" y="264" on="1"/>
        <pt x="256" y="352" on="1"/>
      </contour>
      <contour>
        <pt x="492" y="165" on="0"/>
        <pt x="430" y="73" on="0"/>
        <pt x="399" y="38" on="1"/>
        <pt x="319" y="-52" on="1"/>
        <pt x="198" y="-52" on="1"/>
        <pt x="506" y="299" on="1"/>
        <pt x="506" y="192" on="1"/>
      </contour>
    </TTGlyph>
    <TTGlyph name="dvBH_RA" xMin="44" yMin="-52" xMax="651" yMax="665">
      <contour>
        <pt x="352" y="352" on="1"/>
        <pt x="352" y="261" on="1"/>
        <pt x="352" y="125" on="0"/>
        <pt x="199" y="125" on="1"/>
        <pt x="44" y="125" on="0"/>
        <pt x="44" y="261" on="1"/>
        <pt x="44" y="303" on="1"/>
        <pt x="44" y="369" on="0"/>
        <pt x="119" y="437" on="0"/>
        <pt x="199" y="437" on="1"/>
        <pt x="256" y="437" on="1"/>
        <pt x="256" y="518" on="1"/>
        <pt x="256" y="545" on="0"/>
        <pt x="234" y="572" on="0"/>
        <pt x="202" y="572" on="1"/>
        <pt x="169" y="572" on="0"/>
        <pt x="147" y="545" on="0"/>
        <pt x="147" y="518" on="1"/>
        <pt x="147" y="506" on="0"/>
        <pt x="149" y="487" on="0"/>
        <pt x="150" y="485" on="1"/>
        <pt x="50" y="485" on="1"/>
        <pt x="49" y="488" on="0"/>
        <pt x="47" y="508" on="0"/>
        <pt x="47" y="521" on="1"/>
        <pt x="47" y="665" on="0"/>
        <pt x="202" y="665" on="1"/>
        <pt x="356" y="665" on="0"/>
        <pt x="356" y="521" on="1"/>
        <pt x="356" y="437" on="1"/>
        <pt x="462" y="437" on="1"/>
        <pt x="462" y="660" on="1"/>
        <pt x="651" y="660" on="1"/>
        <pt x="651" y="575" on="1"/>
        <pt x="562" y="575" on="1"/>
        <pt x="562" y="-5" on="1"/>
        <pt x="468" y="-5" on="1"/>
        <pt x="468" y="13" on="1"/>
        <pt x="468" y="88" on="0"/>
        <pt x="475" y="146" on="1"/>
        <pt x="474" y="146" on="1"/>
        <pt x="469" y="130" on="0"/>
        <pt x="430" y="70" on="0"/>
        <pt x="395" y="33" on="1"/>
        <pt x="319" y="-52" on="1"/>
        <pt x="198" y="-52" on="1"/>
        <pt x="462" y="248" on="1"/>
        <pt x="462" y="352" on="1"/>
      </contour>
      <contour>
        <pt x="199" y="352" on="1"/>
        <pt x="165" y="352" on="0"/>
        <pt x="141" y="327" on="0"/>
        <pt x="141" y="300" on="1"/>
        <pt x="141" y="264" on="1"/>
        <pt x="141" y="237" on="0"/>
        <pt x="165" y="212" on="0"/>
        <pt x="199" y="212" on="1"/>
        <pt x="233" y="212" on="0"/>
        <pt x="256" y="237" on="0"/>
        <pt x="256" y="264" on="1"/>
        <pt x="256" y="352" on="1"/>
      </contour>
    </TTGlyph>
    <TTGlyph name="dvBH_R_YA" xMin="42" yMin="-52" xMax="954" yMax="665">
      <contour>
        <pt x="954" y="660" on="1"/>
        <pt x="954" y="575" on="1"/>
        <pt x="865" y="575" on="1"/>
        <pt x="865" y="0" on="1"/>
        <pt x="765" y="0" on="1"/>
        <pt x="765" y="111" on="1"/>
        <pt x="732" y="86" on="0"/>
        <pt x="661" y="86" on="1"/>
        <pt x="548" y="86" on="0"/>
        <pt x="495" y="142" on="1"/>
        <pt x="457" y="82" on="0"/>
        <pt x="417" y="38" on="1"/>
        <pt x="337" y="-52" on="1"/>
        <pt x="216" y="-52" on="1"/>
        <pt x="456" y="222" on="1"/>
        <pt x="453" y="242" on="0"/>
        <pt x="453" y="263" on="1"/>
        <pt x="453" y="339" on="1"/>
        <pt x="442" y="345" on="0"/>
        <pt x="414" y="345" on="1"/>
        <pt x="349" y="345" on="1"/>
        <pt x="349" y="260" on="1"/>
        <pt x="349" y="124" on="0"/>
        <pt x="196" y="124" on="1"/>
        <pt x="42" y="124" on="0"/>
        <pt x="42" y="260" on="1"/>
        <pt x="42" y="296" on="1"/>
        <pt x="42" y="363" on="0"/>
        <pt x="116" y="431" on="0"/>
        <pt x="196" y="431" on="1"/>
        <pt x="253" y="431" on="1"/>
        <pt x="253" y="518" on="1"/>
        <pt x="253" y="545" on="0"/>
        <pt x="231" y="572" on="0"/>
        <pt x="199" y="572" on="1"/>
        <pt x="166" y="572" on="0"/>
        <pt x="145" y="545" on="0"/>
        <pt x="145" y="518" on="1"/>
        <pt x="146" y="482" on="1"/>
        <pt x="46" y="482" on="1"/>
        <pt x="46" y="486" on="0"/>
        <pt x="44" y="510" on="0"/>
        <pt x="44" y="521" on="1"/>
        <pt x="44" y="665" on="0"/>
        <pt x="199" y="665" on="1"/>
        <pt x="353" y="665" on="0"/>
        <pt x="353" y="521" on="1"/>
        <pt x="353" y="431" on="1"/>
        <pt x="422" y="431" on="1"/>
        <pt x="501" y="431" on="0"/>
        <pt x="525" y="395" on="1"/>
        <pt x="553" y="400" on="0"/>
        <pt x="575" y="429" on="0"/>
        <pt x="575" y="460" on="1"/>
        <pt x="575" y="516" on="1"/>
        <pt x="575" y="575" on="0"/>
        <pt x="535" y="575" on="1"/>
        <pt x="408" y="575" on="1"/>
        <pt x="408" y="660" on="1"/>
      </contour>
      <contour>
        <pt x="765" y="575" on="1"/>
        <pt x="656" y="575" on="1"/>
        <pt x="663" y="572" on="0"/>
        <pt x="673" y="540" on="0"/>
        <pt x="673" y="516" on="1"/>
        <pt x="673" y="443" on="1"/>
        <pt x="673" y="326" on="0"/>
        <pt x="552" y="323" on="1"/>
        <pt x="552" y="274" on="1"/>
        <pt x="552" y="225" on="0"/>
        <pt x="605" y="179" on="0"/>
        <pt x="666" y="179" on="1"/>
        <pt x="709" y="179" on="0"/>
        <pt x="754" y="206" on="0"/>
        <pt x="765" y="236" on="1"/>
      </contour>
      <contour>
        <pt x="253" y="347" on="1"/>
        <pt x="196" y="347" on="1"/>
        <pt x="162" y="347" on="0"/>
        <pt x="139" y="322" on="0"/>
        <pt x="139" y="294" on="1"/>
        <pt x="139" y="264" on="1"/>
        <pt x="139" y="237" on="0"/>
        <pt x="162" y="212" on="0"/>
        <pt x="196" y="212" on="1"/>
        <pt x="230" y="212" on="0"/>
        <pt x="253" y="237" on="0"/>
        <pt x="253" y="264" on="1"/>
      </contour>
    </TTGlyph>
    <TTGlyph name="dvBH_VA" xMin="41" yMin="0" xMax="879" yMax="665">
      <contour>
        <pt x="879" y="660" on="1"/>
        <pt x="879" y="575" on="1"/>
        <pt x="789" y="575" on="1"/>
        <pt x="789" y="0" on="1"/>
        <pt x="689" y="0" on="1"/>
        <pt x="689" y="71" on="1"/>
        <pt x="646" y="61" on="0"/>
        <pt x="609" y="61" on="1"/>
        <pt x="528" y="61" on="0"/>
        <pt x="453" y="134" on="0"/>
        <pt x="453" y="206" on="1"/>
        <pt x="453" y="329" on="1"/>
        <pt x="349" y="329" on="1"/>
        <pt x="349" y="194" on="1"/>
        <pt x="349" y="58" on="0"/>
        <pt x="195" y="58" on="1"/>
        <pt x="41" y="58" on="0"/>
        <pt x="41" y="194" on="1"/>
        <pt x="41" y="279" on="1"/>
        <pt x="41" y="345" on="0"/>
        <pt x="115" y="414" on="0"/>
        <pt x="195" y="414" on="1"/>
        <pt x="252" y="414" on="1"/>
        <pt x="252" y="518" on="1"/>
        <pt x="252" y="545" on="0"/>
        <pt x="231" y="572" on="0"/>
        <pt x="198" y="572" on="1"/>
        <pt x="165" y="572" on="0"/>
        <pt x="144" y="545" on="0"/>
        <pt x="144" y="518" on="1"/>
        <pt x="144" y="506" on="0"/>
        <pt x="147" y="480" on="0"/>
        <pt x="148" y="476" on="1"/>
        <pt x="48" y="476" on="1"/>
        <pt x="47" y="480" on="0"/>
        <pt x="44" y="507" on="0"/>
        <pt x="44" y="521" on="1"/>
        <pt x="44" y="665" on="0"/>
        <pt x="198" y="665" on="1"/>
        <pt x="352" y="665" on="0"/>
        <pt x="352" y="521" on="1"/>
        <pt x="352" y="414" on="1"/>
        <pt x="460" y="414" on="1"/>
        <pt x="485" y="506" on="0"/>
        <pt x="609" y="506" on="1"/>
        <pt x="646" y="506" on="0"/>
        <pt x="689" y="496" on="1"/>
        <pt x="689" y="575" on="1"/>
        <pt x="413" y="575" on="1"/>
        <pt x="413" y="660" on="1"/>
      </contour>
      <contour>
        <pt x="693" y="411" on="1"/>
        <pt x="657" y="420" on="0"/>
        <pt x="624" y="420" on="1"/>
        <pt x="586" y="420" on="0"/>
        <pt x="550" y="388" on="0"/>
        <pt x="550" y="360" on="1"/>
        <pt x="550" y="208" on="1"/>
        <pt x="550" y="147" on="0"/>
        <pt x="624" y="147" on="1"/>
        <pt x="646" y="147" on="0"/>
        <pt x="684" y="153" on="0"/>
        <pt x="693" y="157" on="1"/>
      </contour>
      <contour>
        <pt x="252" y="329" on="1"/>
        <pt x="195" y="329" on="1"/>
        <pt x="161" y="329" on="0"/>
        <pt x="138" y="304" on="0"/>
        <pt x="138" y="277" on="1"/>
        <pt x="138" y="196" on="1"/>
        <pt x="138" y="170" on="0"/>
        <pt x="161" y="144" on="0"/>
        <pt x="195" y="144" on="1"/>
        <pt x="229" y="144" on="0"/>
        <pt x="252" y="169" on="0"/>
        <pt x="252" y="196" on="1"/>
      </contour>
    </TTGlyph>
    <TTGlyph name="dvBH_YA" xMin="42" yMin="0" xMax="954" yMax="665">
      <contour>
        <pt x="954" y="660" on="1"/>
        <pt x="954" y="575" on="1"/>
        <pt x="865" y="575" on="1"/>
        <pt x="865" y="0" on="1"/>
        <pt x="765" y="0" on="1"/>
        <pt x="765" y="96" on="1"/>
        <pt x="727" y="86" on="0"/>
        <pt x="667" y="86" on="1"/>
        <pt x="570" y="86" on="0"/>
        <pt x="453" y="173" on="0"/>
        <pt x="453" y="263" on="1"/>
        <pt x="453" y="328" on="1"/>
        <pt x="440" y="335" on="0"/>
        <pt x="413" y="335" on="1"/>
        <pt x="349" y="335" on="1"/>
        <pt x="349" y="194" on="1"/>
        <pt x="349" y="127" on="0"/>
        <pt x="276" y="58" on="0"/>
        <pt x="196" y="58" on="1"/>
        <pt x="116" y="58" on="0"/>
        <pt x="42" y="127" on="0"/>
        <pt x="42" y="194" on="1"/>
        <pt x="42" y="286" on="1"/>
        <pt x="42" y="352" on="0"/>
        <pt x="116" y="420" on="0"/>
        <pt x="196" y="420" on="1"/>
        <pt x="253" y="420" on="1"/>
        <pt x="253" y="518" on="1"/>
        <pt x="253" y="545" on="0"/>
        <pt x="231" y="572" on="0"/>
        <pt x="199" y="572" on="1"/>
        <pt x="166" y="572" on="0"/>
        <pt x="145" y="545" on="0"/>
        <pt x="145" y="518" on="1"/>
        <pt x="145" y="503" on="0"/>
        <pt x="147" y="480" on="0"/>
        <pt x="148" y="476" on="1"/>
        <pt x="48" y="476" on="1"/>
        <pt x="47" y="480" on="0"/>
        <pt x="44" y="507" on="0"/>
        <pt x="44" y="521" on="1"/>
        <pt x="44" y="665" on="0"/>
        <pt x="199" y="665" on="1"/>
        <pt x="353" y="665" on="0"/>
        <pt x="353" y="521" on="1"/>
        <pt x="353" y="420" on="1"/>
        <pt x="420" y="420" on="1"/>
        <pt x="490" y="420" on="0"/>
        <pt x="517" y="392" on="1"/>
        <pt x="549" y="396" on="0"/>
        <pt x="575" y="426" on="0"/>
        <pt x="575" y="458" on="1"/>
        <pt x="575" y="516" on="1"/>
        <pt x="575" y="541" on="0"/>
        <pt x="569" y="571" on="0"/>
        <pt x="568" y="575" on="1"/>
        <pt x="408" y="575" on="1"/>
        <pt x="408" y="660" on="1"/>
      </contour>
      <contour>
        <pt x="765" y="575" on="1"/>
        <pt x="666" y="575" on="1"/>
        <pt x="667" y="571" on="0"/>
        <pt x="673" y="539" on="0"/>
        <pt x="673" y="516" on="1"/>
        <pt x="673" y="441" on="1"/>
        <pt x="673" y="324" on="0"/>
        <pt x="552" y="321" on="1"/>
        <pt x="552" y="274" on="1"/>
        <pt x="552" y="226" on="0"/>
        <pt x="610" y="179" on="0"/>
        <pt x="671" y="179" on="1"/>
        <pt x="720" y="179" on="0"/>
        <pt x="765" y="188" on="1"/>
      </contour>
      <contour>
        <pt x="253" y="335" on="1"/>
        <pt x="196" y="335" on="1"/>
        <pt x="162" y="335" on="0"/>
        <pt x="139" y="310" on="0"/>
        <pt x="139" y="283" on="1"/>
        <pt x="139" y="196" on="1"/>
        <pt x="139" y="170" on="0"/>
        <pt x="162" y="144" on="0"/>
        <pt x="196" y="144" on="1"/>
        <pt x="230" y="144" on="0"/>
        <pt x="253" y="169" on="0"/>
        <pt x="253" y="196" on="1"/>
      </contour>
    </TTGlyph>
    <TTGlyph name="dvB_BA" xMin="-32" yMin="0" xMax="738" yMax="660">
      <contour>
        <pt x="738" y="575" on="1"/>
        <pt x="649" y="575" on="1"/>
        <pt x="649" y="0" on="1"/>
        <pt x="554" y="0" on="1"/>
        <pt x="554" y="72" on="1"/>
        <pt x="519" y="62" on="0"/>
        <pt x="475" y="62" on="1"/>
        <pt x="384" y="62" on="0"/>
        <pt x="341" y="101" on="1"/>
        <pt x="300" y="62" on="0"/>
        <pt x="217" y="62" on="1"/>
        <pt x="38" y="62" on="0"/>
        <pt x="38" y="214" on="1"/>
        <pt x="38" y="353" on="1"/>
        <pt x="38" y="429" on="0"/>
        <pt x="119" y="506" on="0"/>
        <pt x="209" y="506" on="1"/>
        <pt x="223" y="506" on="0"/>
        <pt x="247" y="503" on="0"/>
        <pt x="250" y="502" on="1"/>
        <pt x="250" y="418" on="1"/>
        <pt x="247" y="419" on="0"/>
        <pt x="229" y="421" on="0"/>
        <pt x="216" y="421" on="1"/>
        <pt x="153" y="421" on="0"/>
        <pt x="139" y="384" on="1"/>
        <pt x="301" y="255" on="1"/>
        <pt x="301" y="358" on="1"/>
        <pt x="301" y="436" on="0"/>
        <pt x="386" y="506" on="0"/>
        <pt x="471" y="506" on="1"/>
        <pt x="518" y="506" on="0"/>
        <pt x="554" y="493" on="1"/>
        <pt x="554" y="575" on="1"/>
        <pt x="-32" y="575" on="1"/>
        <pt x="-32" y="660" on="1"/>
        <pt x="738" y="660" on="1"/>
      </contour>
      <contour>
        <pt x="421" y="421" on="0"/>
        <pt x="403" y="387" on="1"/>
        <pt x="554" y="256" on="1"/>
        <pt x="554" y="409" on="1"/>
        <pt x="522" y="421" on="0"/>
        <pt x="480" y="421" on="1"/>
      </contour>
      <contour>
        <pt x="510" y="146" on="0"/>
        <pt x="550" y="154" on="0"/>
        <pt x="554" y="155" on="1"/>
        <pt x="554" y="181" on="1"/>
        <pt x="397" y="320" on="1"/>
        <pt x="397" y="214" on="1"/>
        <pt x="397" y="146" on="0"/>
        <pt x="480" y="146" on="1"/>
      </contour>
      <contour>
        <pt x="253" y="146" on="0"/>
        <pt x="290" y="165" on="0"/>
        <pt x="297" y="185" on="1"/>
        <pt x="134" y="317" on="1"/>
        <pt x="134" y="218" on="1"/>
        <pt x="134" y="182" on="0"/>
        <pt x="171" y="146" on="0"/>
        <pt x="218" y="146" on="1"/>
      </contour>
    </TTGlyph>
    <TTGlyph name="dvB_BHA" xMin="-32" yMin="0" xMax="903" yMax="665">
      <contour>
        <pt x="903" y="660" on="1"/>
        <pt x="903" y="575" on="1"/>
        <pt x="813" y="575" on="1"/>
        <pt x="813" y="0" on="1"/>
        <pt x="713" y="0" on="1"/>
        <pt x="713" y="329" on="1"/>
        <pt x="605" y="329" on="1"/>
        <pt x="605" y="194" on="1"/>
        <pt x="605" y="58" on="0"/>
        <pt x="451" y="58" on="1"/>
        <pt x="368" y="58" on="0"/>
        <pt x="330" y="96" on="1"/>
        <pt x="290" y="62" on="0"/>
        <pt x="214" y="62" on="1"/>
        <pt x="38" y="62" on="0"/>
        <pt x="38" y="214" on="1"/>
        <pt x="38" y="353" on="1"/>
        <pt x="38" y="429" on="0"/>
        <pt x="119" y="506" on="0"/>
        <pt x="209" y="506" on="1"/>
        <pt x="223" y="506" on="0"/>
        <pt x="247" y="503" on="0"/>
        <pt x="250" y="502" on="1"/>
        <pt x="250" y="418" on="1"/>
        <pt x="247" y="419" on="0"/>
        <pt x="229" y="421" on="0"/>
        <pt x="216" y="421" on="1"/>
        <pt x="153" y="421" on="0"/>
        <pt x="139" y="384" on="1"/>
        <pt x="297" y="258" on="1"/>
        <pt x="297" y="279" on="1"/>
        <pt x="297" y="345" on="0"/>
        <pt x="371" y="414" on="0"/>
        <pt x="451" y="414" on="1"/>
        <pt x="508" y="414" on="1"/>
        <pt x="508" y="518" on="1"/>
        <pt x="508" y="545" on="0"/>
        <pt x="487" y="572" on="0"/>
        <pt x="454" y="572" on="1"/>
        <pt x="421" y="572" on="0"/>
        <pt x="400" y="545" on="0"/>
        <pt x="400" y="518" on="1"/>
        <pt x="400" y="504" on="0"/>
        <pt x="402" y="480" on="0"/>
        <pt x="403" y="476" on="1"/>
        <pt x="303" y="476" on="1"/>
        <pt x="302" y="480" on="0"/>
        <pt x="300" y="505" on="0"/>
        <pt x="300" y="521" on="1"/>
        <pt x="300" y="665" on="0"/>
        <pt x="454" y="665" on="1"/>
        <pt x="608" y="665" on="0"/>
        <pt x="608" y="521" on="1"/>
        <pt x="608" y="414" on="1"/>
        <pt x="713" y="414" on="1"/>
        <pt x="713" y="660" on="1"/>
      </contour>
      <contour>
        <pt x="249" y="575" on="1"/>
        <pt x="-32" y="575" on="1"/>
        <pt x="-32" y="660" on="1"/>
        <pt x="249" y="660" on="1"/>
      </contour>
      <contour>
        <pt x="508" y="329" on="1"/>
        <pt x="451" y="329" on="1"/>
        <pt x="417" y="329" on="0"/>
        <pt x="394" y="304" on="0"/>
        <pt x="394" y="277" on="1"/>
        <pt x="394" y="196" on="1"/>
        <pt x="394" y="170" on="0"/>
        <pt x="417" y="144" on="0"/>
        <pt x="451" y="144" on="1"/>
        <pt x="485" y="144" on="0"/>
        <pt x="508" y="169" on="0"/>
        <pt x="508" y="196" on="1"/>
      </contour>
      <contour>
        <pt x="281" y="146" on="0"/>
        <pt x="293" y="188" on="1"/>
        <pt x="134" y="317" on="1"/>
        <pt x="134" y="218" on="1"/>
        <pt x="134" y="182" on="0"/>
        <pt x="171" y="146" on="0"/>
        <pt x="216" y="146" on="1"/>
      </contour>
    </TTGlyph>
    <TTGlyph name="dvB_BH_RA" xMin="-31" yMin="-52" xMax="903" yMax="665">
      <contour>
        <pt x="903" y="660" on="1"/>
        <pt x="903" y="575" on="1"/>
        <pt x="814" y="575" on="1"/>
        <pt x="814" y="-5" on="1"/>
        <pt x="720" y="-5" on="1"/>
        <pt x="720" y="13" on="1"/>
        <pt x="720" y="88" on="0"/>
        <pt x="727" y="146" on="1"/>
        <pt x="726" y="146" on="1"/>
        <pt x="721" y="130" on="0"/>
        <pt x="682" y="70" on="0"/>
        <pt x="647" y="33" on="1"/>
        <pt x="571" y="-52" on="1"/>
        <pt x="450" y="-52" on="1"/>
        <pt x="714" y="248" on="1"/>
        <pt x="714" y="352" on="1"/>
        <pt x="604" y="352" on="1"/>
        <pt x="604" y="261" on="1"/>
        <pt x="604" y="125" on="0"/>
        <pt x="451" y="125" on="1"/>
        <pt x="399" y="125" on="0"/>
        <pt x="362" y="141" on="1"/>
        <pt x="330" y="62" on="0"/>
        <pt x="214" y="62" on="1"/>
        <pt x="38" y="62" on="0"/>
        <pt x="38" y="214" on="1"/>
        <pt x="38" y="353" on="1"/>
        <pt x="38" y="429" on="0"/>
        <pt x="119" y="506" on="0"/>
        <pt x="209" y="506" on="1"/>
        <pt x="223" y="506" on="0"/>
        <pt x="247" y="503" on="0"/>
        <pt x="250" y="502" on="1"/>
        <pt x="250" y="418" on="1"/>
        <pt x="247" y="419" on="0"/>
        <pt x="229" y="421" on="0"/>
        <pt x="216" y="421" on="1"/>
        <pt x="153" y="421" on="0"/>
        <pt x="139" y="384" on="1"/>
        <pt x="296" y="259" on="1"/>
        <pt x="296" y="261" on="1"/>
        <pt x="296" y="303" on="1"/>
        <pt x="296" y="369" on="0"/>
        <pt x="371" y="437" on="0"/>
        <pt x="451" y="437" on="1"/>
        <pt x="508" y="437" on="1"/>
        <pt x="508" y="518" on="1"/>
        <pt x="508" y="545" on="0"/>
        <pt x="486" y="572" on="0"/>
        <pt x="454" y="572" on="1"/>
        <pt x="421" y="572" on="0"/>
        <pt x="399" y="545" on="0"/>
        <pt x="399" y="518" on="1"/>
        <pt x="399" y="506" on="0"/>
        <pt x="401" y="487" on="0"/>
        <pt x="402" y="485" on="1"/>
        <pt x="302" y="485" on="1"/>
        <pt x="301" y="488" on="0"/>
        <pt x="299" y="508" on="0"/>
        <pt x="299" y="521" on="1"/>
        <pt x="299" y="665" on="0"/>
        <pt x="454" y="665" on="1"/>
        <pt x="608" y="665" on="0"/>
        <pt x="608" y="521" on="1"/>
        <pt x="608" y="437" on="1"/>
        <pt x="714" y="437" on="1"/>
        <pt x="714" y="660" on="1"/>
      </contour>
      <contour>
        <pt x="251" y="575" on="1"/>
        <pt x="-31" y="575" on="1"/>
        <pt x="-31" y="660" on="1"/>
        <pt x="251" y="660" on="1"/>
      </contour>
      <contour>
        <pt x="508" y="352" on="1"/>
        <pt x="451" y="352" on="1"/>
        <pt x="417" y="352" on="0"/>
        <pt x="393" y="327" on="0"/>
        <pt x="393" y="300" on="1"/>
        <pt x="393" y="264" on="1"/>
        <pt x="393" y="237" on="0"/>
        <pt x="417" y="212" on="0"/>
        <pt x="451" y="212" on="1"/>
        <pt x="485" y="212" on="0"/>
        <pt x="508" y="237" on="0"/>
        <pt x="508" y="264" on="1"/>
      </contour>
      <contour>
        <pt x="281" y="146" on="0"/>
        <pt x="293" y="188" on="1"/>
        <pt x="134" y="317" on="1"/>
        <pt x="134" y="218" on="1"/>
        <pt x="134" y="182" on="0"/>
        <pt x="171" y="146" on="0"/>
        <pt x="216" y="146" on="1"/>
      </contour>
    </TTGlyph>
    <TTGlyph name="dvB_DA" xMin="-32" yMin="-4" xMax="707" yMax="660">
      <contour>
        <pt x="423" y="407" on="0"/>
        <pt x="396" y="381" on="0"/>
        <pt x="396" y="355" on="1"/>
        <pt x="396" y="214" on="1"/>
        <pt x="396" y="186" on="0"/>
        <pt x="429" y="157" on="0"/>
        <pt x="466" y="157" on="1"/>
        <pt x="495" y="157" on="0"/>
        <pt x="528" y="164" on="1"/>
        <pt x="528" y="257" on="1"/>
        <pt x="627" y="257" on="1"/>
        <pt x="627" y="-4" on="1"/>
        <pt x="528" y="-4" on="1"/>
        <pt x="528" y="75" on="1"/>
        <pt x="495" y="68" on="0"/>
        <pt x="453" y="68" on="1"/>
        <pt x="378" y="68" on="0"/>
        <pt x="339" y="101" on="1"/>
        <pt x="300" y="62" on="0"/>
        <pt x="217" y="62" on="1"/>
        <pt x="38" y="62" on="0"/>
        <pt x="38" y="214" on="1"/>
        <pt x="38" y="353" on="1"/>
        <pt x="38" y="429" on="0"/>
        <pt x="119" y="506" on="0"/>
        <pt x="209" y="506" on="1"/>
        <pt x="223" y="506" on="0"/>
        <pt x="247" y="503" on="0"/>
        <pt x="250" y="502" on="1"/>
        <pt x="250" y="418" on="1"/>
        <pt x="247" y="419" on="0"/>
        <pt x="229" y="421" on="0"/>
        <pt x="216" y="421" on="1"/>
        <pt x="153" y="421" on="0"/>
        <pt x="139" y="384" on="1"/>
        <pt x="296" y="259" on="1"/>
        <pt x="296" y="357" on="1"/>
        <pt x="296" y="432" on="0"/>
        <pt x="375" y="499" on="0"/>
        <pt x="460" y="499" on="1"/>
        <pt x="514" y="499" on="1"/>
        <pt x="514" y="575" on="1"/>
        <pt x="-32" y="575" on="1"/>
        <pt x="-32" y="660" on="1"/>
        <pt x="707" y="660" on="1"/>
        <pt x="707" y="575" on="1"/>
        <pt x="614" y="575" on="1"/>
        <pt x="614" y="407" on="1"/>
        <pt x="460" y="407" on="1"/>
      </contour>
      <contour>
        <pt x="253" y="146" on="0"/>
        <pt x="290" y="165" on="0"/>
        <pt x="297" y="185" on="1"/>
        <pt x="134" y="317" on="1"/>
        <pt x="134" y="218" on="1"/>
        <pt x="134" y="182" on="0"/>
        <pt x="171" y="146" on="0"/>
        <pt x="218" y="146" on="1"/>
      </contour>
    </TTGlyph>
    <TTGlyph name="dvB_DHA" xMin="-32" yMin="0" xMax="777" yMax="660">
      <contour>
        <pt x="777" y="660" on="1"/>
        <pt x="777" y="575" on="1"/>
        <pt x="687" y="575" on="1"/>
        <pt x="687" y="0" on="1"/>
        <pt x="587" y="0" on="1"/>
        <pt x="587" y="72" on="1"/>
        <pt x="546" y="60" on="0"/>
        <pt x="484" y="60" on="1"/>
        <pt x="387" y="60" on="0"/>
        <pt x="339" y="105" on="1"/>
        <pt x="299" y="62" on="0"/>
        <pt x="214" y="62" on="1"/>
        <pt x="38" y="62" on="0"/>
        <pt x="38" y="214" on="1"/>
        <pt x="38" y="353" on="1"/>
        <pt x="38" y="429" on="0"/>
        <pt x="119" y="506" on="0"/>
        <pt x="209" y="506" on="1"/>
        <pt x="223" y="506" on="0"/>
        <pt x="247" y="503" on="0"/>
        <pt x="250" y="502" on="1"/>
        <pt x="250" y="418" on="1"/>
        <pt x="247" y="419" on="0"/>
        <pt x="229" y="421" on="0"/>
        <pt x="216" y="421" on="1"/>
        <pt x="153" y="421" on="0"/>
        <pt x="139" y="384" on="1"/>
        <pt x="297" y="258" on="1"/>
        <pt x="297" y="266" on="1"/>
        <pt x="297" y="344" on="0"/>
        <pt x="349" y="365" on="1"/>
        <pt x="324" y="378" on="0"/>
        <pt x="303" y="425" on="0"/>
        <pt x="303" y="461" on="1"/>
        <pt x="303" y="516" on="1"/>
        <pt x="303" y="533" on="0"/>
        <pt x="307" y="560" on="0"/>
        <pt x="312" y="573" on="0"/>
        <pt x="313" y="575" on="1"/>
        <pt x="-32" y="575" on="1"/>
        <pt x="-32" y="660" on="1"/>
        <pt x="494" y="660" on="1"/>
        <pt x="494" y="575" on="1"/>
        <pt x="416" y="575" on="1"/>
        <pt x="415" y="573" on="0"/>
        <pt x="409" y="560" on="0"/>
        <pt x="403" y="534" on="0"/>
        <pt x="403" y="516" on="1"/>
        <pt x="403" y="464" on="1"/>
        <pt x="403" y="437" on="0"/>
        <pt x="428" y="410" on="0"/>
        <pt x="464" y="410" on="1"/>
        <pt x="503" y="410" on="1"/>
        <pt x="503" y="318" on="1"/>
        <pt x="460" y="318" on="1"/>
        <pt x="424" y="318" on="0"/>
        <pt x="397" y="290" on="0"/>
        <pt x="397" y="263" on="1"/>
        <pt x="397" y="223" on="1"/>
        <pt x="397" y="184" on="0"/>
        <pt x="447" y="150" on="0"/>
        <pt x="495" y="150" on="1"/>
        <pt x="544" y="150" on="0"/>
        <pt x="587" y="162" on="1"/>
        <pt x="587" y="660" on="1"/>
      </contour>
      <contour>
        <pt x="281" y="146" on="0"/>
        <pt x="293" y="188" on="1"/>
        <pt x="134" y="317" on="1"/>
        <pt x="134" y="218" on="1"/>
        <pt x="134" y="182" on="0"/>
        <pt x="171" y="146" on="0"/>
        <pt x="216" y="146" on="1"/>
      </contour>
    </TTGlyph>
    <TTGlyph name="dvB_DH_VA" xMin="-32" yMin="0" xMax="1019" yMax="660">
      <contour>
        <pt x="1019" y="660" on="1"/>
        <pt x="1019" y="575" on="1"/>
        <pt x="929" y="575" on="1"/>
        <pt x="929" y="0" on="1"/>
        <pt x="829" y="0" on="1"/>
        <pt x="829" y="71" on="1"/>
        <pt x="789" y="61" on="0"/>
        <pt x="749" y="61" on="1"/>
        <pt x="673" y="61" on="0"/>
        <pt x="635" y="94" on="1"/>
        <pt x="556" y="71" on="0"/>
        <pt x="494" y="71" on="1"/>
        <pt x="395" y="71" on="0"/>
        <pt x="345" y="112" on="1"/>
        <pt x="306" y="62" on="0"/>
        <pt x="214" y="62" on="1"/>
        <pt x="38" y="62" on="0"/>
        <pt x="38" y="214" on="1"/>
        <pt x="38" y="353" on="1"/>
        <pt x="38" y="429" on="0"/>
        <pt x="118" y="506" on="0"/>
        <pt x="208" y="506" on="1"/>
        <pt x="222" y="506" on="0"/>
        <pt x="247" y="503" on="0"/>
        <pt x="250" y="502" on="1"/>
        <pt x="250" y="418" on="1"/>
        <pt x="247" y="419" on="0"/>
        <pt x="229" y="421" on="0"/>
        <pt x="215" y="421" on="1"/>
        <pt x="153" y="421" on="0"/>
        <pt x="139" y="383" on="1"/>
        <pt x="297" y="257" on="1"/>
        <pt x="297" y="275" on="1"/>
        <pt x="297" y="353" on="0"/>
        <pt x="349" y="374" on="1"/>
        <pt x="324" y="387" on="0"/>
        <pt x="303" y="434" on="0"/>
        <pt x="303" y="470" on="1"/>
        <pt x="303" y="516" on="1"/>
        <pt x="303" y="540" on="0"/>
        <pt x="309" y="571" on="0"/>
        <pt x="310" y="575" on="1"/>
        <pt x="-32" y="575" on="1"/>
        <pt x="-32" y="660" on="1"/>
        <pt x="468" y="660" on="1"/>
        <pt x="468" y="575" on="1"/>
        <pt x="412" y="575" on="1"/>
        <pt x="411" y="573" on="0"/>
        <pt x="407" y="561" on="0"/>
        <pt x="403" y="534" on="0"/>
        <pt x="403" y="516" on="1"/>
        <pt x="403" y="473" on="1"/>
        <pt x="403" y="446" on="0"/>
        <pt x="428" y="419" on="0"/>
        <pt x="464" y="418" on="1"/>
        <pt x="503" y="418" on="1"/>
        <pt x="503" y="326" on="1"/>
        <pt x="460" y="326" on="1"/>
        <pt x="424" y="326" on="0"/>
        <pt x="397" y="298" on="0"/>
        <pt x="397" y="272" on="1"/>
        <pt x="397" y="234" on="1"/>
        <pt x="397" y="194" on="0"/>
        <pt x="447" y="161" on="0"/>
        <pt x="499" y="161" on="1"/>
        <pt x="542" y="161" on="0"/>
        <pt x="595" y="173" on="1"/>
        <pt x="593" y="193" on="0"/>
        <pt x="593" y="206" on="1"/>
        <pt x="593" y="361" on="1"/>
        <pt x="593" y="506" on="0"/>
        <pt x="749" y="506" on="1"/>
        <pt x="789" y="506" on="0"/>
        <pt x="829" y="496" on="1"/>
        <pt x="829" y="575" on="1"/>
        <pt x="578" y="575" on="1"/>
        <pt x="578" y="660" on="1"/>
      </contour>
      <contour>
        <pt x="833" y="411" on="1"/>
        <pt x="797" y="420" on="0"/>
        <pt x="764" y="420" on="1"/>
        <pt x="726" y="420" on="0"/>
        <pt x="690" y="388" on="0"/>
        <pt x="690" y="360" on="1"/>
        <pt x="690" y="208" on="1"/>
        <pt x="690" y="147" on="0"/>
        <pt x="764" y="147" on="1"/>
        <pt x="786" y="147" on="0"/>
        <pt x="824" y="153" on="0"/>
        <pt x="833" y="157" on="1"/>
      </contour>
      <contour>
        <pt x="249" y="146" on="0"/>
        <pt x="286" y="167" on="0"/>
        <pt x="292" y="188" on="1"/>
        <pt x="134" y="316" on="1"/>
        <pt x="134" y="218" on="1"/>
        <pt x="134" y="182" on="0"/>
        <pt x="170" y="146" on="0"/>
        <pt x="215" y="146" on="1"/>
      </contour>
    </TTGlyph>
    <TTGlyph name="dvB_JA" xMin="-32" yMin="0" xMax="919" yMax="660">
      <contour>
        <pt x="919" y="575" on="1"/>
        <pt x="835" y="575" on="1"/>
        <pt x="835" y="0" on="1"/>
        <pt x="735" y="0" on="1"/>
        <pt x="735" y="406" on="1"/>
        <pt x="621" y="406" on="1"/>
        <pt x="622" y="404" on="0"/>
        <pt x="626" y="391" on="0"/>
        <pt x="630" y="365" on="0"/>
        <pt x="630" y="348" on="1"/>
        <pt x="630" y="209" on="1"/>
        <pt x="630" y="134" on="0"/>
        <pt x="539" y="56" on="0"/>
        <pt x="454" y="56" on="1"/>
        <pt x="419" y="56" on="0"/>
        <pt x="342" y="70" on="0"/>
        <pt x="312" y="79" on="1"/>
        <pt x="272" y="62" on="0"/>
        <pt x="214" y="62" on="1"/>
        <pt x="38" y="62" on="0"/>
        <pt x="38" y="214" on="1"/>
        <pt x="38" y="353" on="1"/>
        <pt x="38" y="429" on="0"/>
        <pt x="121" y="506" on="0"/>
        <pt x="214" y="506" on="1"/>
        <pt x="303" y="506" on="0"/>
        <pt x="387" y="429" on="0"/>
        <pt x="387" y="353" on="1"/>
        <pt x="387" y="214" on="1"/>
        <pt x="387" y="180" on="0"/>
        <pt x="380" y="158" on="1"/>
        <pt x="424" y="147" on="0"/>
        <pt x="451" y="147" on="1"/>
        <pt x="530" y="147" on="0"/>
        <pt x="530" y="212" on="1"/>
        <pt x="530" y="342" on="1"/>
        <pt x="530" y="360" on="0"/>
        <pt x="526" y="386" on="0"/>
        <pt x="521" y="399" on="0"/>
        <pt x="520" y="401" on="1"/>
        <pt x="447" y="401" on="1"/>
        <pt x="447" y="493" on="1"/>
        <pt x="735" y="493" on="1"/>
        <pt x="735" y="575" on="1"/>
        <pt x="-32" y="575" on="1"/>
        <pt x="-32" y="660" on="1"/>
        <pt x="919" y="660" on="1"/>
      </contour>
      <contour>
        <pt x="297" y="349" on="1"/>
        <pt x="297" y="385" on="0"/>
        <pt x="260" y="421" on="0"/>
        <pt x="216" y="421" on="1"/>
        <pt x="166" y="421" on="0"/>
        <pt x="147" y="396" on="1"/>
        <pt x="297" y="239" on="1"/>
      </contour>
      <contour>
        <pt x="267" y="146" on="0"/>
        <pt x="285" y="172" on="1"/>
        <pt x="134" y="330" on="1"/>
        <pt x="134" y="218" on="1"/>
        <pt x="134" y="182" on="0"/>
        <pt x="171" y="146" on="0"/>
        <pt x="216" y="146" on="1"/>
      </contour>
    </TTGlyph>
    <TTGlyph name="dvB_JHA" xMin="-32" yMin="-70" xMax="1028" yMax="660">
      <contour>
        <pt x="1028" y="575" on="1"/>
        <pt x="938" y="575" on="1"/>
        <pt x="938" y="0" on="1"/>
        <pt x="838" y="0" on="1"/>
        <pt x="838" y="240" on="1"/>
        <pt x="723" y="240" on="1"/>
        <pt x="745" y="220" on="0"/>
        <pt x="745" y="179" on="1"/>
        <pt x="745" y="144" on="1"/>
        <pt x="745" y="71" on="0"/>
        <pt x="671" y="8" on="0"/>
        <pt x="594" y="8" on="1"/>
        <pt x="546" y="8" on="0"/>
        <pt x="516" y="15" on="1"/>
        <pt x="516" y="-70" on="1"/>
        <pt x="419" y="-70" on="1"/>
        <pt x="419" y="163" on="1"/>
        <pt x="516" y="163" on="1"/>
        <pt x="516" y="102" on="1"/>
        <pt x="549" y="95" on="0"/>
        <pt x="579" y="95" on="1"/>
        <pt x="616" y="95" on="0"/>
        <pt x="647" y="123" on="0"/>
        <pt x="647" y="150" on="1"/>
        <pt x="647" y="180" on="1"/>
        <pt x="647" y="207" on="0"/>
        <pt x="618" y="235" on="0"/>
        <pt x="583" y="235" on="1"/>
        <pt x="379" y="235" on="1"/>
        <pt x="379" y="195" on="1"/>
        <pt x="379" y="50" on="0"/>
        <pt x="214" y="50" on="1"/>
        <pt x="38" y="50" on="0"/>
        <pt x="38" y="203" on="1"/>
        <pt x="38" y="342" on="1"/>
        <pt x="38" y="417" on="0"/>
        <pt x="119" y="494" on="0"/>
        <pt x="209" y="494" on="1"/>
        <pt x="226" y="494" on="0"/>
        <pt x="256" y="491" on="0"/>
        <pt x="260" y="490" on="1"/>
        <pt x="260" y="405" on="1"/>
        <pt x="257" y="406" on="0"/>
        <pt x="231" y="410" on="0"/>
        <pt x="216" y="410" on="1"/>
        <pt x="183" y="410" on="0"/>
        <pt x="146" y="391" on="0"/>
        <pt x="139" y="372" on="1"/>
        <pt x="297" y="246" on="1"/>
        <pt x="297" y="320" on="1"/>
        <pt x="400" y="320" on="1"/>
        <pt x="395" y="342" on="0"/>
        <pt x="395" y="365" on="1"/>
        <pt x="395" y="374" on="1"/>
        <pt x="395" y="442" on="0"/>
        <pt x="471" y="504" on="0"/>
        <pt x="551" y="504" on="1"/>
        <pt x="635" y="504" on="1"/>
        <pt x="635" y="575" on="1"/>
        <pt x="-32" y="575" on="1"/>
        <pt x="-32" y="660" on="1"/>
        <pt x="1028" y="660" on="1"/>
      </contour>
      <contour>
        <pt x="838" y="575" on="1"/>
        <pt x="735" y="575" on="1"/>
        <pt x="735" y="417" on="1"/>
        <pt x="551" y="417" on="1"/>
        <pt x="519" y="417" on="0"/>
        <pt x="495" y="395" on="0"/>
        <pt x="495" y="371" on="1"/>
        <pt x="495" y="367" on="1"/>
        <pt x="495" y="343" on="0"/>
        <pt x="519" y="320" on="0"/>
        <pt x="550" y="320" on="1"/>
        <pt x="838" y="320" on="1"/>
      </contour>
      <contour>
        <pt x="250" y="135" on="0"/>
        <pt x="287" y="156" on="0"/>
        <pt x="293" y="177" on="1"/>
        <pt x="134" y="305" on="1"/>
        <pt x="134" y="206" on="1"/>
        <pt x="134" y="170" on="0"/>
        <pt x="171" y="135" on="0"/>
        <pt x="216" y="135" on="1"/>
      </contour>
    </TTGlyph>
    <TTGlyph name="dvB_J_YA" xMin="38" yMin="0" xMax="1228" yMax="660">
      <contour>
        <pt x="251" y="575" on="1"/>
        <pt x="115" y="575" on="1"/>
        <pt x="115" y="660" on="1"/>
        <pt x="251" y="660" on="1"/>
      </contour>
      <contour>
        <pt x="1228" y="575" on="1"/>
        <pt x="1138" y="575" on="1"/>
        <pt x="1138" y="0" on="1"/>
        <pt x="1038" y="0" on="1"/>
        <pt x="1038" y="96" on="1"/>
        <pt x="1001" y="86" on="0"/>
        <pt x="940" y="86" on="1"/>
        <pt x="843" y="86" on="0"/>
        <pt x="727" y="173" on="0"/>
        <pt x="727" y="263" on="1"/>
        <pt x="727" y="358" on="1"/>
        <pt x="727" y="387" on="0"/>
        <pt x="691" y="406" on="0"/>
        <pt x="643" y="406" on="1"/>
        <pt x="621" y="406" on="1"/>
        <pt x="622" y="404" on="0"/>
        <pt x="626" y="391" on="0"/>
        <pt x="630" y="365" on="0"/>
        <pt x="630" y="348" on="1"/>
        <pt x="630" y="209" on="1"/>
        <pt x="630" y="134" on="0"/>
        <pt x="539" y="56" on="0"/>
        <pt x="454" y="56" on="1"/>
        <pt x="417" y="56" on="0"/>
        <pt x="335" y="71" on="0"/>
        <pt x="305" y="81" on="1"/>
        <pt x="341" y="168" on="1"/>
        <pt x="416" y="147" on="0"/>
        <pt x="451" y="147" on="1"/>
        <pt x="530" y="147" on="0"/>
        <pt x="530" y="212" on="1"/>
        <pt x="530" y="342" on="1"/>
        <pt x="530" y="360" on="0"/>
        <pt x="526" y="386" on="0"/>
        <pt x="521" y="399" on="0"/>
        <pt x="520" y="401" on="1"/>
        <pt x="447" y="401" on="1"/>
        <pt x="447" y="493" on="1"/>
        <pt x="665" y="493" on="1"/>
        <pt x="799" y="493" on="0"/>
        <pt x="809" y="405" on="1"/>
        <pt x="831" y="410" on="0"/>
        <pt x="849" y="439" on="0"/>
        <pt x="849" y="467" on="1"/>
        <pt x="849" y="516" on="1"/>
        <pt x="849" y="534" on="0"/>
        <pt x="845" y="561" on="0"/>
        <pt x="842" y="573" on="0"/>
        <pt x="841" y="575" on="1"/>
        <pt x="294" y="575" on="1"/>
        <pt x="294" y="660" on="1"/>
        <pt x="1228" y="660" on="1"/>
      </contour>
      <contour>
        <pt x="1038" y="575" on="1"/>
        <pt x="940" y="575" on="1"/>
        <pt x="941" y="571" on="0"/>
        <pt x="946" y="539" on="0"/>
        <pt x="946" y="516" on="1"/>
        <pt x="946" y="450" on="1"/>
        <pt x="946" y="333" on="0"/>
        <pt x="825" y="330" on="1"/>
        <pt x="825" y="274" on="1"/>
        <pt x="825" y="226" on="0"/>
        <pt x="883" y="179" on="0"/>
        <pt x="945" y="179" on="1"/>
        <pt x="995" y="179" on="0"/>
        <pt x="1038" y="188" on="1"/>
      </contour>
      <contour>
        <pt x="260" y="155" on="0"/>
        <pt x="260" y="153" on="1"/>
        <pt x="260" y="151" on="0"/>
        <pt x="248" y="157" on="1"/>
        <pt x="234" y="157" on="0"/>
        <pt x="183" y="191" on="0"/>
        <pt x="139" y="235" on="0"/>
        <pt x="135" y="247" on="1"/>
        <pt x="55" y="254" on="0"/>
        <pt x="41" y="284" on="1"/>
        <pt x="60" y="325" on="0"/>
        <pt x="214" y="325" on="1"/>
        <pt x="238" y="325" on="0"/>
        <pt x="270" y="323" on="1"/>
        <pt x="248" y="355" on="0"/>
        <pt x="194" y="407" on="0"/>
        <pt x="180" y="407" on="1"/>
        <pt x="172" y="413" on="0"/>
        <pt x="172" y="414" on="1"/>
        <pt x="173" y="415" on="0"/>
        <pt x="178" y="413" on="0"/>
        <pt x="182" y="410" on="1"/>
        <pt x="196" y="410" on="0"/>
        <pt x="245" y="377" on="0"/>
        <pt x="290" y="333" on="0"/>
        <pt x="296" y="321" on="1"/>
        <pt x="372" y="312" on="0"/>
        <pt x="384" y="284" on="1"/>
        <pt x="375" y="263" on="0"/>
        <pt x="292" y="243" on="0"/>
        <pt x="214" y="243" on="1"/>
        <pt x="178" y="243" on="0"/>
        <pt x="162" y="244" on="1"/>
        <pt x="185" y="212" on="0"/>
        <pt x="238" y="161" on="0"/>
        <pt x="252" y="161" on="1"/>
      </contour>
      <contour>
        <pt x="38" y="297" on="1"/>
        <pt x="38" y="290" on="0"/>
        <pt x="41" y="284" on="1"/>
        <pt x="38" y="278" on="0"/>
        <pt x="38" y="270" on="1"/>
      </contour>
      <contour>
        <pt x="387" y="270" on="1"/>
        <pt x="387" y="277" on="0"/>
        <pt x="384" y="284" on="1"/>
        <pt x="387" y="290" on="0"/>
        <pt x="387" y="297" on="1"/>
      </contour>
    </TTGlyph>
    <TTGlyph name="dvB_JxA" xMin="-32" yMin="-97" xMax="924" yMax="660">
      <contour>
        <pt x="924" y="575" on="1"/>
        <pt x="835" y="575" on="1"/>
        <pt x="835" y="0" on="1"/>
        <pt x="735" y="0" on="1"/>
        <pt x="735" y="406" on="1"/>
        <pt x="621" y="406" on="1"/>
        <pt x="622" y="404" on="0"/>
        <pt x="626" y="391" on="0"/>
        <pt x="630" y="365" on="0"/>
        <pt x="630" y="348" on="1"/>
        <pt x="630" y="209" on="1"/>
        <pt x="630" y="134" on="0"/>
        <pt x="539" y="56" on="0"/>
        <pt x="454" y="56" on="1"/>
        <pt x="419" y="56" on="0"/>
        <pt x="342" y="70" on="0"/>
        <pt x="312" y="79" on="1"/>
        <pt x="272" y="62" on="0"/>
        <pt x="214" y="62" on="1"/>
        <pt x="38" y="62" on="0"/>
        <pt x="38" y="214" on="1"/>
        <pt x="38" y="353" on="1"/>
        <pt x="38" y="429" on="0"/>
        <pt x="121" y="506" on="0"/>
        <pt x="214" y="506" on="1"/>
        <pt x="303" y="506" on="0"/>
        <pt x="387" y="429" on="0"/>
        <pt x="387" y="353" on="1"/>
        <pt x="387" y="214" on="1"/>
        <pt x="387" y="180" on="0"/>
        <pt x="380" y="158" on="1"/>
        <pt x="424" y="147" on="0"/>
        <pt x="451" y="147" on="1"/>
        <pt x="530" y="147" on="0"/>
        <pt x="530" y="212" on="1"/>
        <pt x="530" y="342" on="1"/>
        <pt x="530" y="360" on="0"/>
        <pt x="526" y="386" on="0"/>
        <pt x="521" y="399" on="0"/>
        <pt x="520" y="401" on="1"/>
        <pt x="447" y="401" on="1"/>
        <pt x="447" y="493" on="1"/>
        <pt x="735" y="493" on="1"/>
        <pt x="735" y="575" on="1"/>
        <pt x="-32" y="575" on="1"/>
        <pt x="-32" y="660" on="1"/>
        <pt x="924" y="660" on="1"/>
      </contour>
      <contour>
        <pt x="297" y="349" on="1"/>
        <pt x="297" y="385" on="0"/>
        <pt x="260" y="421" on="0"/>
        <pt x="216" y="421" on="1"/>
        <pt x="166" y="421" on="0"/>
        <pt x="147" y="396" on="1"/>
        <pt x="297" y="239" on="1"/>
      </contour>
      <contour>
        <pt x="267" y="146" on="0"/>
        <pt x="285" y="172" on="1"/>
        <pt x="134" y="330" on="1"/>
        <pt x="134" y="218" on="1"/>
        <pt x="134" y="182" on="0"/>
        <pt x="171" y="146" on="0"/>
        <pt x="216" y="146" on="1"/>
      </contour>
      <contour>
        <pt x="381" y="18" on="0"/>
        <pt x="381" y="-40" on="1"/>
        <pt x="381" y="-97" on="0"/>
        <pt x="324" y="-97" on="1"/>
        <pt x="266" y="-97" on="0"/>
        <pt x="266" y="-40" on="1"/>
        <pt x="266" y="18" on="0"/>
        <pt x="324" y="18" on="1"/>
      </contour>
    </TTGlyph>
    <TTGlyph name="dvB_LA" xMin="-32" yMin="0" xMax="926" yMax="660">
      <contour>
        <pt x="926" y="575" on="1"/>
        <pt x="836" y="575" on="1"/>
        <pt x="836" y="0" on="1"/>
        <pt x="736" y="0" on="1"/>
        <pt x="736" y="384" on="1"/>
        <pt x="716" y="394" on="0"/>
        <pt x="682" y="394" on="1"/>
        <pt x="619" y="394" on="0"/>
        <pt x="619" y="339" on="1"/>
        <pt x="619" y="209" on="1"/>
        <pt x="519" y="209" on="1"/>
        <pt x="519" y="339" on="1"/>
        <pt x="519" y="365" on="0"/>
        <pt x="494" y="394" on="0"/>
        <pt x="461" y="394" on="1"/>
        <pt x="427" y="394" on="0"/>
        <pt x="403" y="365" on="0"/>
        <pt x="403" y="338" on="1"/>
        <pt x="403" y="170" on="1"/>
        <pt x="403" y="132" on="0"/>
        <pt x="439" y="92" on="0"/>
        <pt x="490" y="92" on="1"/>
        <pt x="524" y="92" on="0"/>
        <pt x="548" y="95" on="1"/>
        <pt x="548" y="4" on="1"/>
        <pt x="516" y="0" on="0"/>
        <pt x="485" y="0" on="1"/>
        <pt x="354" y="0" on="0"/>
        <pt x="317" y="83" on="1"/>
        <pt x="280" y="62" on="0"/>
        <pt x="217" y="62" on="1"/>
        <pt x="38" y="62" on="0"/>
        <pt x="38" y="214" on="1"/>
        <pt x="38" y="353" on="1"/>
        <pt x="38" y="429" on="0"/>
        <pt x="119" y="506" on="0"/>
        <pt x="209" y="506" on="1"/>
        <pt x="223" y="506" on="0"/>
        <pt x="247" y="503" on="0"/>
        <pt x="250" y="502" on="1"/>
        <pt x="250" y="418" on="1"/>
        <pt x="247" y="419" on="0"/>
        <pt x="229" y="421" on="0"/>
        <pt x="216" y="421" on="1"/>
        <pt x="153" y="421" on="0"/>
        <pt x="139" y="384" on="1"/>
        <pt x="302" y="254" on="1"/>
        <pt x="302" y="341" on="1"/>
        <pt x="302" y="410" on="0"/>
        <pt x="382" y="486" on="0"/>
        <pt x="458" y="486" on="1"/>
        <pt x="500" y="486" on="0"/>
        <pt x="554" y="458" on="0"/>
        <pt x="567" y="436" on="1"/>
        <pt x="603" y="486" on="0"/>
        <pt x="674" y="486" on="1"/>
        <pt x="714" y="486" on="0"/>
        <pt x="736" y="476" on="1"/>
        <pt x="736" y="575" on="1"/>
        <pt x="-32" y="575" on="1"/>
        <pt x="-32" y="660" on="1"/>
        <pt x="926" y="660" on="1"/>
      </contour>
      <contour>
        <pt x="253" y="146" on="0"/>
        <pt x="290" y="165" on="0"/>
        <pt x="297" y="185" on="1"/>
        <pt x="134" y="317" on="1"/>
        <pt x="134" y="218" on="1"/>
        <pt x="134" y="182" on="0"/>
        <pt x="171" y="146" on="0"/>
        <pt x="218" y="146" on="1"/>
      </contour>
    </TTGlyph>
    <TTGlyph name="dvB_L_YA" xMin="-32" yMin="0" xMax="1219" yMax="660">
      <contour>
        <pt x="1219" y="575" on="1"/>
        <pt x="1129" y="575" on="1"/>
        <pt x="1129" y="0" on="1"/>
        <pt x="1029" y="0" on="1"/>
        <pt x="1029" y="96" on="1"/>
        <pt x="992" y="86" on="0"/>
        <pt x="932" y="86" on="1"/>
        <pt x="835" y="86" on="0"/>
        <pt x="718" y="173" on="0"/>
        <pt x="718" y="263" on="1"/>
        <pt x="718" y="338" on="1"/>
        <pt x="718" y="366" on="0"/>
        <pt x="696" y="394" on="0"/>
        <pt x="662" y="394" on="1"/>
        <pt x="631" y="394" on="0"/>
        <pt x="608" y="366" on="0"/>
        <pt x="608" y="338" on="1"/>
        <pt x="608" y="209" on="1"/>
        <pt x="508" y="209" on="1"/>
        <pt x="508" y="338" on="1"/>
        <pt x="508" y="365" on="0"/>
        <pt x="483" y="394" on="0"/>
        <pt x="449" y="394" on="1"/>
        <pt x="416" y="394" on="0"/>
        <pt x="391" y="365" on="0"/>
        <pt x="391" y="338" on="1"/>
        <pt x="391" y="170" on="1"/>
        <pt x="391" y="132" on="0"/>
        <pt x="427" y="92" on="0"/>
        <pt x="478" y="92" on="1"/>
        <pt x="527" y="92" on="0"/>
        <pt x="537" y="93" on="1"/>
        <pt x="537" y="2" on="1"/>
        <pt x="519" y="0" on="0"/>
        <pt x="474" y="0" on="1"/>
        <pt x="407" y="0" on="0"/>
        <pt x="327" y="41" on="0"/>
        <pt x="310" y="83" on="1"/>
        <pt x="274" y="62" on="0"/>
        <pt x="214" y="62" on="1"/>
        <pt x="38" y="62" on="0"/>
        <pt x="38" y="214" on="1"/>
        <pt x="38" y="353" on="1"/>
        <pt x="38" y="429" on="0"/>
        <pt x="118" y="506" on="0"/>
        <pt x="208" y="506" on="1"/>
        <pt x="222" y="506" on="0"/>
        <pt x="247" y="503" on="0"/>
        <pt x="250" y="502" on="1"/>
        <pt x="250" y="418" on="1"/>
        <pt x="247" y="419" on="0"/>
        <pt x="229" y="421" on="0"/>
        <pt x="215" y="421" on="1"/>
        <pt x="153" y="421" on="0"/>
        <pt x="139" y="383" on="1"/>
        <pt x="296" y="258" on="1"/>
        <pt x="296" y="341" on="1"/>
        <pt x="296" y="411" on="0"/>
        <pt x="370" y="486" on="0"/>
        <pt x="446" y="486" on="1"/>
        <pt x="488" y="486" on="0"/>
        <pt x="543" y="458" on="0"/>
        <pt x="556" y="436" on="1"/>
        <pt x="590" y="486" on="0"/>
        <pt x="659" y="486" on="1"/>
        <pt x="715" y="486" on="0"/>
        <pt x="785" y="438" on="0"/>
        <pt x="798" y="395" on="1"/>
        <pt x="821" y="401" on="0"/>
        <pt x="840" y="430" on="0"/>
        <pt x="840" y="458" on="1"/>
        <pt x="840" y="516" on="1"/>
        <pt x="840" y="534" on="0"/>
        <pt x="836" y="561" on="0"/>
        <pt x="833" y="573" on="0"/>
        <pt x="832" y="575" on="1"/>
        <pt x="-32" y="575" on="1"/>
        <pt x="-32" y="660" on="1"/>
        <pt x="1219" y="660" on="1"/>
      </contour>
      <contour>
        <pt x="1029" y="575" on="1"/>
        <pt x="931" y="575" on="1"/>
        <pt x="932" y="571" on="0"/>
        <pt x="938" y="539" on="0"/>
        <pt x="938" y="516" on="1"/>
        <pt x="938" y="441" on="1"/>
        <pt x="938" y="324" on="0"/>
        <pt x="816" y="321" on="1"/>
        <pt x="816" y="274" on="1"/>
        <pt x="816" y="226" on="0"/>
        <pt x="874" y="179" on="0"/>
        <pt x="936" y="179" on="1"/>
        <pt x="986" y="179" on="0"/>
        <pt x="1029" y="188" on="1"/>
      </contour>
      <contour>
        <pt x="249" y="146" on="0"/>
        <pt x="286" y="167" on="0"/>
        <pt x="292" y="188" on="1"/>
        <pt x="134" y="316" on="1"/>
        <pt x="134" y="218" on="1"/>
        <pt x="134" y="182" on="0"/>
        <pt x="170" y="146" on="0"/>
        <pt x="215" y="146" on="1"/>
      </contour>
    </TTGlyph>
    <TTGlyph name="dvB_NA" xMin="-32" yMin="0" xMax="868" yMax="660">
      <contour>
        <pt x="868" y="575" on="1"/>
        <pt x="778" y="575" on="1"/>
        <pt x="778" y="0" on="1"/>
        <pt x="678" y="0" on="1"/>
        <pt x="678" y="393" on="1"/>
        <pt x="575" y="393" on="1"/>
        <pt x="584" y="357" on="0"/>
        <pt x="584" y="329" on="1"/>
        <pt x="584" y="198" on="1"/>
        <pt x="584" y="128" on="0"/>
        <pt x="512" y="57" on="0"/>
        <pt x="435" y="57" on="1"/>
        <pt x="357" y="57" on="0"/>
        <pt x="321" y="93" on="1"/>
        <pt x="282" y="62" on="0"/>
        <pt x="209" y="62" on="1"/>
        <pt x="119" y="62" on="0"/>
        <pt x="38" y="139" on="0"/>
        <pt x="38" y="214" on="1"/>
        <pt x="38" y="345" on="1"/>
        <pt x="38" y="420" on="0"/>
        <pt x="119" y="497" on="0"/>
        <pt x="209" y="497" on="1"/>
        <pt x="291" y="497" on="0"/>
        <pt x="331" y="457" on="1"/>
        <pt x="366" y="485" on="0"/>
        <pt x="435" y="485" on="1"/>
        <pt x="678" y="485" on="1"/>
        <pt x="678" y="575" on="1"/>
        <pt x="-32" y="575" on="1"/>
        <pt x="-32" y="660" on="1"/>
        <pt x="868" y="660" on="1"/>
      </contour>
      <contour>
        <pt x="179" y="413" on="0"/>
        <pt x="145" y="394" on="0"/>
        <pt x="139" y="375" on="1"/>
        <pt x="285" y="262" on="1"/>
        <pt x="285" y="341" on="1"/>
        <pt x="285" y="378" on="0"/>
        <pt x="253" y="413" on="0"/>
        <pt x="210" y="413" on="1"/>
      </contour>
      <contour>
        <pt x="489" y="326" on="1"/>
        <pt x="489" y="349" on="0"/>
        <pt x="482" y="387" on="0"/>
        <pt x="479" y="393" on="1"/>
        <pt x="435" y="393" on="1"/>
        <pt x="405" y="393" on="0"/>
        <pt x="381" y="367" on="0"/>
        <pt x="381" y="341" on="1"/>
        <pt x="381" y="199" on="1"/>
        <pt x="381" y="173" on="0"/>
        <pt x="405" y="147" on="0"/>
        <pt x="435" y="147" on="1"/>
        <pt x="465" y="147" on="0"/>
        <pt x="489" y="173" on="0"/>
        <pt x="489" y="199" on="1"/>
      </contour>
      <contour>
        <pt x="243" y="146" on="0"/>
        <pt x="278" y="169" on="0"/>
        <pt x="283" y="192" on="1"/>
        <pt x="134" y="308" on="1"/>
        <pt x="134" y="218" on="1"/>
        <pt x="134" y="181" on="0"/>
        <pt x="167" y="146" on="0"/>
        <pt x="210" y="146" on="1"/>
      </contour>
    </TTGlyph>
    <TTGlyph name="dvB_R" xMin="-32" yMin="-76" xMax="411" yMax="660">
      <contour>
        <pt x="411" y="660" on="1"/>
        <pt x="411" y="575" on="1"/>
        <pt x="-32" y="575" on="1"/>
        <pt x="-32" y="660" on="1"/>
      </contour>
      <contour>
        <pt x="305" y="506" on="0"/>
        <pt x="389" y="429" on="0"/>
        <pt x="389" y="353" on="1"/>
        <pt x="389" y="230" on="1"/>
        <pt x="389" y="195" on="0"/>
        <pt x="368" y="144" on="0"/>
        <pt x="335" y="106" on="0"/>
        <pt x="296" y="67" on="1"/>
        <pt x="151" y="-76" on="1"/>
        <pt x="26" y="-76" on="1"/>
        <pt x="185" y="81" on="1"/>
        <pt x="111" y="88" on="0"/>
        <pt x="41" y="162" on="0"/>
        <pt x="41" y="230" on="1"/>
        <pt x="41" y="353" on="1"/>
        <pt x="41" y="429" on="0"/>
        <pt x="123" y="506" on="0"/>
        <pt x="216" y="506" on="1"/>
      </contour>
      <contour>
        <pt x="185" y="421" on="0"/>
        <pt x="149" y="403" on="0"/>
        <pt x="142" y="384" on="1"/>
        <pt x="299" y="269" on="1"/>
        <pt x="299" y="350" on="1"/>
        <pt x="299" y="386" on="0"/>
        <pt x="262" y="421" on="0"/>
        <pt x="218" y="421" on="1"/>
      </contour>
      <contour>
        <pt x="252" y="162" on="0"/>
        <pt x="289" y="182" on="0"/>
        <pt x="295" y="203" on="1"/>
        <pt x="137" y="319" on="1"/>
        <pt x="137" y="233" on="1"/>
        <pt x="137" y="197" on="0"/>
        <pt x="173" y="162" on="0"/>
        <pt x="218" y="162" on="1"/>
      </contour>
    </TTGlyph>
    <TTGlyph name="dvB_RA" xMin="-32" yMin="-45" xMax="478" yMax="660">
      <contour>
        <pt x="478" y="660" on="1"/>
        <pt x="478" y="575" on="1"/>
        <pt x="388" y="575" on="1"/>
        <pt x="388" y="0" on="1"/>
        <pt x="293" y="0" on="1"/>
        <pt x="293" y="102" on="1"/>
        <pt x="292" y="101" on="0"/>
        <pt x="289" y="101" on="0"/>
        <pt x="288" y="100" on="1"/>
        <pt x="155" y="-45" on="1"/>
        <pt x="39" y="-45" on="1"/>
        <pt x="167" y="93" on="1"/>
        <pt x="103" y="99" on="0"/>
        <pt x="41" y="160" on="0"/>
        <pt x="41" y="226" on="1"/>
        <pt x="41" y="358" on="1"/>
        <pt x="41" y="436" on="0"/>
        <pt x="126" y="506" on="0"/>
        <pt x="211" y="506" on="1"/>
        <pt x="257" y="506" on="0"/>
        <pt x="293" y="493" on="1"/>
        <pt x="293" y="575" on="1"/>
        <pt x="-32" y="575" on="1"/>
        <pt x="-32" y="660" on="1"/>
      </contour>
      <contour>
        <pt x="161" y="421" on="0"/>
        <pt x="143" y="387" on="1"/>
        <pt x="293" y="257" on="1"/>
        <pt x="293" y="409" on="1"/>
        <pt x="263" y="421" on="0"/>
        <pt x="220" y="421" on="1"/>
      </contour>
      <contour>
        <pt x="137" y="162" on="0"/>
        <pt x="220" y="162" on="1"/>
        <pt x="259" y="162" on="0"/>
        <pt x="293" y="171" on="1"/>
        <pt x="293" y="181" on="1"/>
        <pt x="137" y="319" on="1"/>
        <pt x="137" y="229" on="1"/>
      </contour>
    </TTGlyph>
    <TTGlyph name="dvB_SA" xMin="-32" yMin="-5" xMax="900" yMax="660">
      <contour>
        <pt x="900" y="575" on="1"/>
        <pt x="810" y="575" on="1"/>
        <pt x="810" y="0" on="1"/>
        <pt x="710" y="0" on="1"/>
        <pt x="710" y="276" on="1"/>
        <pt x="571" y="276" on="1"/>
        <pt x="535" y="238" on="0"/>
        <pt x="457" y="238" on="1"/>
        <pt x="428" y="238" on="0"/>
        <pt x="396" y="245" on="1"/>
        <pt x="396" y="160" on="1"/>
        <pt x="396" y="121" on="0"/>
        <pt x="447" y="86" on="0"/>
        <pt x="499" y="86" on="1"/>
        <pt x="535" y="86" on="0"/>
        <pt x="591" y="97" on="0"/>
        <pt x="621" y="108" on="1"/>
        <pt x="621" y="14" on="1"/>
        <pt x="562" y="-5" on="0"/>
        <pt x="485" y="-5" on="1"/>
        <pt x="421" y="-5" on="0"/>
        <pt x="333" y="40" on="0"/>
        <pt x="312" y="81" on="1"/>
        <pt x="274" y="62" on="0"/>
        <pt x="217" y="62" on="1"/>
        <pt x="38" y="62" on="0"/>
        <pt x="38" y="214" on="1"/>
        <pt x="38" y="353" on="1"/>
        <pt x="38" y="429" on="0"/>
        <pt x="119" y="506" on="0"/>
        <pt x="209" y="506" on="1"/>
        <pt x="223" y="506" on="0"/>
        <pt x="241" y="504" on="0"/>
        <pt x="244" y="503" on="1"/>
        <pt x="244" y="419" on="1"/>
        <pt x="242" y="419" on="0"/>
        <pt x="227" y="421" on="0"/>
        <pt x="216" y="421" on="1"/>
        <pt x="153" y="421" on="0"/>
        <pt x="139" y="384" on="1"/>
        <pt x="296" y="259" on="1"/>
        <pt x="296" y="451" on="1"/>
        <pt x="396" y="451" on="1"/>
        <pt x="396" y="334" on="1"/>
        <pt x="420" y="327" on="0"/>
        <pt x="445" y="327" on="1"/>
        <pt x="481" y="327" on="0"/>
        <pt x="508" y="356" on="0"/>
        <pt x="508" y="384" on="1"/>
        <pt x="508" y="516" on="1"/>
        <pt x="508" y="534" on="0"/>
        <pt x="504" y="561" on="0"/>
        <pt x="500" y="573" on="0"/>
        <pt x="499" y="575" on="1"/>
        <pt x="-32" y="575" on="1"/>
        <pt x="-32" y="660" on="1"/>
        <pt x="900" y="660" on="1"/>
      </contour>
      <contour>
        <pt x="710" y="575" on="1"/>
        <pt x="599" y="575" on="1"/>
        <pt x="600" y="571" on="0"/>
        <pt x="606" y="540" on="0"/>
        <pt x="606" y="516" on="1"/>
        <pt x="606" y="382" on="1"/>
        <pt x="606" y="369" on="0"/>
        <pt x="605" y="363" on="1"/>
        <pt x="710" y="363" on="1"/>
      </contour>
      <contour>
        <pt x="251" y="146" on="0"/>
        <pt x="288" y="164" on="0"/>
        <pt x="296" y="182" on="1"/>
        <pt x="296" y="186" on="1"/>
        <pt x="134" y="317" on="1"/>
        <pt x="134" y="218" on="1"/>
        <pt x="134" y="182" on="0"/>
        <pt x="171" y="146" on="0"/>
        <pt x="218" y="146" on="1"/>
      </contour>
    </TTGlyph>
    <TTGlyph name="dvB_SHA" xMin="-32" yMin="-1" xMax="900" yMax="665">
      <contour>
        <pt x="547" y="665" on="0"/>
        <pt x="628" y="589" on="0"/>
        <pt x="628" y="519" on="1"/>
        <pt x="628" y="385" on="1"/>
        <pt x="628" y="243" on="0"/>
        <pt x="475" y="243" on="1"/>
        <pt x="454" y="243" on="0"/>
        <pt x="414" y="250" on="0"/>
        <pt x="403" y="254" on="1"/>
        <pt x="403" y="170" on="1"/>
        <pt x="403" y="90" on="0"/>
        <pt x="501" y="90" on="1"/>
        <pt x="536" y="90" on="0"/>
        <pt x="588" y="101" on="0"/>
        <pt x="619" y="112" on="1"/>
        <pt x="619" y="19" on="1"/>
        <pt x="562" y="-1" on="0"/>
        <pt x="488" y="-1" on="1"/>
        <pt x="426" y="-1" on="0"/>
        <pt x="341" y="45" on="0"/>
        <pt x="321" y="86" on="1"/>
        <pt x="282" y="62" on="0"/>
        <pt x="217" y="62" on="1"/>
        <pt x="38" y="62" on="0"/>
        <pt x="38" y="214" on="1"/>
        <pt x="38" y="353" on="1"/>
        <pt x="38" y="429" on="0"/>
        <pt x="119" y="506" on="0"/>
        <pt x="209" y="506" on="1"/>
        <pt x="223" y="506" on="0"/>
        <pt x="247" y="503" on="0"/>
        <pt x="250" y="502" on="1"/>
        <pt x="250" y="418" on="1"/>
        <pt x="247" y="419" on="0"/>
        <pt x="229" y="421" on="0"/>
        <pt x="216" y="421" on="1"/>
        <pt x="153" y="421" on="0"/>
        <pt x="139" y="384" on="1"/>
        <pt x="302" y="254" on="1"/>
        <pt x="303" y="254" on="1"/>
        <pt x="303" y="403" on="1"/>
        <pt x="403" y="403" on="1"/>
        <pt x="403" y="342" on="1"/>
        <pt x="431" y="332" on="0"/>
        <pt x="465" y="332" on="1"/>
        <pt x="501" y="332" on="0"/>
        <pt x="528" y="361" on="0"/>
        <pt x="528" y="388" on="1"/>
        <pt x="528" y="516" on="1"/>
        <pt x="528" y="543" on="0"/>
        <pt x="501" y="572" on="0"/>
        <pt x="465" y="572" on="1"/>
        <pt x="430" y="572" on="0"/>
        <pt x="403" y="541" on="0"/>
        <pt x="403" y="514" on="1"/>
        <pt x="403" y="498" on="0"/>
        <pt x="406" y="477" on="1"/>
        <pt x="306" y="477" on="1"/>
        <pt x="303" y="501" on="0"/>
        <pt x="303" y="519" on="1"/>
        <pt x="303" y="589" on="0"/>
        <pt x="384" y="665" on="0"/>
        <pt x="465" y="665" on="1"/>
      </contour>
      <contour>
        <pt x="248" y="575" on="1"/>
        <pt x="-32" y="575" on="1"/>
        <pt x="-32" y="660" on="1"/>
        <pt x="248" y="660" on="1"/>
      </contour>
      <contour>
        <pt x="900" y="660" on="1"/>
        <pt x="900" y="575" on="1"/>
        <pt x="810" y="575" on="1"/>
        <pt x="810" y="0" on="1"/>
        <pt x="710" y="0" on="1"/>
        <pt x="710" y="660" on="1"/>
      </contour>
      <contour>
        <pt x="253" y="146" on="0"/>
        <pt x="290" y="165" on="0"/>
        <pt x="297" y="185" on="1"/>
        <pt x="134" y="317" on="1"/>
        <pt x="134" y="218" on="1"/>
        <pt x="134" y="182" on="0"/>
        <pt x="171" y="146" on="0"/>
        <pt x="218" y="146" on="1"/>
      </contour>
    </TTGlyph>
    <TTGlyph name="dvB_TA" xMin="-32" yMin="-2" xMax="737" yMax="660">
      <contour>
        <pt x="737" y="575" on="1"/>
        <pt x="648" y="575" on="1"/>
        <pt x="648" y="0" on="1"/>
        <pt x="548" y="0" on="1"/>
        <pt x="548" y="399" on="1"/>
        <pt x="504" y="407" on="0"/>
        <pt x="477" y="407" on="1"/>
        <pt x="402" y="407" on="0"/>
        <pt x="402" y="345" on="1"/>
        <pt x="402" y="146" on="1"/>
        <pt x="402" y="117" on="0"/>
        <pt x="433" y="92" on="0"/>
        <pt x="471" y="93" on="1"/>
        <pt x="471" y="-2" on="1"/>
        <pt x="446" y="-2" on="1"/>
        <pt x="387" y="-2" on="0"/>
        <pt x="321" y="39" on="0"/>
        <pt x="309" y="80" on="1"/>
        <pt x="275" y="62" on="0"/>
        <pt x="217" y="62" on="1"/>
        <pt x="38" y="62" on="0"/>
        <pt x="38" y="214" on="1"/>
        <pt x="38" y="353" on="1"/>
        <pt x="38" y="429" on="0"/>
        <pt x="119" y="506" on="0"/>
        <pt x="209" y="506" on="1"/>
        <pt x="223" y="506" on="0"/>
        <pt x="247" y="503" on="0"/>
        <pt x="250" y="502" on="1"/>
        <pt x="250" y="418" on="1"/>
        <pt x="247" y="419" on="0"/>
        <pt x="229" y="421" on="0"/>
        <pt x="216" y="421" on="1"/>
        <pt x="153" y="421" on="0"/>
        <pt x="139" y="384" on="1"/>
        <pt x="302" y="254" on="1"/>
        <pt x="302" y="348" on="1"/>
        <pt x="302" y="419" on="0"/>
        <pt x="384" y="500" on="0"/>
        <pt x="465" y="500" on="1"/>
        <pt x="508" y="500" on="0"/>
        <pt x="548" y="490" on="1"/>
        <pt x="548" y="575" on="1"/>
        <pt x="-32" y="575" on="1"/>
        <pt x="-32" y="660" on="1"/>
        <pt x="737" y="660" on="1"/>
      </contour>
      <contour>
        <pt x="253" y="146" on="0"/>
        <pt x="290" y="165" on="0"/>
        <pt x="297" y="185" on="1"/>
        <pt x="134" y="317" on="1"/>
        <pt x="134" y="218" on="1"/>
        <pt x="134" y="182" on="0"/>
        <pt x="171" y="146" on="0"/>
        <pt x="218" y="146" on="1"/>
      </contour>
    </TTGlyph>
    <TTGlyph name="dvB_VA" xMin="-32" yMin="0" xMax="722" yMax="660">
      <contour>
        <pt x="722" y="575" on="1"/>
        <pt x="633" y="575" on="1"/>
        <pt x="633" y="0" on="1"/>
        <pt x="533" y="0" on="1"/>
        <pt x="533" y="71" on="1"/>
        <pt x="490" y="61" on="0"/>
        <pt x="453" y="61" on="1"/>
        <pt x="373" y="61" on="0"/>
        <pt x="333" y="98" on="1"/>
        <pt x="294" y="62" on="0"/>
        <pt x="217" y="62" on="1"/>
        <pt x="38" y="62" on="0"/>
        <pt x="38" y="214" on="1"/>
        <pt x="38" y="353" on="1"/>
        <pt x="38" y="429" on="0"/>
        <pt x="119" y="506" on="0"/>
        <pt x="209" y="506" on="1"/>
        <pt x="223" y="506" on="0"/>
        <pt x="247" y="503" on="0"/>
        <pt x="250" y="502" on="1"/>
        <pt x="250" y="418" on="1"/>
        <pt x="247" y="419" on="0"/>
        <pt x="229" y="421" on="0"/>
        <pt x="216" y="421" on="1"/>
        <pt x="153" y="421" on="0"/>
        <pt x="139" y="384" on="1"/>
        <pt x="296" y="259" on="1"/>
        <pt x="296" y="361" on="1"/>
        <pt x="296" y="431" on="0"/>
        <pt x="373" y="506" on="0"/>
        <pt x="453" y="506" on="1"/>
        <pt x="490" y="506" on="0"/>
        <pt x="533" y="496" on="1"/>
        <pt x="533" y="575" on="1"/>
        <pt x="-32" y="575" on="1"/>
        <pt x="-32" y="660" on="1"/>
        <pt x="722" y="660" on="1"/>
      </contour>
      <contour>
        <pt x="537" y="411" on="1"/>
        <pt x="498" y="420" on="0"/>
        <pt x="467" y="420" on="1"/>
        <pt x="394" y="420" on="0"/>
        <pt x="394" y="360" on="1"/>
        <pt x="394" y="208" on="1"/>
        <pt x="394" y="147" on="0"/>
        <pt x="468" y="147" on="1"/>
        <pt x="490" y="147" on="0"/>
        <pt x="528" y="153" on="0"/>
        <pt x="537" y="157" on="1"/>
      </contour>
      <contour>
        <pt x="281" y="146" on="0"/>
        <pt x="293" y="188" on="1"/>
        <pt x="134" y="317" on="1"/>
        <pt x="134" y="218" on="1"/>
        <pt x="134" y="182" on="0"/>
        <pt x="171" y="146" on="0"/>
        <pt x="218" y="146" on="1"/>
      </contour>
    </TTGlyph>
    <TTGlyph name="dvB_YA" xMin="-32" yMin="0" xMax="797" yMax="660">
      <contour>
        <pt x="797" y="575" on="1"/>
        <pt x="708" y="575" on="1"/>
        <pt x="708" y="0" on="1"/>
        <pt x="608" y="0" on="1"/>
        <pt x="608" y="96" on="1"/>
        <pt x="571" y="86" on="0"/>
        <pt x="510" y="86" on="1"/>
        <pt x="414" y="86" on="0"/>
        <pt x="361" y="126" on="1"/>
        <pt x="324" y="62" on="0"/>
        <pt x="217" y="62" on="1"/>
        <pt x="38" y="62" on="0"/>
        <pt x="38" y="214" on="1"/>
        <pt x="38" y="353" on="1"/>
        <pt x="38" y="429" on="0"/>
        <pt x="119" y="506" on="0"/>
        <pt x="209" y="506" on="1"/>
        <pt x="223" y="506" on="0"/>
        <pt x="247" y="503" on="0"/>
        <pt x="250" y="502" on="1"/>
        <pt x="250" y="418" on="1"/>
        <pt x="247" y="419" on="0"/>
        <pt x="229" y="421" on="0"/>
        <pt x="216" y="421" on="1"/>
        <pt x="153" y="421" on="0"/>
        <pt x="139" y="384" on="1"/>
        <pt x="297" y="258" on="1"/>
        <pt x="297" y="263" on="1"/>
        <pt x="297" y="390" on="1"/>
        <pt x="319" y="390" on="1"/>
        <pt x="376" y="390" on="0"/>
        <pt x="418" y="417" on="0"/>
        <pt x="418" y="458" on="1"/>
        <pt x="418" y="516" on="1"/>
        <pt x="418" y="541" on="0"/>
        <pt x="412" y="571" on="0"/>
        <pt x="411" y="575" on="1"/>
        <pt x="-32" y="575" on="1"/>
        <pt x="-32" y="660" on="1"/>
        <pt x="797" y="660" on="1"/>
      </contour>
      <contour>
        <pt x="608" y="575" on="1"/>
        <pt x="509" y="575" on="1"/>
        <pt x="510" y="571" on="0"/>
        <pt x="516" y="539" on="0"/>
        <pt x="516" y="516" on="1"/>
        <pt x="516" y="441" on="1"/>
        <pt x="516" y="324" on="0"/>
        <pt x="395" y="321" on="1"/>
        <pt x="395" y="274" on="1"/>
        <pt x="395" y="226" on="0"/>
        <pt x="453" y="179" on="0"/>
        <pt x="515" y="179" on="1"/>
        <pt x="565" y="179" on="0"/>
        <pt x="608" y="188" on="1"/>
      </contour>
      <contour>
        <pt x="253" y="146" on="0"/>
        <pt x="290" y="165" on="0"/>
        <pt x="297" y="185" on="1"/>
        <pt x="134" y="317" on="1"/>
        <pt x="134" y="218" on="1"/>
        <pt x="134" y="182" on="0"/>
        <pt x="171" y="146" on="0"/>
        <pt x="218" y="146" on="1"/>
      </contour>
    </TTGlyph>
    <TTGlyph name="dvC" xMin="-36" yMin="58" xMax="329" yMax="660">
      <contour>
        <pt x="-36" y="575" on="1"/>
        <pt x="-36" y="660" on="1"/>
        <pt x="320" y="660" on="1"/>
        <pt x="320" y="575" on="1"/>
      </contour>
      <contour>
        <pt x="313" y="65" on="0"/>
        <pt x="257" y="58" on="0"/>
        <pt x="233" y="58" on="1"/>
        <pt x="153" y="58" on="0"/>
        <pt x="75" y="132" on="0"/>
        <pt x="75" y="206" on="1"/>
        <pt x="75" y="328" on="1"/>
        <pt x="75" y="355" on="0"/>
        <pt x="81" y="392" on="0"/>
        <pt x="82" y="396" on="1"/>
        <pt x="8" y="396" on="1"/>
        <pt x="8" y="486" on="1"/>
        <pt x="267" y="486" on="1"/>
        <pt x="267" y="400" on="1"/>
        <pt x="185" y="400" on="1"/>
        <pt x="184" y="398" on="0"/>
        <pt x="179" y="382" on="0"/>
        <pt x="175" y="350" on="0"/>
        <pt x="175" y="327" on="1"/>
        <pt x="175" y="208" on="1"/>
        <pt x="175" y="177" on="0"/>
        <pt x="211" y="147" on="0"/>
        <pt x="249" y="147" on="1"/>
        <pt x="296" y="147" on="0"/>
        <pt x="329" y="158" on="1"/>
        <pt x="329" y="70" on="1"/>
      </contour>
    </TTGlyph>
    <TTGlyph name="dvCA" xMin="-32" yMin="0" xMax="506" yMax="660">
      <contour>
        <pt x="179" y="176" on="0"/>
        <pt x="214" y="147" on="0"/>
        <pt x="251" y="147" on="1"/>
        <pt x="287" y="147" on="0"/>
        <pt x="317" y="157" on="1"/>
        <pt x="317" y="575" on="1"/>
        <pt x="-32" y="575" on="1"/>
        <pt x="-32" y="660" on="1"/>
        <pt x="506" y="660" on="1"/>
        <pt x="506" y="575" on="1"/>
        <pt x="417" y="575" on="1"/>
        <pt x="417" y="0" on="1"/>
        <pt x="317" y="0" on="1"/>
        <pt x="317" y="69" on="1"/>
        <pt x="282" y="58" on="0"/>
        <pt x="235" y="58" on="1"/>
        <pt x="155" y="58" on="0"/>
        <pt x="79" y="132" on="0"/>
        <pt x="79" y="206" on="1"/>
        <pt x="79" y="328" on="1"/>
        <pt x="79" y="356" on="0"/>
        <pt x="85" y="392" on="0"/>
        <pt x="86" y="396" on="1"/>
        <pt x="13" y="396" on="1"/>
        <pt x="13" y="486" on="1"/>
        <pt x="271" y="486" on="1"/>
        <pt x="271" y="400" on="1"/>
        <pt x="189" y="400" on="1"/>
        <pt x="188" y="398" on="0"/>
        <pt x="183" y="382" on="0"/>
        <pt x="179" y="350" on="0"/>
        <pt x="179" y="327" on="1"/>
        <pt x="179" y="208" on="1"/>
      </contour>
    </TTGlyph>
    <TTGlyph name="dvCH" xMin="-32" yMin="10" xMax="561" yMax="660">
      <contour>
        <pt x="407" y="498" on="0"/>
        <pt x="484" y="426" on="0"/>
        <pt x="484" y="359" on="1"/>
        <pt x="484" y="172" on="1"/>
        <pt x="484" y="113" on="0"/>
        <pt x="443" y="43" on="0"/>
        <pt x="349" y="10" on="0"/>
        <pt x="269" y="10" on="1"/>
        <pt x="152" y="10" on="0"/>
        <pt x="51" y="82" on="0"/>
        <pt x="51" y="163" on="1"/>
        <pt x="51" y="192" on="1"/>
        <pt x="51" y="263" on="0"/>
        <pt x="103" y="285" on="1"/>
        <pt x="78" y="297" on="0"/>
        <pt x="56" y="344" on="0"/>
        <pt x="56" y="380" on="1"/>
        <pt x="56" y="511" on="1"/>
        <pt x="56" y="555" on="0"/>
        <pt x="79" y="575" on="1"/>
        <pt x="-32" y="575" on="1"/>
        <pt x="-32" y="660" on="1"/>
        <pt x="561" y="660" on="1"/>
        <pt x="561" y="575" on="1"/>
        <pt x="218" y="575" on="1"/>
        <pt x="183" y="575" on="0"/>
        <pt x="156" y="544" on="0"/>
        <pt x="156" y="509" on="1"/>
        <pt x="156" y="384" on="1"/>
        <pt x="156" y="357" on="0"/>
        <pt x="181" y="330" on="0"/>
        <pt x="217" y="330" on="1"/>
        <pt x="281" y="330" on="1"/>
        <pt x="281" y="241" on="1"/>
        <pt x="220" y="241" on="1"/>
        <pt x="182" y="241" on="0"/>
        <pt x="151" y="216" on="0"/>
        <pt x="151" y="185" on="1"/>
        <pt x="151" y="168" on="1"/>
        <pt x="151" y="140" on="0"/>
        <pt x="169" y="112" on="0"/>
        <pt x="219" y="100" on="0"/>
        <pt x="269" y="100" on="1"/>
        <pt x="318" y="100" on="0"/>
        <pt x="368" y="115" on="0"/>
        <pt x="386" y="147" on="0"/>
        <pt x="386" y="176" on="1"/>
        <pt x="386" y="345" on="1"/>
        <pt x="386" y="381" on="0"/>
        <pt x="354" y="413" on="0"/>
        <pt x="315" y="413" on="1"/>
        <pt x="297" y="413" on="0"/>
        <pt x="268" y="405" on="0"/>
        <pt x="264" y="403" on="1"/>
        <pt x="264" y="488" on="1"/>
        <pt x="270" y="490" on="0"/>
        <pt x="310" y="498" on="0"/>
        <pt x="333" y="498" on="1"/>
      </contour>
    </TTGlyph>
    <TTGlyph name="dvCHA" xMin="-32" yMin="10" xMax="560" yMax="660">
      <contour>
        <pt x="53" y="533" on="0"/>
        <pt x="58" y="560" on="0"/>
        <pt x="63" y="573" on="0"/>
        <pt x="64" y="575" on="1"/>
        <pt x="-32" y="575" on="1"/>
        <pt x="-32" y="660" on="1"/>
        <pt x="560" y="660" on="1"/>
        <pt x="560" y="575" on="1"/>
        <pt x="417" y="575" on="1"/>
        <pt x="417" y="483" on="1"/>
        <pt x="451" y="471" on="0"/>
        <pt x="481" y="409" on="0"/>
        <pt x="481" y="359" on="1"/>
        <pt x="481" y="172" on="1"/>
        <pt x="481" y="113" on="0"/>
        <pt x="440" y="43" on="0"/>
        <pt x="346" y="10" on="0"/>
        <pt x="266" y="10" on="1"/>
        <pt x="149" y="10" on="0"/>
        <pt x="48" y="82" on="0"/>
        <pt x="48" y="163" on="1"/>
        <pt x="48" y="192" on="1"/>
        <pt x="48" y="263" on="0"/>
        <pt x="100" y="285" on="1"/>
        <pt x="75" y="297" on="0"/>
        <pt x="53" y="344" on="0"/>
        <pt x="53" y="380" on="1"/>
        <pt x="53" y="516" on="1"/>
      </contour>
      <contour>
        <pt x="153" y="357" on="0"/>
        <pt x="178" y="330" on="0"/>
        <pt x="214" y="330" on="1"/>
        <pt x="278" y="330" on="1"/>
        <pt x="278" y="241" on="1"/>
        <pt x="217" y="241" on="1"/>
        <pt x="179" y="241" on="0"/>
        <pt x="148" y="216" on="0"/>
        <pt x="148" y="185" on="1"/>
        <pt x="148" y="168" on="1"/>
        <pt x="148" y="140" on="0"/>
        <pt x="166" y="112" on="0"/>
        <pt x="216" y="100" on="0"/>
        <pt x="266" y="100" on="1"/>
        <pt x="315" y="100" on="0"/>
        <pt x="365" y="115" on="0"/>
        <pt x="383" y="147" on="0"/>
        <pt x="383" y="176" on="1"/>
        <pt x="383" y="345" on="1"/>
        <pt x="383" y="381" on="0"/>
        <pt x="353" y="413" on="0"/>
        <pt x="315" y="413" on="1"/>
        <pt x="295" y="413" on="0"/>
        <pt x="265" y="406" on="0"/>
        <pt x="261" y="405" on="1"/>
        <pt x="261" y="488" on="1"/>
        <pt x="261" y="489" on="0"/>
        <pt x="302" y="498" on="0"/>
        <pt x="324" y="498" on="1"/>
        <pt x="324" y="575" on="1"/>
        <pt x="164" y="575" on="1"/>
        <pt x="163" y="573" on="0"/>
        <pt x="158" y="560" on="0"/>
        <pt x="153" y="534" on="0"/>
        <pt x="153" y="516" on="1"/>
        <pt x="153" y="384" on="1"/>
      </contour>
    </TTGlyph>
    <TTGlyph name="dvCH_R" xMin="-32" yMin="-306" xMax="560" yMax="660">
      <component glyphName="dvCHA" x="0" y="0" flags="0x0"/>
      <component glyphName="dvRashtrasign" x="481" y="10" flags="0x4"/>
      <component glyphName="dvVirama" x="372" y="-88" flags="0x4"/>
    </TTGlyph>
    <TTGlyph name="dvCH_RA" xMin="-32" yMin="-113" xMax="560" yMax="660">
      <component glyphName="dvCHA" x="0" y="0" flags="0x0"/>
      <component glyphName="dvRashtrasign" x="481" y="10" flags="0x4"/>
    </TTGlyph>
    <TTGlyph name="dvCH_R_YA" xMin="-32" yMin="-113" xMax="1076" yMax="660">
      <contour>
        <pt x="1076" y="575" on="1"/>
        <pt x="986" y="575" on="1"/>
        <pt x="986" y="0" on="1"/>
        <pt x="886" y="0" on="1"/>
        <pt x="886" y="62" on="1"/>
        <pt x="831" y="51" on="0"/>
        <pt x="775" y="51" on="1"/>
        <pt x="681" y="51" on="0"/>
        <pt x="575" y="139" on="0"/>
        <pt x="575" y="228" on="1"/>
        <pt x="575" y="298" on="1"/>
        <pt x="629" y="298" on="1"/>
        <pt x="668" y="298" on="0"/>
        <pt x="697" y="319" on="0"/>
        <pt x="697" y="347" on="1"/>
        <pt x="697" y="358" on="1"/>
        <pt x="697" y="384" on="0"/>
        <pt x="675" y="407" on="0"/>
        <pt x="644" y="407" on="1"/>
        <pt x="477" y="407" on="1"/>
        <pt x="481" y="388" on="0"/>
        <pt x="481" y="359" on="1"/>
        <pt x="481" y="172" on="1"/>
        <pt x="481" y="105" on="0"/>
        <pt x="426" y="31" on="0"/>
        <pt x="363" y="18" on="1"/>
        <pt x="429" y="-113" on="1"/>
        <pt x="325" y="-113" on="1"/>
        <pt x="270" y="10" on="1"/>
        <pt x="266" y="10" on="1"/>
        <pt x="264" y="10" on="1"/>
        <pt x="209" y="-113" on="1"/>
        <pt x="105" y="-113" on="1"/>
        <pt x="171" y="18" on="1"/>
        <pt x="106" y="31" on="0"/>
        <pt x="48" y="100" on="0"/>
        <pt x="48" y="163" on="1"/>
        <pt x="48" y="192" on="1"/>
        <pt x="48" y="263" on="0"/>
        <pt x="100" y="285" on="1"/>
        <pt x="75" y="297" on="0"/>
        <pt x="53" y="344" on="0"/>
        <pt x="53" y="380" on="1"/>
        <pt x="53" y="516" on="1"/>
        <pt x="53" y="533" on="0"/>
        <pt x="58" y="560" on="0"/>
        <pt x="63" y="573" on="0"/>
        <pt x="64" y="575" on="1"/>
        <pt x="-32" y="575" on="1"/>
        <pt x="-32" y="660" on="1"/>
        <pt x="1076" y="660" on="1"/>
      </contour>
      <contour>
        <pt x="383" y="345" on="1"/>
        <pt x="383" y="381" on="0"/>
        <pt x="353" y="413" on="0"/>
        <pt x="315" y="413" on="1"/>
        <pt x="295" y="413" on="0"/>
        <pt x="265" y="406" on="0"/>
        <pt x="261" y="405" on="1"/>
        <pt x="261" y="488" on="1"/>
        <pt x="261" y="489" on="0"/>
        <pt x="302" y="498" on="0"/>
        <pt x="324" y="498" on="1"/>
        <pt x="324" y="575" on="1"/>
        <pt x="164" y="575" on="1"/>
        <pt x="163" y="573" on="0"/>
        <pt x="158" y="560" on="0"/>
        <pt x="153" y="534" on="0"/>
        <pt x="153" y="516" on="1"/>
        <pt x="153" y="384" on="1"/>
        <pt x="153" y="357" on="0"/>
        <pt x="178" y="330" on="0"/>
        <pt x="214" y="330" on="1"/>
        <pt x="278" y="330" on="1"/>
        <pt x="278" y="241" on="1"/>
        <pt x="217" y="241" on="1"/>
        <pt x="179" y="241" on="0"/>
        <pt x="148" y="216" on="0"/>
        <pt x="148" y="185" on="1"/>
        <pt x="148" y="168" on="1"/>
        <pt x="148" y="140" on="0"/>
        <pt x="166" y="112" on="0"/>
        <pt x="216" y="100" on="0"/>
        <pt x="266" y="100" on="1"/>
        <pt x="315" y="100" on="0"/>
        <pt x="365" y="115" on="0"/>
        <pt x="383" y="147" on="0"/>
        <pt x="383" y="176" on="1"/>
      </contour>
      <contour>
        <pt x="886" y="575" on="1"/>
        <pt x="417" y="575" on="1"/>
        <pt x="417" y="499" on="1"/>
        <pt x="641" y="499" on="1"/>
        <pt x="721" y="499" on="0"/>
        <pt x="795" y="435" on="0"/>
        <pt x="795" y="367" on="1"/>
        <pt x="795" y="342" on="1"/>
        <pt x="795" y="227" on="0"/>
        <pt x="673" y="227" on="1"/>
        <pt x="673" y="226" on="1"/>
        <pt x="673" y="184" on="0"/>
        <pt x="722" y="144" on="0"/>
        <pt x="782" y="144" on="1"/>
        <pt x="837" y="144" on="0"/>
        <pt x="886" y="155" on="1"/>
      </contour>
    </TTGlyph>
</ttFont>
